M48
;Layer_Color=9474304
;FILE_FORMAT=4:3
METRIC,LZ
;TYPE=PLATED
T01F00S00C0.500
T05F00S00C1.000
T06F00S00C1.100
T07F00S00C1.200
T08F00S00C1.700
T09F00S00C1.900
T10F00S00C3.200
T11F00S00C4.000
%
T01
X0010569Y0004934
X0015569
X0013069Y0009934
X0008069
X0020142Y0013005
X0023069Y0009934
X0028069
X0027379Y0014528
X0026194
X0025009
X0031189
X0032374
X0033559
X0034392Y000932
Y0008338
X0035467
Y000932
X0036542
Y0008338
X0043069Y0009934
X0042758Y0013005
X0047625Y0014528
X004881
X0049995
X0053805
X005499
X0056175
X0057292Y000932
Y0008338
X0058367
Y000932
X0059442
Y0008338
X0048069Y0009934
X0068069
X0073069
X0072611Y0014528
X0071426
X0070241
X0076421
X0077606
X0078791
X0080193Y000932
Y0008338
X0081268
Y000932
X0082343
Y0008338
X0080569Y0004934
X0075569
X0070569
X0065569
X0065374Y0013005
X0087991Y0013006
X0092858Y0014529
X0094043
X0095228
X0099038
X0093069Y0009934
X0095569Y0004934
X0090569
X0100569
X0105569
X0105243Y0008338
Y000932
X0104168
Y0008338
X0103093
Y000932
X0101408Y0014529
X0100223
X0105569Y0014934
X0110569
X0115569
X0118069Y0009934
X0113069
X0110569Y0004934
X0113069Y0019934
X0118069
X0108069
X0101408Y0019964
Y002098
Y0021996
X0100223
Y002098
Y0019964
X0101609Y0025883
Y002819
Y0030647
X0103069Y0029934
X0108069
X0113069
X0115569Y0034934
X0110569
X0105569
X010145Y0036052
X0100582Y0036873
X0100792Y0041207
Y0042393
Y0043578
X0100569Y0044934
X0105569
X0110569
X0115569
X0113069Y0049934
X0108069
X0103069
X0102187Y0053146
X0103585Y0055097
X0105569Y0054934
X0103381Y005775
X0115569Y0054934
X0113069Y0039934
X0108069
X0103069
X0105569Y0024934
X0110569
X0099038Y0021996
Y002098
Y0019964
X0095228
X0094043
X0092858
X0091161Y0021184
X008813
X0088043Y0023089
Y0025576
Y0028063
X0086694Y0030455
Y0031709
X0086729Y0034231
X0080569Y0034934
X0078833Y0036051
X0077965Y0036872
X0078069Y0039934
X0078175Y0041207
Y0042392
Y0043577
X0071724
Y0042392
Y0041207
X0073069Y0039934
X0073496Y0037964
Y0036779
Y0035594
X0072262
Y0036779
Y0037964
X0071027
Y0036779
Y0035594
X0069793Y0036779
Y0037964
X0068069Y0039934
X0065408Y004121
Y0042395
Y004358
X0062128Y0044183
X0070071Y0045263
X0080772Y0049555
X0080035Y0051867
X0083011Y0052504
X008677Y0052047
X0088069Y0049934
X0093069
X009484Y0051209
X009784Y0050676
X0096461Y005525
X00952Y005547
X0094856Y0057
X0096753Y0056531
X0096623Y0057854
X0096792Y0059096
X0098702Y0059148
X009058Y0059083
X0086164Y0058118
X0082542Y0058769
X0079354Y0056149
X0091799Y005425
X0090569Y0044934
X0088025Y0043581
Y0042396
Y004121
X0088069Y0039934
X0093069
X0093644Y0037965
Y003678
Y0035595
X0094879
Y003678
Y0037965
X0096113
Y003678
Y0035595
X0095475Y0032821
X0095538Y0031831
X0094513Y00306
X0094458Y0029348
X0094732Y0028124
X0094824Y0026577
X0093787Y00273
X009241Y003678
Y0037965
X0094341Y0041207
Y0042393
Y0043578
X0095569Y0044934
X0098069Y0039934
X0078992Y0030646
Y0028189
Y0025882
X0080569Y0024934
X0078791Y0021995
Y0020979
Y0019963
X0077606
Y0020979
Y0021995
X0076421
Y0020979
Y0019963
X0072611
X0071426
X0070241
X0068544Y0021183
X0065513
X0065426Y0023088
Y0025575
Y0028062
X0064112Y0030394
Y0031708
Y003423
X0072858Y003282
X0072921Y003183
X0071896Y00306
X0071841Y0029347
X0072115Y0028123
X0072207Y0026576
X007117Y0027299
X0060569Y0054934
X0056098Y0055097
X0055895Y005775
X0054701Y0053146
X0050354Y0050676
X0047354Y0051209
X0047714Y005547
X0048975Y005525
X0049267Y0056531
X0049137Y0057854
X0049306Y0059096
X0051216Y0059148
X004737Y0057
X0044313Y005425
X0043094Y0059083
X0038678Y0058118
X0035056Y0058769
X0031868Y0056149
X0032537Y0052019
X0035524Y0052504
X0037712Y0051486
X0039284Y0052047
X0042792Y004358
Y0042395
Y004121
X0043069Y0039934
X0048069
X0049108Y0041207
Y0042392
Y0043577
X0049646Y0037964
Y0036779
Y0035594
X0048411
Y0036779
Y0037964
X0047177
Y0036779
X005088
Y0037964
Y0035594
X0050242Y003282
X0050305Y003183
X004928Y00306
X0049225Y0029347
X0049499Y0028123
X0049591Y0026576
X0048554Y0027299
X004281Y0028062
Y0025575
Y0023088
X0042897Y0021183
X0045928
X0047625Y0019963
X004881
X0049995
X0053805
Y0020979
Y0021995
X005499
Y0020979
Y0019963
X0056175
Y0020979
Y0021995
X0056376Y0025882
Y0028189
Y0030646
X0058069Y0029934
X0056217Y0036051
X0055349Y0036872
X0055559Y0041207
Y0042392
Y0043577
X0053069Y0039934
X0058069
X0041496Y003423
Y0031708
Y0030394
X003376Y0030646
Y0028189
Y0025882
X0035569Y0024934
X0033559Y0021995
Y0020979
Y0019963
X0032374
Y0020979
Y0021995
X0031189
Y0020979
Y0019963
X0027379
X0026194
X0025009
X0023312Y0021183
X0020281
X0025938Y0027299
X0026975Y0026576
X0026883Y0028123
X0026609Y0029347
X0026664Y00306
X0027689Y003183
X0027626Y003282
X002703Y0035594
Y0036779
Y0037964
X0025795
Y0036779
Y0035594
X0024561Y0036779
Y0037964
X0023069Y0039934
X0026492Y0041207
Y0042392
Y0043577
X0028069Y0039934
X0028264Y0037964
Y0036779
Y0035594
X0032733Y0036872
X0033601Y0036051
X0035569Y0034934
X0033069Y0039934
X0032943Y0041207
Y0042392
Y0043577
X0021068Y0059192
X0020181Y0058305
X0019084Y0057698
X0017826Y005621
X0019192Y005284
X0016713Y0049733
X0015291Y0049327
Y0047663
X0016661
Y0045745
X0015265
X0015725Y0044092
X0014434Y0044153
X001489Y004248
X0013069Y0039934
X0012506Y003875
X0011181
X0008585Y0038445
X0006558Y0037656
X0006026Y0039352
X0003857Y0040217
X0004806Y0044034
X0005569Y0044934
X0005028Y0046963
X0006248Y0047066
X000602Y0049482
X0004394Y0049581
X0007807Y0051941
X0010326Y0050353
X0012116Y0049124
X0013069Y0049934
X0013635Y0051197
X0010326Y0054584
X0007102Y0057369
X0008831Y0048067
X0008531Y0041255
X0008954Y0035966
X0010207Y0035906
X0012807
X0014441Y0035711
X0013899Y0031562
X0011856Y0031524
X0009975
X0007985Y0031511
X0008069Y0029934
X0005949Y0031512
X0004261Y0031524
X0002573
X0013069Y0029934
X0018934Y0030454
X0019241Y0031708
X0020194Y0028062
Y0025575
Y0023088
X0013069Y0019934
X002021Y0035478
X0020176Y004121
Y0042395
Y004358
X0002666Y0044034
X0012243Y0062814
X0013947
X0015651
X0018666Y0067455
X001992
X001727Y0069061
X0013073Y0068938
X0011819
X0010816Y0071145
X0009448Y0067899
X0008484Y0077445
X0008798Y007886
X0011034Y0079058
X0014394Y0079415
X0014402Y0078088
X0014402Y0080924
X0015569Y0084934
X001153Y0083616
X0008798Y0083736
X000856Y0085547
X0009206Y0081457
X0005442Y0081171
Y0079858
X0004318Y0082208
Y0083708
X0008069Y0089934
X0013069
X0010569Y0094934
X0005569
X0018284Y0094562
X0021565Y0098171
X0028069Y0089934
X0033069
X0038069
X0043069
X0043094Y0086108
X0038678Y0085143
X0035056Y0085795
X0031868Y0083175
X003258Y0079252
X0035524Y007953
X0037668Y0078511
X0039284Y0079073
X0043069Y0079934
X0044313Y0081276
X0047714Y0082495
X0048975Y0082276
X0049267Y0083556
X0049137Y0084879
X0049306Y0086122
X0051216Y0086174
X0055895Y0086776
Y0084776
X0056098Y0082123
X0054701Y0080172
X004975Y0078182
X0047354Y0078254
X0046777Y0075977
X0049306Y0072622
X0049137Y0071379
X0049267Y0070056
X0048975Y0068776
X0047714Y0068995
X004737Y0070526
X0044313Y0067776
X0045569Y0064934
X0047354Y0064734
X0049938
X0046777Y0062452
X0040569Y0064934
X0039284Y0065573
X0037712Y0065011
X0035524Y006603
X003253Y0065583
X0032055Y0062371
X0033463
X0030279Y006247
X002886
X0027409
X002446Y0061036
X0024359Y0059766
X0021317Y0060881
X0022189Y0061781
X0022606Y0062987
X0022615Y0064241
X0021434Y0065448
X0020547Y0066334
X0031868Y0069675
X0035056Y0072295
X0038678Y0071643
X0043094Y0072608
X0051216Y0072674
X0055895Y0073276
Y0071276
X0056098Y0068623
X0054701Y0066672
X0055895Y005975
X0058069Y0089934
X0046624Y008951
X004737Y0084026
X0028054Y0079404
X0027102Y0078588
X0024062Y0080381
Y0081635
X0060569Y0084934
X0062779Y0088521
X0069491Y0086504
X0070637
Y0085319
X0069491
X0068069Y0079934
X007145Y0077191
X0080066Y0078918
X0083011Y0079558
X008677Y0079101
X0086164Y0085171
X0082542Y0085823
X0079354Y0083203
X0077194Y0089798
X0076048
Y0090983
X0077194
X0076073Y0096139
X0097696Y0097836
X0098842
X0098702Y0086202
X0096792Y008615
X0096623Y0084907
X0096753Y0083584
X0096461Y0082304
X00952Y0082523
X0094856Y0084054
X0091799Y0081304
X009058Y0086137
X009411Y0089571
X009484Y0078263
X0097348Y0078237
X0093693Y0075763
X0096792Y0072622
X0096623Y0071379
X0096753Y0070056
X0096461Y0068776
X00952Y0068995
X0094856Y0070526
X009484Y006475
X0097457
X009411Y0062467
X0090569Y0064934
X0091799Y0067776
X009058Y0072608
X0086164Y0071643
X0082542Y0072295
X0079354Y0069675
X0080066Y0065456
X0083011Y006603
X008677Y0065573
X0072153Y0063558
X0065569Y0064934
X0060569
X0062779Y0061496
Y0075021
X0098702Y0072674
X0103381Y0073276
Y0071276
X0103585Y0068623
X0102187Y0066672
X0105569Y0064934
X0110569
X0110265Y0061496
X0103381Y005975
X0115569Y0064934
X0118069Y0069934
X0115569Y0074934
X0110265Y0075021
X0102187Y00802
X0103585Y0082151
X0103381Y0084804
Y0086804
X0103069Y0089934
X0104309Y009205
X0100624
X0103661Y0097836
X0104807
X0108069Y0089934
X0110265Y008855
X0113069Y0089934
X0115569Y0084934
X0105569
X0104807Y0099021
X0103661
Y0100206
X0104807
X0105569Y0104934
X0103974Y0107414
Y0108599
Y0109784
X0102721Y0109886
X0101536
X0100351
X0099883Y0112493
X0104115Y0113124
Y011431
Y0115495
X0105569Y0114934
X0110566Y0115495
Y011431
Y0113124
X011061Y0111023
Y0109877
X0111795
Y0111023
X011298
Y0109877
X0108069Y0109934
X0108794Y0118737
Y0119922
Y0121108
X0110028
Y0119922
Y0118737
X0111263
Y0119922
Y0121108
X0109432Y0123881
X0109364Y0124866
X0110196Y0125804
X0110449Y0127354
X0110175Y0128578
X0110083Y0130126
X011112Y0129403
X0110569Y0134934
X0110864Y0136738
X0112049
X0109679
X0105869Y0136941
X0104684
X0103499
X0103789Y0135584
X0104974
X0106159
X0106674Y013827
X0113746Y0135519
X0116777
X0116865Y0133614
Y0131126
Y0128639
X0116861Y012371
X0116848Y0121223
X0116882Y0115492
Y0114307
Y0113121
X0115569Y0114934
X0104325Y0119829
X0103457Y012065
X0103298Y0126055
Y0128512
Y013082
X0096852Y0127455
X0095844Y0125381
X0093257Y0125067
X0091094Y0125824
X0091082Y0127154
X0087296Y0125691
X0085569Y0124934
X0080569
X0079249Y0125381
X0076662Y0125067
X0074499Y0125824
X0074486Y0127154
X0071575Y0125544
X0072196Y0121831
Y0120646
Y0119461
X0072037Y0117696
X0074643Y0119646
Y0121646
X0077643
Y0119646
X0080341Y0120254
Y0117011
X0078534Y0112493
X0076949
X0075365
X007378
X0072196
X0070611
X0073069Y0109934
X0078069
X0083069
X0082706Y0112291
X0087207Y0112493
X0088791
X0090376
X009196
X0093545
X0095129
X0093069Y0109934
X0088069
X0090569Y0104934
X0095569
X0099098Y0107414
Y0108599
Y0109784
X0096936Y0117011
Y0120254
X0094238Y0119646
Y0121646
X0091238
Y0119646
X0088791Y0119461
Y0120646
Y0121831
X0088632Y0117696
X0085569Y0114934
Y0104934
X0080569
X0075569
X0078069Y0099934
X0073069
X0068069
X0065569Y0104934
X0065191Y0108392
Y0109464
Y0110536
X0065204Y0111608
Y0112679
Y0113751
X0065191Y0114823
Y0115895
Y0116967
X0068069Y0119934
X0065569Y0124934
X0064877Y0128057
X0065461Y0131639
X0066535
X0067615
Y0132824
X0066535
X0065461
Y013401
X0066535
X0067615
Y0135195
X0066535
X0065461
Y013638
X0066535
X0067615
X0064276
X0071951Y0138682
X0073136
X0074322Y0137822
X0075507
X0077927Y013777
Y0136584
Y0135399
X0079212Y0138249
X0080194
X0088547Y0138682
X0089732
X0090917Y0137822
X0092102
X0094523Y013777
Y0136584
Y0135399
X0095808Y0138249
X009679
X0080257Y0127455
X0068069Y0129934
X0060989Y0126233
X0061253Y0109941
Y0108869
Y0107798
X0059983
Y0108869
Y0109941
X0062523
Y0108869
Y0107798
X0063793
Y0108869
Y0109941
X0068069Y0109934
X0060569Y0104934
X0088069Y0099934
X0093069
X0097696Y0100206
X0098842
Y0099021
X0097696
X0058069Y0099934
X0053069
X0048069
X0043069
X0038069
X0033069
X0028069
X0025569Y0104934
X0020569
X0023069Y0109934
X0023809Y0112493
X0025393
X0026978
X0028069Y0109934
X0033069
X0031731Y0112493
X0036513Y0112679
Y0111608
X0036501Y0110536
Y0109464
Y0108392
X0038012Y0108869
Y0109941
X0039282
Y0108869
Y0107798
X0040552
Y0108869
Y0109941
X0041822
Y0108869
Y0107798
X0043092
Y0108869
Y0109941
X0044362
Y0108869
Y0107798
X0045632
Y0108869
Y0109941
X0046902
Y0108869
Y0107798
X00483Y0108392
Y0109464
Y0110536
X0048313Y0111608
Y0112679
Y0113751
X00483Y0114823
Y0115895
Y0116967
X0048069Y0119934
X0054229Y0120285
X0053117Y0123102
X0050569Y0124934
X0047986Y0128057
X0048069Y0129934
X004857Y0131639
X0049644
X0050775
Y0132824
X0049644
X004857
Y013401
X0049644
X0050775
Y0135195
X0049644
X004857
Y013638
X0049644
X0050775
X0052143Y0136457
Y0137643
Y0135272
X005215Y0133756
Y013257
Y0131385
X0053069Y0129934
X0055073Y0131385
X0056218
X0047385Y013638
X0035941Y0136457
Y0135272
X0035829Y0133766
Y0132581
Y0131395
X0038752
X0035941Y0137643
X0028098Y013777
Y0136584
Y0135399
X0025678Y0137822
X0024493
X0023202Y0138682
X002293Y0127154
X0022943Y0125824
X0025105Y0125067
X0027692Y0125381
X00287Y0127455
X0028785Y0120254
Y0117011
X0026086Y0119646
Y0121646
X0023086
Y0119646
X002064Y0119461
Y0120646
Y0121831
X0020569Y0124934
X002064Y0112493
X0022224
X0036513Y0113751
X0036525Y0114823
Y0115895
Y0116967
X0037553Y0120285
X0036226Y0123102
X0035569Y0124934
X0033069Y0119934
X0038012Y0107798
X0035569Y0104934
X0040569
X0045569
X0055569
X0056173Y0107798
Y0108869
Y0109941
X0054903
Y0108869
Y0107798
X0053392Y0108392
Y0109464
Y0110536
X0053404Y0111608
Y0112679
Y0113751
X0053416Y0114823
Y0115895
Y0116994
X0050569Y0114934
X0057443Y0109941
Y0108869
Y0107798
X0058713
Y0108869
Y0109941
X0044098Y0126233
X0019252Y012611
X0014623Y0125894
X0014121Y0128438
X0015467Y0128394
X0014623Y0130845
Y0133332
X0014542Y0135237
X0011511
X0009814Y0136457
X0008629
X0007444
X0003924Y0135303
X0002739
X0001554
X0001063Y0130538
Y0128231
Y0125774
X0001222Y0120369
X000209Y0119548
X000188Y0115214
Y0114028
Y0112843
X0008331
Y0114028
Y0115214
X0010569Y0114934
X0014647Y0115211
Y0114025
Y011284
X0013069Y0109934
X0008069
X0010569Y0104934
X0005569
X0013069Y0099934
X0018069
X0019063Y01125
X0019219Y0116659
X0014709Y0119272
X0014613Y0120942
X0009028Y0120826
Y0119641
Y0118456
X0007793
Y0119641
Y0120826
X0006559
Y0119641
Y0118456
X0007197Y01236
X0007134Y012459
X0008003Y0125494
X0008214Y0127073
X000794Y0128297
X0007848Y0129844
X0008885Y0129121
X001756Y0132034
X0018745
X001993
Y0133219
X0018745
X001756
Y0138682
X0018745
X001993
Y0139867
X0018745
X001756
X0013069Y0139934
X0011533Y0143355
X0010569Y0144934
X0009814Y0141892
X0008629
X0007444
X0003634Y0142349
X0002449
X0001264
X0002777Y0146634
X0003962
X0005148
X0003547Y0150292
X0002362
X0001177
X0004149Y0153543
X0005334
X0006519
X0008437Y0151963
X0009418
Y0150888
X0008437
Y0149813
X0009418
X0016849Y0147206
X0018034
X0019219
Y014478
X0018034
X0016849
Y015367
X0018034
X0019219
X0015569Y0164934
X0010569
X0006491Y0157551
X0005306
X0004121
X002181Y0159597
Y0160579
X0022885
Y0159597
X002396
Y0160579
X0028069Y0159934
X0033069
X0038069
X0043069
X0048069
X0053069
X0058069
X0055569Y0164934
X0050569
X0045569
X0040569
X0035569
X0030569
X0025569
X0020569
X0025569Y0154934
X0023069Y0149934
X0026194Y0146944
X002738
X0028565Y0146963
Y0145818
Y0144673
Y0143528
Y0142383
X0029741
Y0143528
Y0144673
Y0145818
Y0146963
X0031122Y014233
Y0141348
X0032197
Y014233
X0033272
Y0141348
X0033069Y0139934
X0035941Y0140013
Y0138828
X0039051Y0141894
X0040196
X0041341
X0042486
X0043631
X0044776
X0041341Y0143071
X0040196
X0039051
X004016Y0144297
Y0145442
Y0146587
Y0147732
Y0148877
Y0150022
X0041337
Y0148877
Y0147732
Y0146587
Y0145442
Y0144297
X0050569Y0144934
X0052143Y0140013
Y0138828
X0058416Y0141935
X0059561
Y0143112
X0058416
X0058069Y0149934
X0056549Y0149488
Y015047
X0055474
Y0149488
X0054399
Y015047
X0053069Y0149934
X0055569Y0154934
X0045569
X0040569
X0035569
X0035187Y0150749
Y0149767
X0034112
Y0150749
X0033037
Y0149767
X0028098Y014014
Y0138955
X0026863
X0025678
X0024493
X0060706Y0141935
X0061851
X0062996
X0064141
X0062996Y0143112
X0061851
X0060706
X0061562Y0144338
Y0145483
Y0146628
Y0147773
Y0148918
Y0150063
X0062738
Y0148918
Y0147773
Y0146628
Y0145483
Y0144338
X0070375Y0144673
Y0143528
Y0142383
X0071551
Y0143528
Y0144673
Y0145818
Y0146963
X0070375
Y0145818
X0072736Y0146944
X0073921
X0073069Y0149934
X0077479Y0152146
X0078664
X0079849
X0079849Y0153711
X0078664
X0077479
X0078069Y0159934
X0082589Y0160368
Y0159386
X0083664
Y0160368
X0084739
Y0159386
X0088069Y0159934
X0093069
X0098069
X0099179Y0160368
Y0159386
X0096439Y0153711
X0095254
X0094069
X009407Y0152359
X0095255
X009644
X0097218Y0147337
Y0144847
X0098403
X0099589
X0099291Y0141902
X0098106
Y0139597
X0099291
X009679Y0139324
X0095808
X0095808Y0140414
X009679
X0094523Y014014
Y0138955
X0093287
X0092102
X0090917
X0088146Y0142383
Y0143528
Y0144673
Y0145818
Y0146963
X008697
Y0145818
Y0144673
Y0143528
Y0142383
X0083886Y0141902
X0082701
X0081516
Y0139597
X0082701
X0083886
X0080194Y0139324
X0079212
X0079212Y0140414
X0080194
X0077927Y014014
Y0138955
X0076692
X0075507
X0074322
X0068069Y0139934
X0080628Y0144847
X0081813
X0082999
X0085569Y0144934
X0089331Y0146944
X0090517
X008958Y014853
Y0149715
Y0150901
X0089204Y0152153
X0088019
X0086834
X0085569Y0154934
X0090569
Y0164934
X0095569
X0085569
X0080569
X0075569
X0070569
X0065569
X0060569
X0063069Y0159934
X0068069
X0073069
X0065569Y0154934
X0060569
X0080628Y0147337
X0100476Y0141902
Y0139597
X0103499Y0142173
X0104684
X0105869
X0106674Y0140641
Y0139456
X0107245Y0144398
X0106059
X0104874
X010582Y0148723
Y0149908
Y0151094
X0105444Y0152346
X0104259
X0103074
X0105569Y0154934
X0100569
X0100254Y0159386
Y0160368
X0101329
Y0159386
X0103069Y0159934
X0108069
X0113069
X0118069
X0115569Y0154934
X0111564Y0153463
X0110582
Y0152388
X0111564
Y0151313
X0110582
X0113069Y0149934
X0108069
X0110569Y0144934
X0110864Y0142173
X0112049
X0109679
X0115569Y0144934
X0116916Y0143789
X0110569Y0164934
X0105569
X0100569
T05
X0014845Y0167058
X0025845
X0075664
X0086664
X0092254
X0103254
T06
X0113465Y0053444
Y0055984
Y0058524
X00776Y0057149
Y0054609
X007506
Y0057149
X0065979Y0055984
Y0058524
Y0053444
X0030114Y0054609
X0027574
Y0057149
X0030114
Y0068135
X0027574
Y0070675
X0030114
X0030114Y0081635
X0027574
Y0084175
X0030114
X0065979Y008301
Y008555
Y008809
Y008047
X0065979Y007459
Y007205
Y006951
Y006697
Y0061064
X007506Y0068135
X00776
Y0070675
X007506
Y0081663
X00776
Y0084203
X007506
X0113465Y0083038
Y0085578
Y0088118
Y0080498
Y007459
Y007205
Y006951
Y006697
Y0061064
T07
X0006381Y0013864
Y0017364
X0011581
Y0013864
Y0020864
Y0024364
X0006381
Y0020864
X0007467Y0098458
X0026226
X0044984
X0063743
X0082502
X0088247Y0103279
X0069488
X005073
X0031971
X0013212
T08
X0017845Y0157058
X0022845
X0078664
X0083664
X0095254
X0100254
T09
X0030467Y0011648
X0035467
X0053367
X0058367
X0076268
X0081268
X0099168
X0104168
X0011667Y0150888
Y0155888
X0108334Y0152388
Y0147388
T10
X00035Y00035
X01165
X00035Y01665
X01165
T11
X0034097Y0145608
X0044997
X0055561
X0066461
M30
