G04*
G04 #@! TF.GenerationSoftware,Altium Limited,Altium Designer,25.8.1 (18)*
G04*
G04 Layer_Color=16711935*
%FSLAX43Y43*%
%MOMM*%
G71*
G04*
G04 #@! TF.SameCoordinates,4C837565-1E1F-4476-BEE8-5968ED86CB82*
G04*
G04*
G04 #@! TF.FilePolarity,Negative*
G04*
G01*
G75*
G04:AMPARAMS|DCode=53|XSize=1.219mm|YSize=1.092mm|CornerRadius=0.324mm|HoleSize=0mm|Usage=FLASHONLY|Rotation=90.000|XOffset=0mm|YOffset=0mm|HoleType=Round|Shape=RoundedRectangle|*
%AMROUNDEDRECTD53*
21,1,1.219,0.445,0,0,90.0*
21,1,0.572,1.092,0,0,90.0*
1,1,0.648,0.222,0.286*
1,1,0.648,0.222,-0.286*
1,1,0.648,-0.222,-0.286*
1,1,0.648,-0.222,0.286*
%
%ADD53ROUNDEDRECTD53*%
G04:AMPARAMS|DCode=54|XSize=1.219mm|YSize=1.092mm|CornerRadius=0.324mm|HoleSize=0mm|Usage=FLASHONLY|Rotation=180.000|XOffset=0mm|YOffset=0mm|HoleType=Round|Shape=RoundedRectangle|*
%AMROUNDEDRECTD54*
21,1,1.219,0.445,0,0,180.0*
21,1,0.572,1.092,0,0,180.0*
1,1,0.648,-0.286,0.222*
1,1,0.648,0.286,0.222*
1,1,0.648,0.286,-0.222*
1,1,0.648,-0.286,-0.222*
%
%ADD54ROUNDEDRECTD54*%
G04:AMPARAMS|DCode=61|XSize=1.15mm|YSize=1.35mm|CornerRadius=0.325mm|HoleSize=0mm|Usage=FLASHONLY|Rotation=0.000|XOffset=0mm|YOffset=0mm|HoleType=Round|Shape=RoundedRectangle|*
%AMROUNDEDRECTD61*
21,1,1.150,0.700,0,0,0.0*
21,1,0.500,1.350,0,0,0.0*
1,1,0.650,0.250,-0.350*
1,1,0.650,-0.250,-0.350*
1,1,0.650,-0.250,0.350*
1,1,0.650,0.250,0.350*
%
%ADD61ROUNDEDRECTD61*%
G04:AMPARAMS|DCode=63|XSize=1.15mm|YSize=1.35mm|CornerRadius=0.325mm|HoleSize=0mm|Usage=FLASHONLY|Rotation=90.000|XOffset=0mm|YOffset=0mm|HoleType=Round|Shape=RoundedRectangle|*
%AMROUNDEDRECTD63*
21,1,1.150,0.700,0,0,90.0*
21,1,0.500,1.350,0,0,90.0*
1,1,0.650,0.350,0.250*
1,1,0.650,0.350,-0.250*
1,1,0.650,-0.350,-0.250*
1,1,0.650,-0.350,0.250*
%
%ADD63ROUNDEDRECTD63*%
%ADD75C,1.711*%
%ADD76R,2.753X2.753*%
%ADD77C,2.753*%
%ADD78C,3.053*%
%ADD79C,2.203*%
%ADD80C,3.100*%
%ADD81C,5.203*%
%ADD82O,2.203X1.403*%
%ADD83O,2.003X1.503*%
%ADD84C,2.004*%
%ADD85R,2.203X2.203*%
%ADD86R,1.411X1.411*%
%ADD87R,3.053X3.053*%
%ADD88R,3.053X3.053*%
%ADD89R,1.411X1.411*%
%ADD90R,2.203X2.203*%
%ADD91R,5.203X5.203*%
%ADD92O,1.503X3.203*%
%ADD93C,6.203*%
%ADD94C,1.203*%
%ADD95C,1.003*%
%ADD135R,0.800X0.900*%
%ADD136R,0.900X0.800*%
%ADD137R,0.559X0.737*%
%ADD138R,0.750X1.000*%
%ADD141C,3.631*%
%ADD146R,1.603X1.403*%
G04:AMPARAMS|DCode=147|XSize=1.003mm|YSize=0.463mm|CornerRadius=0.134mm|HoleSize=0mm|Usage=FLASHONLY|Rotation=270.000|XOffset=0mm|YOffset=0mm|HoleType=Round|Shape=RoundedRectangle|*
%AMROUNDEDRECTD147*
21,1,1.003,0.195,0,0,270.0*
21,1,0.735,0.463,0,0,270.0*
1,1,0.268,-0.098,-0.368*
1,1,0.268,-0.098,0.368*
1,1,0.268,0.098,0.368*
1,1,0.268,0.098,-0.368*
%
%ADD147ROUNDEDRECTD147*%
G04:AMPARAMS|DCode=148|XSize=1.063mm|YSize=0.463mm|CornerRadius=0.134mm|HoleSize=0mm|Usage=FLASHONLY|Rotation=270.000|XOffset=0mm|YOffset=0mm|HoleType=Round|Shape=RoundedRectangle|*
%AMROUNDEDRECTD148*
21,1,1.063,0.195,0,0,270.0*
21,1,0.795,0.463,0,0,270.0*
1,1,0.268,-0.098,-0.398*
1,1,0.268,-0.098,0.398*
1,1,0.268,0.098,0.398*
1,1,0.268,0.098,-0.398*
%
%ADD148ROUNDEDRECTD148*%
G04:AMPARAMS|DCode=149|XSize=1.003mm|YSize=0.463mm|CornerRadius=0.134mm|HoleSize=0mm|Usage=FLASHONLY|Rotation=0.000|XOffset=0mm|YOffset=0mm|HoleType=Round|Shape=RoundedRectangle|*
%AMROUNDEDRECTD149*
21,1,1.003,0.195,0,0,0.0*
21,1,0.735,0.463,0,0,0.0*
1,1,0.268,0.368,-0.098*
1,1,0.268,-0.368,-0.098*
1,1,0.268,-0.368,0.098*
1,1,0.268,0.368,0.098*
%
%ADD149ROUNDEDRECTD149*%
G04:AMPARAMS|DCode=150|XSize=1.063mm|YSize=0.463mm|CornerRadius=0.134mm|HoleSize=0mm|Usage=FLASHONLY|Rotation=0.000|XOffset=0mm|YOffset=0mm|HoleType=Round|Shape=RoundedRectangle|*
%AMROUNDEDRECTD150*
21,1,1.063,0.195,0,0,0.0*
21,1,0.795,0.463,0,0,0.0*
1,1,0.268,0.398,-0.098*
1,1,0.268,-0.398,-0.098*
1,1,0.268,-0.398,0.098*
1,1,0.268,0.398,0.098*
%
%ADD150ROUNDEDRECTD150*%
%ADD151R,4.903X4.903*%
G04:AMPARAMS|DCode=152|XSize=3.403mm|YSize=1.553mm|CornerRadius=0.439mm|HoleSize=0mm|Usage=FLASHONLY|Rotation=0.000|XOffset=0mm|YOffset=0mm|HoleType=Round|Shape=RoundedRectangle|*
%AMROUNDEDRECTD152*
21,1,3.403,0.675,0,0,0.0*
21,1,2.525,1.553,0,0,0.0*
1,1,0.878,1.263,-0.338*
1,1,0.878,-1.263,-0.338*
1,1,0.878,-1.263,0.338*
1,1,0.878,1.263,0.338*
%
%ADD152ROUNDEDRECTD152*%
%ADD153R,3.703X5.403*%
%ADD154C,0.643*%
%ADD155R,0.902X2.902*%
G36*
X93798Y142881D02*
X94293D01*
Y141976D01*
X93798D01*
Y141551D01*
X89238D01*
Y141976D01*
X88743D01*
Y142881D01*
X89238D01*
Y146081D01*
X89988D01*
Y145606D01*
X93048D01*
Y146081D01*
X93798D01*
Y142881D01*
D02*
G37*
G36*
X77202D02*
X77697D01*
Y141976D01*
X77202D01*
Y141551D01*
X72642D01*
Y141976D01*
X72147D01*
Y142881D01*
X72642D01*
Y146081D01*
X73392D01*
Y145606D01*
X76452D01*
Y146081D01*
X77202D01*
Y142881D01*
D02*
G37*
G36*
X27373D02*
X27868D01*
Y141976D01*
X27373D01*
Y141551D01*
X22813D01*
Y141976D01*
X22318D01*
Y142881D01*
X22813D01*
Y146081D01*
X23563D01*
Y145606D01*
X26623D01*
Y146081D01*
X27373D01*
Y142881D01*
D02*
G37*
G36*
X68961Y148565D02*
Y143565D01*
X66823Y141427D01*
X58061D01*
Y142955D01*
X59395Y144289D01*
Y148752D01*
X61239Y150597D01*
X66930Y150597D01*
X68961Y148565D01*
D02*
G37*
G36*
X48068Y148525D02*
X48068Y143525D01*
X45929Y141386D01*
X38502Y141386D01*
Y144705D01*
Y150069D01*
X38989Y150556D01*
X46036Y150556D01*
X48068Y148525D01*
D02*
G37*
G36*
X98784Y156078D02*
Y152465D01*
X101394Y149855D01*
Y138788D01*
X97629D01*
Y140788D01*
X95258Y143159D01*
X95255Y147447D01*
X92003Y150700D01*
Y156357D01*
X93979Y158333D01*
X96529D01*
X98784Y156078D01*
D02*
G37*
G36*
X82194D02*
Y152465D01*
X84804Y149855D01*
Y138788D01*
X81039D01*
Y140788D01*
X78668Y143159D01*
X78665Y147447D01*
X75413Y150700D01*
Y156357D01*
X77389Y158333D01*
X79939D01*
X82194Y156078D01*
D02*
G37*
G36*
X93798Y134366D02*
X94293D01*
Y133461D01*
X93798D01*
Y133036D01*
X89238D01*
Y133461D01*
X88743D01*
Y134366D01*
X89238D01*
Y137566D01*
X89988D01*
Y137091D01*
X93048D01*
Y137566D01*
X93798D01*
Y134366D01*
D02*
G37*
G36*
X77202D02*
X77697D01*
Y133461D01*
X77202D01*
Y133036D01*
X72642D01*
Y133461D01*
X72147D01*
Y134366D01*
X72642D01*
Y137566D01*
X73392D01*
Y137091D01*
X76452D01*
Y137566D01*
X77202D01*
Y134366D01*
D02*
G37*
G36*
X27373D02*
X27868D01*
Y133461D01*
X27373D01*
Y133036D01*
X22813D01*
Y133461D01*
X22318D01*
Y134366D01*
X22813D01*
Y137566D01*
X23563D01*
Y137091D01*
X26623D01*
Y137566D01*
X27373D01*
Y134366D01*
D02*
G37*
G36*
X109759Y145129D02*
X107774Y143145D01*
Y136281D01*
X107317Y135669D01*
Y132858D01*
X104027D01*
X102337Y134549D01*
Y143901D01*
X107249Y148813D01*
X109759D01*
Y145129D01*
D02*
G37*
G36*
X13092Y154463D02*
X9478D01*
X6172Y151157D01*
Y135848D01*
X5082Y134758D01*
X5082Y132577D01*
X1792D01*
X381Y133988D01*
Y156235D01*
X5461Y161315D01*
X13092D01*
Y154463D01*
D02*
G37*
G36*
X47382Y138946D02*
Y138916D01*
X46482D01*
Y136016D01*
X47182D01*
Y132316D01*
X37482D01*
Y136016D01*
X38182D01*
Y138916D01*
X37282D01*
Y140316D01*
X47382D01*
Y138946D01*
D02*
G37*
G36*
X64273Y138899D02*
Y138869D01*
X63373D01*
Y135969D01*
X64073D01*
Y132269D01*
X54373D01*
Y135969D01*
X55073D01*
Y138869D01*
X54173D01*
Y140269D01*
X64273D01*
Y138899D01*
D02*
G37*
G36*
X20882Y140401D02*
X20492Y140011D01*
X20504Y131572D01*
X16815D01*
Y141529D01*
X15291Y143053D01*
Y159741D01*
X20882D01*
Y140401D01*
D02*
G37*
G36*
X108587Y131468D02*
X109082D01*
Y130563D01*
X108587D01*
Y127363D01*
X107837D01*
Y127838D01*
X104777D01*
Y127363D01*
X104027D01*
Y130563D01*
X103532D01*
Y131468D01*
X104027D01*
Y131893D01*
X108587D01*
Y131468D01*
D02*
G37*
G36*
X6352Y131187D02*
X6847D01*
Y130282D01*
X6352D01*
Y127082D01*
X5602D01*
Y127557D01*
X2542D01*
Y127082D01*
X1792D01*
Y130282D01*
X1297D01*
Y131187D01*
X1792D01*
Y131612D01*
X6352D01*
Y131187D01*
D02*
G37*
G36*
X45751Y127047D02*
X44941Y127057D01*
Y129057D01*
X44541D01*
Y127057D01*
X43741D01*
Y129057D01*
X43341D01*
Y127057D01*
X42541D01*
Y129057D01*
X42141D01*
Y127057D01*
X41341D01*
Y129057D01*
X40941D01*
Y127057D01*
X40141D01*
Y129057D01*
X39741D01*
Y127057D01*
X38941D01*
Y129057D01*
X38541D01*
Y127057D01*
X37741D01*
Y129867D01*
X45751D01*
Y127047D01*
D02*
G37*
G36*
X62642Y126999D02*
X61832Y127009D01*
Y129009D01*
X61432D01*
Y127009D01*
X60632D01*
Y129009D01*
X60232D01*
Y127009D01*
X59432D01*
Y129009D01*
X59032D01*
Y127009D01*
X58232D01*
Y129009D01*
X57832D01*
Y127009D01*
X57032D01*
Y129009D01*
X56632D01*
Y127009D01*
X55832D01*
Y129009D01*
X55432D01*
Y127009D01*
X54632D01*
Y129819D01*
X62642D01*
Y126999D01*
D02*
G37*
G36*
X56675Y124502D02*
Y122502D01*
X57075D01*
Y124502D01*
X57875D01*
Y122502D01*
X58275D01*
Y124502D01*
X59075D01*
Y122502D01*
X59475D01*
Y124502D01*
X60275D01*
Y122502D01*
X60675D01*
Y124502D01*
X61475D01*
Y122502D01*
X61875D01*
Y124502D01*
X62675D01*
Y122502D01*
X63075D01*
Y124502D01*
X63875D01*
Y121692D01*
X55865D01*
Y124512D01*
X56675Y124502D01*
D02*
G37*
G36*
X39784D02*
Y122502D01*
X40184D01*
Y124502D01*
X40984D01*
Y122502D01*
X41384D01*
Y124502D01*
X42184D01*
Y122502D01*
X42584D01*
Y124502D01*
X43384D01*
Y122502D01*
X43784D01*
Y124502D01*
X44584D01*
Y122502D01*
X44984D01*
Y124502D01*
X45784D01*
Y122502D01*
X46184D01*
Y124502D01*
X46984D01*
Y121692D01*
X38974D01*
Y124512D01*
X39784Y124502D01*
D02*
G37*
G36*
X64134Y115542D02*
X63434D01*
Y112642D01*
X64334D01*
Y111242D01*
X54234D01*
Y112612D01*
Y112642D01*
X55134D01*
Y115542D01*
X54434D01*
Y119242D01*
X64134D01*
Y115542D01*
D02*
G37*
G36*
X47243D02*
X46543D01*
Y112642D01*
X47443D01*
Y111242D01*
X37343D01*
Y112612D01*
Y112642D01*
X38243D01*
Y115542D01*
X37543D01*
Y119242D01*
X47243D01*
Y115542D01*
D02*
G37*
G36*
X100880Y26139D02*
X101375D01*
Y25234D01*
X100880D01*
Y24809D01*
X96320D01*
Y25234D01*
X95825D01*
Y26139D01*
X96320D01*
Y29339D01*
X97070D01*
Y28864D01*
X100130D01*
Y29339D01*
X100880D01*
Y26139D01*
D02*
G37*
G36*
X78263Y26138D02*
X78758D01*
Y25233D01*
X78263D01*
Y24808D01*
X73703D01*
Y25233D01*
X73208D01*
Y26138D01*
X73703D01*
Y29338D01*
X74453D01*
Y28863D01*
X77513D01*
Y29338D01*
X78263D01*
Y26138D01*
D02*
G37*
G36*
X55647D02*
X56142D01*
Y25233D01*
X55647D01*
Y24808D01*
X51087D01*
Y25233D01*
X50592D01*
Y26138D01*
X51087D01*
Y29338D01*
X51837D01*
Y28863D01*
X54897D01*
Y29338D01*
X55647D01*
Y26138D01*
D02*
G37*
G36*
X33031D02*
X33526D01*
Y25233D01*
X33031D01*
Y24808D01*
X28471D01*
Y25233D01*
X27976D01*
Y26138D01*
X28471D01*
Y29338D01*
X29221D01*
Y28863D01*
X32281D01*
Y29338D01*
X33031D01*
Y26138D01*
D02*
G37*
G36*
X102870Y23825D02*
Y14173D01*
X102921Y14122D01*
X100593Y11795D01*
Y10223D01*
X97743D01*
X97590Y10376D01*
Y23844D01*
X102870Y23825D01*
D02*
G37*
G36*
X79908Y14351D02*
X77693Y12136D01*
Y10223D01*
X74843D01*
Y22714D01*
X74973Y22843D01*
Y23843D01*
X79908D01*
Y14351D01*
D02*
G37*
G36*
X56921D02*
X54990Y12420D01*
Y10223D01*
X51942D01*
Y22312D01*
X52357Y22727D01*
Y23843D01*
X56921Y23851D01*
Y14351D01*
D02*
G37*
G36*
X34313Y14146D02*
X31892Y11724D01*
Y10223D01*
X29042D01*
Y22145D01*
X29741Y22843D01*
Y23843D01*
X34313D01*
Y14146D01*
D02*
G37*
D53*
X9511Y70754D02*
D03*
Y69128D02*
D03*
X19155Y56210D02*
D03*
Y54584D02*
D03*
X11623D02*
D03*
Y56210D02*
D03*
X13191Y54584D02*
D03*
Y56210D02*
D03*
X14843Y54584D02*
D03*
Y56210D02*
D03*
X16473Y54584D02*
D03*
Y56210D02*
D03*
X17904Y77215D02*
D03*
Y78841D02*
D03*
X20495Y77240D02*
D03*
Y78866D02*
D03*
X100234Y81082D02*
D03*
X96840Y81082D02*
D03*
X94700Y86645D02*
D03*
X80152Y84483D02*
D03*
X100234Y67553D02*
D03*
X94700Y73116D02*
D03*
X96840Y67554D02*
D03*
X94700Y59591D02*
D03*
X100234Y54028D02*
D03*
X96840Y54028D02*
D03*
X80152Y70955D02*
D03*
Y57429D02*
D03*
X47214Y86616D02*
D03*
X32666Y84455D02*
D03*
X52748Y81053D02*
D03*
X49354Y81054D02*
D03*
X47214Y73116D02*
D03*
X52748Y67553D02*
D03*
X49354Y67554D02*
D03*
X47214Y59591D02*
D03*
X49354Y54028D02*
D03*
X52748Y54028D02*
D03*
X32666Y70955D02*
D03*
Y57429D02*
D03*
X47214Y88242D02*
D03*
X96840Y79456D02*
D03*
X94700Y88270D02*
D03*
X49354Y79428D02*
D03*
X98537Y79456D02*
D03*
X51051Y79428D02*
D03*
X98537Y65928D02*
D03*
Y52402D02*
D03*
X51051Y65928D02*
D03*
Y52402D02*
D03*
X49354Y52403D02*
D03*
X96840Y65928D02*
D03*
X94700Y61217D02*
D03*
X96840Y52403D02*
D03*
X47214Y74742D02*
D03*
X94700D02*
D03*
X49354Y65928D02*
D03*
X47214Y61217D02*
D03*
X100234Y52402D02*
D03*
Y65928D02*
D03*
X32666Y59055D02*
D03*
X52748Y65928D02*
D03*
X80152Y59055D02*
D03*
Y72580D02*
D03*
X32666D02*
D03*
X52748Y52402D02*
D03*
X51051Y54028D02*
D03*
Y67553D02*
D03*
X98537Y54028D02*
D03*
Y67553D02*
D03*
X51051Y81053D02*
D03*
X98537Y81082D02*
D03*
X32666Y86080D02*
D03*
X80152Y86108D02*
D03*
X100234Y79456D02*
D03*
X52748Y79428D02*
D03*
D54*
X18414Y69840D02*
D03*
X20039D02*
D03*
Y71499D02*
D03*
X18414D02*
D03*
X7102Y68569D02*
D03*
X5477D02*
D03*
Y67002D02*
D03*
X7102D02*
D03*
Y65434D02*
D03*
X5477D02*
D03*
Y63866D02*
D03*
X7102D02*
D03*
Y60731D02*
D03*
X5477D02*
D03*
X7102Y62299D02*
D03*
X5477D02*
D03*
X7102Y59163D02*
D03*
X5477D02*
D03*
X100181Y87876D02*
D03*
Y86264D02*
D03*
Y84651D02*
D03*
X94999Y81304D02*
D03*
X100181Y74348D02*
D03*
Y72736D02*
D03*
Y71123D02*
D03*
Y60823D02*
D03*
Y59210D02*
D03*
X94999Y67776D02*
D03*
X100181Y57598D02*
D03*
X94999Y54250D02*
D03*
X86781Y80491D02*
D03*
Y66963D02*
D03*
Y53438D02*
D03*
X52695Y87848D02*
D03*
Y86236D02*
D03*
Y84623D02*
D03*
X52695Y74348D02*
D03*
Y71123D02*
D03*
Y72736D02*
D03*
X47513Y81276D02*
D03*
X39295Y80463D02*
D03*
X52695Y60823D02*
D03*
Y59210D02*
D03*
Y57598D02*
D03*
X47513Y67776D02*
D03*
X39295Y66963D02*
D03*
X47513Y54250D02*
D03*
X39295Y53438D02*
D03*
X45888Y81276D02*
D03*
X54320Y86236D02*
D03*
Y84623D02*
D03*
Y87848D02*
D03*
X93374Y81304D02*
D03*
X101807Y84651D02*
D03*
Y86264D02*
D03*
Y87876D02*
D03*
X83264Y82761D02*
D03*
X35778Y82733D02*
D03*
X86851Y82495D02*
D03*
X39365Y82467D02*
D03*
X83264Y69233D02*
D03*
X86851Y55442D02*
D03*
X83264Y55707D02*
D03*
X86851Y68967D02*
D03*
X35778Y69233D02*
D03*
X39365Y68967D02*
D03*
X35778Y55707D02*
D03*
X39365Y55442D02*
D03*
X45888Y54250D02*
D03*
X93374Y67776D02*
D03*
Y54250D02*
D03*
X54320Y74348D02*
D03*
Y60823D02*
D03*
X45888Y67776D02*
D03*
X101807Y71123D02*
D03*
Y60823D02*
D03*
Y59210D02*
D03*
Y57598D02*
D03*
X54320Y72736D02*
D03*
X101807Y74348D02*
D03*
Y72736D02*
D03*
X54320Y71123D02*
D03*
Y59210D02*
D03*
Y57598D02*
D03*
X88407Y53438D02*
D03*
Y66963D02*
D03*
X40921D02*
D03*
Y53438D02*
D03*
X40990Y55442D02*
D03*
X37404Y55707D02*
D03*
X40990Y68967D02*
D03*
X37404Y69233D02*
D03*
X88477Y68967D02*
D03*
X84890Y55707D02*
D03*
X88477Y55442D02*
D03*
X84890Y69233D02*
D03*
X40990Y82467D02*
D03*
X88477Y82495D02*
D03*
X37404Y82733D02*
D03*
X84890Y82761D02*
D03*
X88407Y80491D02*
D03*
X40921Y80463D02*
D03*
D61*
X115310Y108618D02*
D03*
X108465D02*
D03*
X115310Y106624D02*
D03*
Y104630D02*
D03*
X108465Y106624D02*
D03*
Y104630D02*
D03*
X113310D02*
D03*
X110465D02*
D03*
X113310Y108618D02*
D03*
X110465D02*
D03*
X113310Y106624D02*
D03*
X110465D02*
D03*
D63*
X21099Y56223D02*
D03*
Y54223D02*
D03*
D75*
X25845Y167058D02*
D03*
X14845D02*
D03*
X86664D02*
D03*
X75664D02*
D03*
X92254D02*
D03*
X103254D02*
D03*
D76*
X17845Y157058D02*
D03*
X95254D02*
D03*
X78664D02*
D03*
D77*
X22845D02*
D03*
X100254D02*
D03*
X83664D02*
D03*
D78*
X108334Y152388D02*
D03*
X104168Y11648D02*
D03*
X81268D02*
D03*
X58367D02*
D03*
X11667Y150888D02*
D03*
X35467Y11648D02*
D03*
D79*
X113465Y85578D02*
D03*
X65979Y85550D02*
D03*
X113465Y72050D02*
D03*
Y58524D02*
D03*
X65979Y72050D02*
D03*
Y58524D02*
D03*
X75060Y81663D02*
D03*
X27574Y81635D02*
D03*
X75060Y68135D02*
D03*
Y54609D02*
D03*
X27574Y68135D02*
D03*
Y54609D02*
D03*
X77600D02*
D03*
Y68135D02*
D03*
X65979Y55984D02*
D03*
Y53444D02*
D03*
Y69510D02*
D03*
Y66970D02*
D03*
X113465Y55984D02*
D03*
Y53444D02*
D03*
Y69510D02*
D03*
Y66970D02*
D03*
X27574Y57149D02*
D03*
X30114Y54609D02*
D03*
X27574Y70675D02*
D03*
X30114Y68135D02*
D03*
X75060Y57149D02*
D03*
Y70675D02*
D03*
X30114Y81635D02*
D03*
X77600Y81663D02*
D03*
X75060Y84203D02*
D03*
X113465Y80498D02*
D03*
Y83038D02*
D03*
X65979Y80470D02*
D03*
Y83010D02*
D03*
X27574Y84175D02*
D03*
D80*
X82502Y98458D02*
D03*
X63743D02*
D03*
X44984D02*
D03*
X26226D02*
D03*
X7467D02*
D03*
X88247Y103279D02*
D03*
X69488D02*
D03*
X31971D02*
D03*
X50730D02*
D03*
X13213D02*
D03*
D81*
X55561Y145608D02*
D03*
X34097D02*
D03*
D82*
X6532Y85783D02*
D03*
Y77133D02*
D03*
D83*
X2352D02*
D03*
Y85783D02*
D03*
D84*
X6381Y13864D02*
D03*
X11581D02*
D03*
X6381Y24364D02*
D03*
X11581Y20864D02*
D03*
X6381Y17364D02*
D03*
Y20864D02*
D03*
X11581Y24364D02*
D03*
Y17364D02*
D03*
D85*
X65979Y88090D02*
D03*
X113465Y88118D02*
D03*
Y74590D02*
D03*
Y61064D02*
D03*
X65979Y74590D02*
D03*
Y61064D02*
D03*
D86*
X109564Y156238D02*
D03*
X111564D02*
D03*
X10437Y147038D02*
D03*
X8437D02*
D03*
D87*
X108334Y147388D02*
D03*
X11667Y155888D02*
D03*
D88*
X76268Y11648D02*
D03*
X99168D02*
D03*
X53367D02*
D03*
X30467D02*
D03*
D89*
X85118Y8418D02*
D03*
Y10418D02*
D03*
X108018D02*
D03*
Y8418D02*
D03*
X62217Y10418D02*
D03*
Y8418D02*
D03*
X39317D02*
D03*
Y10418D02*
D03*
D90*
X30114Y57149D02*
D03*
Y70675D02*
D03*
X77600Y57149D02*
D03*
Y70675D02*
D03*
Y84203D02*
D03*
X30114Y84175D02*
D03*
D91*
X66461Y145608D02*
D03*
X44997D02*
D03*
D92*
X70461Y155008D02*
D03*
X51561D02*
D03*
X48997D02*
D03*
X30097D02*
D03*
D93*
X3500Y166500D02*
D03*
X116500D02*
D03*
X116500Y3500D02*
D03*
X3500D02*
D03*
D94*
X6020Y49482D02*
D03*
X15651Y62814D02*
D03*
X13947D02*
D03*
X12243D02*
D03*
X8831Y48067D02*
D03*
X4394Y49581D02*
D03*
X16713Y49733D02*
D03*
X15291Y47663D02*
D03*
X15265Y45745D02*
D03*
X15291Y49327D02*
D03*
X16661Y47663D02*
D03*
Y45745D02*
D03*
X15725Y44092D02*
D03*
X14434Y44153D02*
D03*
X18666Y67455D02*
D03*
X19920D02*
D03*
X21317Y60881D02*
D03*
X21068Y59192D02*
D03*
X20181Y58305D02*
D03*
X21434Y65448D02*
D03*
X22189Y61781D02*
D03*
X22606Y62987D02*
D03*
X22615Y64241D02*
D03*
X11819Y68938D02*
D03*
X13073D02*
D03*
X20547Y66334D02*
D03*
D95*
X94238Y121646D02*
D03*
Y119646D02*
D03*
X91238Y121646D02*
D03*
Y119646D02*
D03*
X77643Y121646D02*
D03*
Y119646D02*
D03*
X74643Y121646D02*
D03*
Y119646D02*
D03*
X26086Y121646D02*
D03*
Y119646D02*
D03*
X23086Y121646D02*
D03*
Y119646D02*
D03*
D135*
X86714Y84283D02*
D03*
Y70755D02*
D03*
Y57230D02*
D03*
X39228Y84255D02*
D03*
X39228Y57230D02*
D03*
Y70755D02*
D03*
X41128D02*
D03*
X40178Y72755D02*
D03*
Y59230D02*
D03*
X41128Y57230D02*
D03*
X87664Y72755D02*
D03*
X88614Y70755D02*
D03*
X87664Y59230D02*
D03*
X88614Y57230D02*
D03*
X41128Y84255D02*
D03*
X40178Y86255D02*
D03*
X87664Y86283D02*
D03*
X88614Y84283D02*
D03*
D136*
X82066Y81298D02*
D03*
Y67770D02*
D03*
Y54244D02*
D03*
X34580Y81270D02*
D03*
X34580Y67770D02*
D03*
Y54244D02*
D03*
X80066Y53294D02*
D03*
Y55194D02*
D03*
Y68720D02*
D03*
Y66820D02*
D03*
X32580Y68720D02*
D03*
Y66820D02*
D03*
Y53294D02*
D03*
Y55194D02*
D03*
X32580Y80320D02*
D03*
Y82220D02*
D03*
X80066Y80348D02*
D03*
Y82248D02*
D03*
D137*
X83109Y84338D02*
D03*
X35623Y84310D02*
D03*
X83109Y57284D02*
D03*
Y70810D02*
D03*
X35623Y57284D02*
D03*
Y70810D02*
D03*
X36576Y72791D02*
D03*
X37528Y70810D02*
D03*
X36576Y59266D02*
D03*
X37528Y57284D02*
D03*
X84062Y72791D02*
D03*
X85014Y70810D02*
D03*
X84062Y59266D02*
D03*
X85014Y57284D02*
D03*
Y84338D02*
D03*
X84062Y86319D02*
D03*
X37528Y84310D02*
D03*
X36576Y86291D02*
D03*
D138*
X77888Y23343D02*
D03*
X76618D02*
D03*
X75348D02*
D03*
X100505Y23344D02*
D03*
X99235D02*
D03*
X97965D02*
D03*
X24458Y140086D02*
D03*
X25728D02*
D03*
X26998D02*
D03*
X108212Y133358D02*
D03*
X106942D02*
D03*
X105672D02*
D03*
X104402D02*
D03*
X74078Y23343D02*
D03*
X96695Y23344D02*
D03*
X26998Y131571D02*
D03*
X25728D02*
D03*
X24458D02*
D03*
X23188D02*
D03*
Y140086D02*
D03*
X4707Y133077D02*
D03*
X3437D02*
D03*
X2167D02*
D03*
X5977D02*
D03*
X76827Y131571D02*
D03*
X75557D02*
D03*
X74287D02*
D03*
X73017D02*
D03*
X89613D02*
D03*
X90883D02*
D03*
X92153D02*
D03*
X93423D02*
D03*
X74287Y140086D02*
D03*
X75557D02*
D03*
X76827D02*
D03*
X73017D02*
D03*
X89613D02*
D03*
X90883D02*
D03*
X92153D02*
D03*
X93423D02*
D03*
X55272Y23343D02*
D03*
X54002D02*
D03*
X52732D02*
D03*
X51462D02*
D03*
X30116D02*
D03*
X31386D02*
D03*
X32656D02*
D03*
X28846D02*
D03*
D141*
X25143Y143568D02*
D03*
X74972D02*
D03*
X91568D02*
D03*
X25143Y135054D02*
D03*
X106258Y129876D02*
D03*
X76033Y26826D02*
D03*
X98650Y26827D02*
D03*
X4023Y129594D02*
D03*
X74972Y135054D02*
D03*
X91568D02*
D03*
X53417Y26826D02*
D03*
X30801D02*
D03*
D146*
X20331Y73516D02*
D03*
X18131D02*
D03*
Y75216D02*
D03*
X20331D02*
D03*
D147*
X17696Y67058D02*
D03*
X10196D02*
D03*
Y58188D02*
D03*
X17696D02*
D03*
D148*
X17196Y67058D02*
D03*
X16696D02*
D03*
X16196D02*
D03*
X15696D02*
D03*
X15196D02*
D03*
X14696D02*
D03*
X14196D02*
D03*
X13696D02*
D03*
X13196D02*
D03*
X12696D02*
D03*
X12196D02*
D03*
X11696D02*
D03*
X11196D02*
D03*
X10696D02*
D03*
Y58188D02*
D03*
X11196D02*
D03*
X11696D02*
D03*
X12196D02*
D03*
X12696D02*
D03*
X13196D02*
D03*
X13696D02*
D03*
X14196D02*
D03*
X14696D02*
D03*
X15196D02*
D03*
X15696D02*
D03*
X16196D02*
D03*
X17196D02*
D03*
X16696D02*
D03*
D149*
X9511Y66373D02*
D03*
Y58873D02*
D03*
X18381D02*
D03*
Y66373D02*
D03*
D150*
X9511Y65873D02*
D03*
Y65373D02*
D03*
Y64873D02*
D03*
Y64373D02*
D03*
Y63873D02*
D03*
Y63373D02*
D03*
Y62873D02*
D03*
Y62373D02*
D03*
Y61873D02*
D03*
Y61373D02*
D03*
Y60873D02*
D03*
Y60373D02*
D03*
Y59873D02*
D03*
Y59373D02*
D03*
X18381D02*
D03*
Y59873D02*
D03*
Y60373D02*
D03*
Y60873D02*
D03*
Y61373D02*
D03*
Y61873D02*
D03*
Y62373D02*
D03*
Y62873D02*
D03*
Y63373D02*
D03*
Y63873D02*
D03*
Y64373D02*
D03*
Y64873D02*
D03*
Y65373D02*
D03*
Y65873D02*
D03*
D151*
X13946Y62623D02*
D03*
D152*
X97171Y136798D02*
D03*
X80575D02*
D03*
X30746D02*
D03*
Y131210D02*
D03*
X80575D02*
D03*
X97171D02*
D03*
D153*
X11511Y123426D02*
D03*
X45928Y32994D02*
D03*
X68544D02*
D03*
X91161Y32995D02*
D03*
X23312Y32994D02*
D03*
X113746Y123708D02*
D03*
X106126D02*
D03*
X3891Y123426D02*
D03*
X53548Y32994D02*
D03*
X76164D02*
D03*
X98781Y32995D02*
D03*
X30932Y32994D02*
D03*
D154*
X42248Y115222D02*
D03*
X59139D02*
D03*
X42984Y123096D02*
D03*
X59875D02*
D03*
X41741Y128462D02*
D03*
X42477Y136336D02*
D03*
X58632Y128414D02*
D03*
X59368Y136288D02*
D03*
D155*
X38184Y123096D02*
D03*
X55075D02*
D03*
X46541Y128462D02*
D03*
X63432Y128414D02*
D03*
M02*
