G04*
G04 #@! TF.GenerationSoftware,Altium Limited,Altium Designer,25.8.1 (18)*
G04*
G04 Layer_Color=12632256*
%FSLAX43Y43*%
%MOMM*%
G71*
G04*
G04 #@! TF.SameCoordinates,4C837565-1E1F-4476-BEE8-5968ED86CB82*
G04*
G04*
G04 #@! TF.FilePolarity,Positive*
G04*
G01*
G75*
%ADD106C,1.508*%
%ADD107R,2.550X2.550*%
%ADD108C,2.550*%
%ADD109C,2.850*%
%ADD110C,2.000*%
%ADD111C,3.000*%
%ADD112C,5.000*%
%ADD113O,2.000X1.200*%
%ADD114O,1.800X1.300*%
%ADD115C,1.800*%
%ADD116R,2.000X2.000*%
%ADD117R,1.208X1.208*%
%ADD118R,2.850X2.850*%
%ADD119R,2.850X2.850*%
%ADD120R,1.208X1.208*%
%ADD121R,2.000X2.000*%
%ADD122R,5.000X5.000*%
%ADD123O,1.300X3.000*%
%ADD124C,6.000*%
D106*
X25845Y167058D02*
D03*
X14845D02*
D03*
X86664D02*
D03*
X75664D02*
D03*
X92254D02*
D03*
X103254D02*
D03*
D107*
X17845Y157058D02*
D03*
X95254D02*
D03*
X78664D02*
D03*
D108*
X22845D02*
D03*
X100254D02*
D03*
X83664D02*
D03*
D109*
X108334Y152388D02*
D03*
X104168Y11648D02*
D03*
X81268D02*
D03*
X58367D02*
D03*
X11667Y150888D02*
D03*
X35467Y11648D02*
D03*
D110*
X113465Y85578D02*
D03*
X65979Y85550D02*
D03*
X113465Y72050D02*
D03*
Y58524D02*
D03*
X65979Y72050D02*
D03*
Y58524D02*
D03*
X75060Y81663D02*
D03*
X27574Y81635D02*
D03*
X75060Y68135D02*
D03*
Y54609D02*
D03*
X27574Y68135D02*
D03*
Y54609D02*
D03*
X77600D02*
D03*
Y68135D02*
D03*
X65979Y55984D02*
D03*
Y53444D02*
D03*
Y69510D02*
D03*
Y66970D02*
D03*
X113465Y55984D02*
D03*
Y53444D02*
D03*
Y69510D02*
D03*
Y66970D02*
D03*
X27574Y57149D02*
D03*
X30114Y54609D02*
D03*
X27574Y70675D02*
D03*
X30114Y68135D02*
D03*
X75060Y57149D02*
D03*
Y70675D02*
D03*
X30114Y81635D02*
D03*
X77600Y81663D02*
D03*
X75060Y84203D02*
D03*
X113465Y80498D02*
D03*
Y83038D02*
D03*
X65979Y80470D02*
D03*
Y83010D02*
D03*
X27574Y84175D02*
D03*
D111*
X82502Y98458D02*
D03*
X63743D02*
D03*
X44984D02*
D03*
X26226D02*
D03*
X7467D02*
D03*
X88247Y103279D02*
D03*
X69488D02*
D03*
X31971D02*
D03*
X50730D02*
D03*
X13213D02*
D03*
D112*
X55561Y145608D02*
D03*
X34097D02*
D03*
D113*
X6532Y85783D02*
D03*
Y77133D02*
D03*
D114*
X2352D02*
D03*
Y85783D02*
D03*
D115*
X6381Y13864D02*
D03*
X11581D02*
D03*
X6381Y24364D02*
D03*
X11581Y20864D02*
D03*
X6381Y17364D02*
D03*
Y20864D02*
D03*
X11581Y24364D02*
D03*
Y17364D02*
D03*
D116*
X65979Y88090D02*
D03*
X113465Y88118D02*
D03*
Y74590D02*
D03*
Y61064D02*
D03*
X65979Y74590D02*
D03*
Y61064D02*
D03*
D117*
X109564Y156238D02*
D03*
X111564D02*
D03*
X10437Y147038D02*
D03*
X8437D02*
D03*
D118*
X108334Y147388D02*
D03*
X11667Y155888D02*
D03*
D119*
X76268Y11648D02*
D03*
X99168D02*
D03*
X53367D02*
D03*
X30467D02*
D03*
D120*
X85118Y8418D02*
D03*
Y10418D02*
D03*
X108018D02*
D03*
Y8418D02*
D03*
X62217Y10418D02*
D03*
Y8418D02*
D03*
X39317D02*
D03*
Y10418D02*
D03*
D121*
X30114Y57149D02*
D03*
Y70675D02*
D03*
X77600Y57149D02*
D03*
Y70675D02*
D03*
Y84203D02*
D03*
X30114Y84175D02*
D03*
D122*
X66461Y145608D02*
D03*
X44997D02*
D03*
D123*
X70461Y155008D02*
D03*
X51561D02*
D03*
X48997D02*
D03*
X30097D02*
D03*
D124*
X3500Y166500D02*
D03*
X116500D02*
D03*
X116500Y3500D02*
D03*
X3500D02*
D03*
M02*
