G04*
G04 #@! TF.GenerationSoftware,Altium Limited,Altium Designer,25.8.1 (18)*
G04*
G04 Layer_Color=16711935*
%FSLAX43Y43*%
%MOMM*%
G71*
G04*
G04 #@! TF.SameCoordinates,4C837565-1E1F-4476-BEE8-5968ED86CB82*
G04*
G04*
G04 #@! TF.FilePolarity,Positive*
G04*
G01*
G75*
%ADD12C,0.200*%
D12*
X103432Y127263D02*
Y133958D01*
X109182D01*
Y127263D02*
Y133958D01*
X103432Y127263D02*
X109182D01*
X34956Y70341D02*
X38196D01*
X34956D02*
Y73259D01*
X38196D01*
Y70341D02*
Y73259D01*
X38558Y70205D02*
X41798D01*
X38558D02*
Y73305D01*
X41798D01*
Y70205D02*
Y73305D01*
X34956Y56816D02*
X38196D01*
X34956D02*
Y59734D01*
X38196D01*
Y56816D02*
Y59734D01*
X41798Y56680D02*
Y59780D01*
X38558D02*
X41798D01*
X38558Y56680D02*
Y59780D01*
Y56680D02*
X41798D01*
X82442Y70341D02*
X85682D01*
X82442D02*
Y73259D01*
X85682D01*
Y70341D02*
Y73259D01*
X89284Y70205D02*
Y73305D01*
X86044D02*
X89284D01*
X86044Y70205D02*
Y73305D01*
Y70205D02*
X89284D01*
X82442Y56816D02*
X85682D01*
X82442D02*
Y59734D01*
X85682D01*
Y56816D02*
Y59734D01*
X89284Y56680D02*
Y59780D01*
X86044D02*
X89284D01*
X86044Y56680D02*
Y59780D01*
Y56680D02*
X89284D01*
X32030Y66150D02*
X35130D01*
Y69390D01*
X32030D02*
X35130D01*
X32030Y66150D02*
Y69390D01*
X79516Y52624D02*
X82616D01*
Y55864D01*
X79516D02*
X82616D01*
X79516Y52624D02*
Y55864D01*
Y66150D02*
X82616D01*
Y69390D01*
X79516D02*
X82616D01*
X79516Y66150D02*
Y69390D01*
X32030Y52624D02*
X35130D01*
Y55864D01*
X32030D02*
X35130D01*
X32030Y52624D02*
Y55864D01*
X78858Y22743D02*
Y29438D01*
X73108Y22743D02*
X78858D01*
X73108D02*
Y29438D01*
X78858D01*
X101475Y22744D02*
Y29439D01*
X95725Y22744D02*
X101475D01*
X95725D02*
Y29439D01*
X101475D01*
X22218Y137666D02*
X27968D01*
X22218Y130971D02*
Y137666D01*
Y130971D02*
X27968D01*
Y137666D01*
X22218Y146181D02*
X27968D01*
X22218Y139486D02*
Y146181D01*
Y139486D02*
X27968D01*
Y146181D01*
X1197Y126982D02*
X6947D01*
Y133677D01*
X1197D02*
X6947D01*
X1197Y126982D02*
Y133677D01*
X72047Y137666D02*
X77797D01*
X72047Y130971D02*
Y137666D01*
Y130971D02*
X77797D01*
Y137666D01*
X94393Y130971D02*
Y137666D01*
X88643Y130971D02*
X94393D01*
X88643D02*
Y137666D01*
X94393D01*
X72047Y146181D02*
X77797D01*
X72047Y139486D02*
Y146181D01*
Y139486D02*
X77797D01*
Y146181D01*
X94393Y139486D02*
Y146181D01*
X88643Y139486D02*
X94393D01*
X88643D02*
Y146181D01*
X94393D01*
X50492Y29438D02*
X56242D01*
X50492Y22743D02*
Y29438D01*
Y22743D02*
X56242D01*
Y29438D01*
X33626Y22743D02*
Y29438D01*
X27876Y22743D02*
X33626D01*
X27876D02*
Y29438D01*
X33626D01*
X38558Y83705D02*
X41798D01*
X38558D02*
Y86805D01*
X41798D01*
Y83705D02*
Y86805D01*
X89284Y83733D02*
Y86833D01*
X86044D02*
X89284D01*
X86044Y83733D02*
Y86833D01*
Y83733D02*
X89284D01*
X79516Y79678D02*
Y82918D01*
X82616D01*
Y79678D02*
Y82918D01*
X79516Y79678D02*
X82616D01*
X32030Y79650D02*
Y82890D01*
X35130D01*
Y79650D02*
Y82890D01*
X32030Y79650D02*
X35130D01*
X85682Y83870D02*
Y86787D01*
X82442D02*
X85682D01*
X82442Y83870D02*
Y86787D01*
Y83870D02*
X85682D01*
X38196Y83841D02*
Y86759D01*
X34956D02*
X38196D01*
X34956Y83841D02*
Y86759D01*
Y83841D02*
X38196D01*
M02*
