G04*
G04 #@! TF.GenerationSoftware,Altium Limited,Altium Designer,25.8.1 (18)*
G04*
G04 Layer_Color=16711935*
%FSLAX43Y43*%
%MOMM*%
G71*
G04*
G04 #@! TF.SameCoordinates,4C837565-1E1F-4476-BEE8-5968ED86CB82*
G04*
G04*
G04 #@! TF.FilePolarity,Positive*
G04*
G01*
G75*
%ADD156C,0.025*%
%ADD157C,0.178*%
%ADD158C,0.050*%
%ADD159C,0.100*%
D156*
X6407Y84358D02*
G03*
X6407Y84358I-375J0D01*
G01*
Y78558D02*
G03*
X6407Y78558I-375J0D01*
G01*
D157*
X24079Y119122D02*
X24925D01*
X25094Y119292D01*
Y119630D01*
X24925Y119799D01*
X24079D01*
Y120815D02*
Y120138D01*
X24587D01*
X24417Y120477D01*
Y120646D01*
X24587Y120815D01*
X24925D01*
X25094Y120646D01*
Y120307D01*
X24925Y120138D01*
X75635Y119122D02*
X76481D01*
X76651Y119292D01*
Y119630D01*
X76481Y119799D01*
X75635D01*
Y120815D02*
X75804Y120477D01*
X76143Y120138D01*
X76481D01*
X76651Y120307D01*
Y120646D01*
X76481Y120815D01*
X76312D01*
X76143Y120646D01*
Y120138D01*
X92230Y119122D02*
X93077D01*
X93246Y119292D01*
Y119630D01*
X93077Y119799D01*
X92230D01*
Y120138D02*
Y120815D01*
X92400D01*
X93077Y120138D01*
X93246D01*
D158*
X40405Y117671D02*
Y118004D01*
X40338Y118071D01*
X40205D01*
X40138Y118004D01*
Y117671D01*
X40005Y118071D02*
X39872D01*
X39938D01*
Y117671D01*
X40005Y117738D01*
X57296Y117671D02*
Y118004D01*
X57229Y118071D01*
X57096D01*
X57029Y118004D01*
Y117671D01*
X56896Y117738D02*
X56829Y117671D01*
X56696D01*
X56629Y117738D01*
Y117804D01*
X56696Y117871D01*
X56763D01*
X56696D01*
X56629Y117938D01*
Y118004D01*
X56696Y118071D01*
X56829D01*
X56896Y118004D01*
D159*
X44044Y128532D02*
X43461D01*
X43344Y128415D01*
Y128182D01*
X43461Y128066D01*
X44044D01*
X43344Y127366D02*
Y127832D01*
X43811Y127366D01*
X43927D01*
X44044Y127482D01*
Y127716D01*
X43927Y127832D01*
X60935Y128532D02*
X60352D01*
X60235Y128415D01*
Y128182D01*
X60352Y128066D01*
X60935D01*
X60235Y127482D02*
X60935D01*
X60585Y127832D01*
Y127366D01*
M02*
