G04*
G04 #@! TF.GenerationSoftware,Altium Limited,Altium Designer,25.8.1 (18)*
G04*
G04 Layer_Color=32896*
%FSLAX43Y43*%
%MOMM*%
G71*
G04*
G04 #@! TF.SameCoordinates,4C837565-1E1F-4476-BEE8-5968ED86CB82*
G04*
G04*
G04 #@! TF.FilePolarity,Positive*
G04*
G01*
G75*
%ADD159C,0.100*%
D159*
X106307Y130110D02*
Y131110D01*
X105807Y130610D02*
X106807D01*
X36076Y71800D02*
X37076D01*
X36576Y71300D02*
Y72300D01*
X39678Y71755D02*
X40678D01*
X40178Y71255D02*
Y72255D01*
X36076Y58275D02*
X37076D01*
X36576Y57775D02*
Y58775D01*
X40178Y57730D02*
Y58730D01*
X39678Y58230D02*
X40678D01*
X83562Y71800D02*
X84562D01*
X84062Y71300D02*
Y72300D01*
X87664Y71255D02*
Y72255D01*
X87164Y71755D02*
X88164D01*
X83562Y58275D02*
X84562D01*
X84062Y57775D02*
Y58775D01*
X87664Y57730D02*
Y58730D01*
X87164Y58230D02*
X88164D01*
X33080Y67770D02*
X34080D01*
X33580Y67270D02*
Y68270D01*
X80566Y54244D02*
X81566D01*
X81066Y53744D02*
Y54744D01*
X80566Y67770D02*
X81566D01*
X81066Y67270D02*
Y68270D01*
X33080Y54244D02*
X34080D01*
X33580Y53744D02*
Y54744D01*
X75983Y25591D02*
Y26591D01*
X75483Y26091D02*
X76483D01*
X98600Y25592D02*
Y26592D01*
X98100Y26092D02*
X99100D01*
X24593Y134319D02*
X25593D01*
X25093Y133819D02*
Y134819D01*
X24593Y142833D02*
X25593D01*
X25093Y142333D02*
Y143333D01*
X3572Y130329D02*
X4572D01*
X4072Y129829D02*
Y130829D01*
X74422Y134319D02*
X75422D01*
X74922Y133819D02*
Y134819D01*
X91518Y133819D02*
Y134819D01*
X91018Y134319D02*
X92018D01*
X74422Y142833D02*
X75422D01*
X74922Y142333D02*
Y143333D01*
X91518Y142333D02*
Y143333D01*
X91018Y142833D02*
X92018D01*
X52867Y26091D02*
X53867D01*
X53367Y25591D02*
Y26591D01*
X30751Y25591D02*
Y26591D01*
X30251Y26091D02*
X31251D01*
X39678Y85255D02*
X40678D01*
X40178Y84755D02*
Y85755D01*
X87664Y84783D02*
Y85783D01*
X87164Y85283D02*
X88164D01*
X81066Y80798D02*
Y81798D01*
X80566Y81298D02*
X81566D01*
X33580Y80770D02*
Y81770D01*
X33080Y81270D02*
X34080D01*
X84062Y84829D02*
Y85828D01*
X83562Y85329D02*
X84562D01*
X36576Y84800D02*
Y85800D01*
X36076Y85300D02*
X37076D01*
M02*
