G04*
G04 #@! TF.GenerationSoftware,Altium Limited,Altium Designer,25.8.1 (18)*
G04*
G04 Layer_Color=128*
%FSLAX43Y43*%
%MOMM*%
G71*
G04*
G04 #@! TF.SameCoordinates,4C837565-1E1F-4476-BEE8-5968ED86CB82*
G04*
G04*
G04 #@! TF.FilePolarity,Positive*
G04*
G01*
G75*
G04:AMPARAMS|DCode=22|XSize=1.016mm|YSize=0.889mm|CornerRadius=0.222mm|HoleSize=0mm|Usage=FLASHONLY|Rotation=90.000|XOffset=0mm|YOffset=0mm|HoleType=Round|Shape=RoundedRectangle|*
%AMROUNDEDRECTD22*
21,1,1.016,0.445,0,0,90.0*
21,1,0.572,0.889,0,0,90.0*
1,1,0.445,0.222,0.286*
1,1,0.445,0.222,-0.286*
1,1,0.445,-0.222,-0.286*
1,1,0.445,-0.222,0.286*
%
%ADD22ROUNDEDRECTD22*%
G04:AMPARAMS|DCode=23|XSize=1.016mm|YSize=0.889mm|CornerRadius=0.222mm|HoleSize=0mm|Usage=FLASHONLY|Rotation=180.000|XOffset=0mm|YOffset=0mm|HoleType=Round|Shape=RoundedRectangle|*
%AMROUNDEDRECTD23*
21,1,1.016,0.445,0,0,180.0*
21,1,0.572,0.889,0,0,180.0*
1,1,0.445,-0.286,0.222*
1,1,0.445,0.286,0.222*
1,1,0.445,0.286,-0.222*
1,1,0.445,-0.286,-0.222*
%
%ADD23ROUNDEDRECTD23*%
G04:AMPARAMS|DCode=34|XSize=1mm|YSize=1.2mm|CornerRadius=0.25mm|HoleSize=0mm|Usage=FLASHONLY|Rotation=0.000|XOffset=0mm|YOffset=0mm|HoleType=Round|Shape=RoundedRectangle|*
%AMROUNDEDRECTD34*
21,1,1.000,0.700,0,0,0.0*
21,1,0.500,1.200,0,0,0.0*
1,1,0.500,0.250,-0.350*
1,1,0.500,-0.250,-0.350*
1,1,0.500,-0.250,0.350*
1,1,0.500,0.250,0.350*
%
%ADD34ROUNDEDRECTD34*%
G04:AMPARAMS|DCode=37|XSize=1mm|YSize=1.2mm|CornerRadius=0.25mm|HoleSize=0mm|Usage=FLASHONLY|Rotation=90.000|XOffset=0mm|YOffset=0mm|HoleType=Round|Shape=RoundedRectangle|*
%AMROUNDEDRECTD37*
21,1,1.000,0.700,0,0,90.0*
21,1,0.500,1.200,0,0,90.0*
1,1,0.500,0.350,0.250*
1,1,0.500,0.350,-0.250*
1,1,0.500,-0.350,-0.250*
1,1,0.500,-0.350,0.250*
%
%ADD37ROUNDEDRECTD37*%
%ADD128R,1.400X1.200*%
G04:AMPARAMS|DCode=129|XSize=0.8mm|YSize=0.26mm|CornerRadius=0.033mm|HoleSize=0mm|Usage=FLASHONLY|Rotation=270.000|XOffset=0mm|YOffset=0mm|HoleType=Round|Shape=RoundedRectangle|*
%AMROUNDEDRECTD129*
21,1,0.800,0.195,0,0,270.0*
21,1,0.735,0.260,0,0,270.0*
1,1,0.065,-0.098,-0.368*
1,1,0.065,-0.098,0.368*
1,1,0.065,0.098,0.368*
1,1,0.065,0.098,-0.368*
%
%ADD129ROUNDEDRECTD129*%
G04:AMPARAMS|DCode=130|XSize=0.86mm|YSize=0.26mm|CornerRadius=0.033mm|HoleSize=0mm|Usage=FLASHONLY|Rotation=270.000|XOffset=0mm|YOffset=0mm|HoleType=Round|Shape=RoundedRectangle|*
%AMROUNDEDRECTD130*
21,1,0.860,0.195,0,0,270.0*
21,1,0.795,0.260,0,0,270.0*
1,1,0.065,-0.098,-0.398*
1,1,0.065,-0.098,0.398*
1,1,0.065,0.098,0.398*
1,1,0.065,0.098,-0.398*
%
%ADD130ROUNDEDRECTD130*%
G04:AMPARAMS|DCode=131|XSize=0.8mm|YSize=0.26mm|CornerRadius=0.033mm|HoleSize=0mm|Usage=FLASHONLY|Rotation=0.000|XOffset=0mm|YOffset=0mm|HoleType=Round|Shape=RoundedRectangle|*
%AMROUNDEDRECTD131*
21,1,0.800,0.195,0,0,0.0*
21,1,0.735,0.260,0,0,0.0*
1,1,0.065,0.368,-0.098*
1,1,0.065,-0.368,-0.098*
1,1,0.065,-0.368,0.098*
1,1,0.065,0.368,0.098*
%
%ADD131ROUNDEDRECTD131*%
G04:AMPARAMS|DCode=132|XSize=0.86mm|YSize=0.26mm|CornerRadius=0.033mm|HoleSize=0mm|Usage=FLASHONLY|Rotation=0.000|XOffset=0mm|YOffset=0mm|HoleType=Round|Shape=RoundedRectangle|*
%AMROUNDEDRECTD132*
21,1,0.860,0.195,0,0,0.0*
21,1,0.795,0.260,0,0,0.0*
1,1,0.065,0.398,-0.098*
1,1,0.065,-0.398,-0.098*
1,1,0.065,-0.398,0.098*
1,1,0.065,0.398,0.098*
%
%ADD132ROUNDEDRECTD132*%
G04:AMPARAMS|DCode=134|XSize=3.2mm|YSize=1.35mm|CornerRadius=0.338mm|HoleSize=0mm|Usage=FLASHONLY|Rotation=0.000|XOffset=0mm|YOffset=0mm|HoleType=Round|Shape=RoundedRectangle|*
%AMROUNDEDRECTD134*
21,1,3.200,0.675,0,0,0.0*
21,1,2.525,1.350,0,0,0.0*
1,1,0.675,1.263,-0.338*
1,1,0.675,-1.263,-0.338*
1,1,0.675,-1.263,0.338*
1,1,0.675,1.263,0.338*
%
%ADD134ROUNDEDRECTD134*%
%ADD135R,0.800X0.900*%
%ADD136R,0.900X0.800*%
%ADD137R,0.559X0.737*%
%ADD138R,0.750X1.000*%
%ADD139R,3.500X5.200*%
%ADD140C,0.440*%
%ADD141C,3.631*%
%ADD142R,0.800X2.800*%
G36*
X93798Y142881D02*
X94293D01*
Y141976D01*
X93798D01*
Y141551D01*
X89238D01*
Y141976D01*
X88743D01*
Y142881D01*
X89238D01*
Y146081D01*
X89988D01*
Y145606D01*
X93048D01*
Y146081D01*
X93798D01*
Y142881D01*
D02*
G37*
G36*
X77202D02*
X77697D01*
Y141976D01*
X77202D01*
Y141551D01*
X72642D01*
Y141976D01*
X72147D01*
Y142881D01*
X72642D01*
Y146081D01*
X73392D01*
Y145606D01*
X76452D01*
Y146081D01*
X77202D01*
Y142881D01*
D02*
G37*
G36*
X27373D02*
X27868D01*
Y141976D01*
X27373D01*
Y141551D01*
X22813D01*
Y141976D01*
X22318D01*
Y142881D01*
X22813D01*
Y146081D01*
X23563D01*
Y145606D01*
X26623D01*
Y146081D01*
X27373D01*
Y142881D01*
D02*
G37*
G36*
X93798Y134366D02*
X94293D01*
Y133461D01*
X93798D01*
Y133036D01*
X89238D01*
Y133461D01*
X88743D01*
Y134366D01*
X89238D01*
Y137566D01*
X89988D01*
Y137091D01*
X93048D01*
Y137566D01*
X93798D01*
Y134366D01*
D02*
G37*
G36*
X77202D02*
X77697D01*
Y133461D01*
X77202D01*
Y133036D01*
X72642D01*
Y133461D01*
X72147D01*
Y134366D01*
X72642D01*
Y137566D01*
X73392D01*
Y137091D01*
X76452D01*
Y137566D01*
X77202D01*
Y134366D01*
D02*
G37*
G36*
X27373D02*
X27868D01*
Y133461D01*
X27373D01*
Y133036D01*
X22813D01*
Y133461D01*
X22318D01*
Y134366D01*
X22813D01*
Y137566D01*
X23563D01*
Y137091D01*
X26623D01*
Y137566D01*
X27373D01*
Y134366D01*
D02*
G37*
G36*
X47382Y138946D02*
Y138916D01*
X46482D01*
Y136016D01*
X47182D01*
Y132316D01*
X37482D01*
Y136016D01*
X38182D01*
Y138916D01*
X37282D01*
Y140316D01*
X47382D01*
Y138946D01*
D02*
G37*
G36*
X64273Y138899D02*
Y138869D01*
X63373D01*
Y135969D01*
X64073D01*
Y132269D01*
X54373D01*
Y135969D01*
X55073D01*
Y138869D01*
X54173D01*
Y140269D01*
X64273D01*
Y138899D01*
D02*
G37*
G36*
X108587Y131468D02*
X109082D01*
Y130563D01*
X108587D01*
Y127363D01*
X107837D01*
Y127838D01*
X104777D01*
Y127363D01*
X104027D01*
Y130563D01*
X103532D01*
Y131468D01*
X104027D01*
Y131893D01*
X108587D01*
Y131468D01*
D02*
G37*
G36*
X6352Y131187D02*
X6847D01*
Y130282D01*
X6352D01*
Y127082D01*
X5602D01*
Y127557D01*
X2542D01*
Y127082D01*
X1792D01*
Y130282D01*
X1297D01*
Y131187D01*
X1792D01*
Y131612D01*
X6352D01*
Y131187D01*
D02*
G37*
G36*
X45751Y127047D02*
X44941Y127057D01*
Y129057D01*
X44541D01*
Y127057D01*
X43741D01*
Y129057D01*
X43341D01*
Y127057D01*
X42541D01*
Y129057D01*
X42141D01*
Y127057D01*
X41341D01*
Y129057D01*
X40941D01*
Y127057D01*
X40141D01*
Y129057D01*
X39741D01*
Y127057D01*
X38941D01*
Y129057D01*
X38541D01*
Y127057D01*
X37741D01*
Y129867D01*
X45751D01*
Y127047D01*
D02*
G37*
G36*
X62642Y126999D02*
X61832Y127009D01*
Y129009D01*
X61432D01*
Y127009D01*
X60632D01*
Y129009D01*
X60232D01*
Y127009D01*
X59432D01*
Y129009D01*
X59032D01*
Y127009D01*
X58232D01*
Y129009D01*
X57832D01*
Y127009D01*
X57032D01*
Y129009D01*
X56632D01*
Y127009D01*
X55832D01*
Y129009D01*
X55432D01*
Y127009D01*
X54632D01*
Y129819D01*
X62642D01*
Y126999D01*
D02*
G37*
G36*
X56675Y124502D02*
Y122502D01*
X57075D01*
Y124502D01*
X57875D01*
Y122502D01*
X58275D01*
Y124502D01*
X59075D01*
Y122502D01*
X59475D01*
Y124502D01*
X60275D01*
Y122502D01*
X60675D01*
Y124502D01*
X61475D01*
Y122502D01*
X61875D01*
Y124502D01*
X62675D01*
Y122502D01*
X63075D01*
Y124502D01*
X63875D01*
Y121692D01*
X55865D01*
Y124512D01*
X56675Y124502D01*
D02*
G37*
G36*
X39784D02*
Y122502D01*
X40184D01*
Y124502D01*
X40984D01*
Y122502D01*
X41384D01*
Y124502D01*
X42184D01*
Y122502D01*
X42584D01*
Y124502D01*
X43384D01*
Y122502D01*
X43784D01*
Y124502D01*
X44584D01*
Y122502D01*
X44984D01*
Y124502D01*
X45784D01*
Y122502D01*
X46184D01*
Y124502D01*
X46984D01*
Y121692D01*
X38974D01*
Y124512D01*
X39784Y124502D01*
D02*
G37*
G36*
X64134Y115542D02*
X63434D01*
Y112642D01*
X64334D01*
Y111242D01*
X54234D01*
Y112612D01*
Y112642D01*
X55134D01*
Y115542D01*
X54434D01*
Y119242D01*
X64134D01*
Y115542D01*
D02*
G37*
G36*
X47243D02*
X46543D01*
Y112642D01*
X47443D01*
Y111242D01*
X37343D01*
Y112612D01*
Y112642D01*
X38243D01*
Y115542D01*
X37543D01*
Y119242D01*
X47243D01*
Y115542D01*
D02*
G37*
G36*
X15951Y62968D02*
X14291D01*
Y64628D01*
X15951D01*
Y62968D01*
D02*
G37*
G36*
X13601D02*
X11941D01*
Y64628D01*
X13601D01*
Y62968D01*
D02*
G37*
G36*
X15951Y60618D02*
X14291D01*
Y62278D01*
X15951D01*
Y60618D01*
D02*
G37*
G36*
X13601D02*
X11941D01*
Y62278D01*
X13601D01*
Y60618D01*
D02*
G37*
G36*
X100880Y26139D02*
X101375D01*
Y25234D01*
X100880D01*
Y24809D01*
X96320D01*
Y25234D01*
X95825D01*
Y26139D01*
X96320D01*
Y29339D01*
X97070D01*
Y28864D01*
X100130D01*
Y29339D01*
X100880D01*
Y26139D01*
D02*
G37*
G36*
X78263Y26138D02*
X78758D01*
Y25233D01*
X78263D01*
Y24808D01*
X73703D01*
Y25233D01*
X73208D01*
Y26138D01*
X73703D01*
Y29338D01*
X74453D01*
Y28863D01*
X77513D01*
Y29338D01*
X78263D01*
Y26138D01*
D02*
G37*
G36*
X55647D02*
X56142D01*
Y25233D01*
X55647D01*
Y24808D01*
X51087D01*
Y25233D01*
X50592D01*
Y26138D01*
X51087D01*
Y29338D01*
X51837D01*
Y28863D01*
X54897D01*
Y29338D01*
X55647D01*
Y26138D01*
D02*
G37*
G36*
X33031D02*
X33526D01*
Y25233D01*
X33031D01*
Y24808D01*
X28471D01*
Y25233D01*
X27976D01*
Y26138D01*
X28471D01*
Y29338D01*
X29221D01*
Y28863D01*
X32281D01*
Y29338D01*
X33031D01*
Y26138D01*
D02*
G37*
D22*
X9511Y70754D02*
D03*
Y69128D02*
D03*
X19155Y56210D02*
D03*
Y54584D02*
D03*
X11623D02*
D03*
Y56210D02*
D03*
X13191Y54584D02*
D03*
Y56210D02*
D03*
X14843Y54584D02*
D03*
Y56210D02*
D03*
X16473Y54584D02*
D03*
Y56210D02*
D03*
X17904Y77215D02*
D03*
Y78841D02*
D03*
X20495Y77240D02*
D03*
Y78866D02*
D03*
X100234Y81082D02*
D03*
X96840Y81082D02*
D03*
X94700Y86645D02*
D03*
X80152Y84483D02*
D03*
X100234Y67553D02*
D03*
X94700Y73116D02*
D03*
X96840Y67554D02*
D03*
X94700Y59591D02*
D03*
X100234Y54028D02*
D03*
X96840Y54028D02*
D03*
X80152Y70955D02*
D03*
Y57429D02*
D03*
X47214Y86616D02*
D03*
X32666Y84455D02*
D03*
X52748Y81053D02*
D03*
X49354Y81054D02*
D03*
X47214Y73116D02*
D03*
X52748Y67553D02*
D03*
X49354Y67554D02*
D03*
X47214Y59591D02*
D03*
X49354Y54028D02*
D03*
X52748Y54028D02*
D03*
X32666Y70955D02*
D03*
Y57429D02*
D03*
X47214Y88242D02*
D03*
X96840Y79456D02*
D03*
X94700Y88270D02*
D03*
X49354Y79428D02*
D03*
X98537Y79456D02*
D03*
X51051Y79428D02*
D03*
X98537Y65928D02*
D03*
Y52402D02*
D03*
X51051Y65928D02*
D03*
Y52402D02*
D03*
X49354Y52403D02*
D03*
X96840Y65928D02*
D03*
X94700Y61217D02*
D03*
X96840Y52403D02*
D03*
X47214Y74742D02*
D03*
X94700D02*
D03*
X49354Y65928D02*
D03*
X47214Y61217D02*
D03*
X100234Y52402D02*
D03*
Y65928D02*
D03*
X32666Y59055D02*
D03*
X52748Y65928D02*
D03*
X80152Y59055D02*
D03*
Y72580D02*
D03*
X32666D02*
D03*
X52748Y52402D02*
D03*
X51051Y54028D02*
D03*
Y67553D02*
D03*
X98537Y54028D02*
D03*
Y67553D02*
D03*
X51051Y81053D02*
D03*
X98537Y81082D02*
D03*
X32666Y86080D02*
D03*
X80152Y86108D02*
D03*
X100234Y79456D02*
D03*
X52748Y79428D02*
D03*
D23*
X18414Y69840D02*
D03*
X20039D02*
D03*
Y71499D02*
D03*
X18414D02*
D03*
X7102Y68569D02*
D03*
X5477D02*
D03*
Y67002D02*
D03*
X7102D02*
D03*
Y65434D02*
D03*
X5477D02*
D03*
Y63866D02*
D03*
X7102D02*
D03*
Y60731D02*
D03*
X5477D02*
D03*
X7102Y62299D02*
D03*
X5477D02*
D03*
X7102Y59163D02*
D03*
X5477D02*
D03*
X100181Y87876D02*
D03*
Y86264D02*
D03*
Y84651D02*
D03*
X94999Y81304D02*
D03*
X100181Y74348D02*
D03*
Y72736D02*
D03*
Y71123D02*
D03*
Y60823D02*
D03*
Y59210D02*
D03*
X94999Y67776D02*
D03*
X100181Y57598D02*
D03*
X94999Y54250D02*
D03*
X86781Y80491D02*
D03*
Y66963D02*
D03*
Y53438D02*
D03*
X52695Y87848D02*
D03*
Y86236D02*
D03*
Y84623D02*
D03*
X52695Y74348D02*
D03*
Y71123D02*
D03*
Y72736D02*
D03*
X47513Y81276D02*
D03*
X39295Y80463D02*
D03*
X52695Y60823D02*
D03*
Y59210D02*
D03*
Y57598D02*
D03*
X47513Y67776D02*
D03*
X39295Y66963D02*
D03*
X47513Y54250D02*
D03*
X39295Y53438D02*
D03*
X45888Y81276D02*
D03*
X54320Y86236D02*
D03*
Y84623D02*
D03*
Y87848D02*
D03*
X93374Y81304D02*
D03*
X101807Y84651D02*
D03*
Y86264D02*
D03*
Y87876D02*
D03*
X83264Y82761D02*
D03*
X35778Y82733D02*
D03*
X86851Y82495D02*
D03*
X39365Y82467D02*
D03*
X83264Y69233D02*
D03*
X86851Y55442D02*
D03*
X83264Y55707D02*
D03*
X86851Y68967D02*
D03*
X35778Y69233D02*
D03*
X39365Y68967D02*
D03*
X35778Y55707D02*
D03*
X39365Y55442D02*
D03*
X45888Y54250D02*
D03*
X93374Y67776D02*
D03*
Y54250D02*
D03*
X54320Y74348D02*
D03*
Y60823D02*
D03*
X45888Y67776D02*
D03*
X101807Y71123D02*
D03*
Y60823D02*
D03*
Y59210D02*
D03*
Y57598D02*
D03*
X54320Y72736D02*
D03*
X101807Y74348D02*
D03*
Y72736D02*
D03*
X54320Y71123D02*
D03*
Y59210D02*
D03*
Y57598D02*
D03*
X88407Y53438D02*
D03*
Y66963D02*
D03*
X40921D02*
D03*
Y53438D02*
D03*
X40990Y55442D02*
D03*
X37404Y55707D02*
D03*
X40990Y68967D02*
D03*
X37404Y69233D02*
D03*
X88477Y68967D02*
D03*
X84890Y55707D02*
D03*
X88477Y55442D02*
D03*
X84890Y69233D02*
D03*
X40990Y82467D02*
D03*
X88477Y82495D02*
D03*
X37404Y82733D02*
D03*
X84890Y82761D02*
D03*
X88407Y80491D02*
D03*
X40921Y80463D02*
D03*
D34*
X115310Y108618D02*
D03*
X108465D02*
D03*
X115310Y106624D02*
D03*
Y104630D02*
D03*
X108465Y106624D02*
D03*
Y104630D02*
D03*
X113310D02*
D03*
X110465D02*
D03*
X113310Y108618D02*
D03*
X110465D02*
D03*
X113310Y106624D02*
D03*
X110465D02*
D03*
D37*
X21099Y56223D02*
D03*
Y54223D02*
D03*
D128*
X20331Y73516D02*
D03*
X18131D02*
D03*
Y75216D02*
D03*
X20331D02*
D03*
D129*
X17696Y67058D02*
D03*
X10196D02*
D03*
Y58188D02*
D03*
X17696D02*
D03*
D130*
X17196Y67058D02*
D03*
X16696D02*
D03*
X16196D02*
D03*
X15696D02*
D03*
X15196D02*
D03*
X14696D02*
D03*
X14196D02*
D03*
X13696D02*
D03*
X13196D02*
D03*
X12696D02*
D03*
X12196D02*
D03*
X11696D02*
D03*
X11196D02*
D03*
X10696D02*
D03*
Y58188D02*
D03*
X11196D02*
D03*
X11696D02*
D03*
X12196D02*
D03*
X12696D02*
D03*
X13196D02*
D03*
X13696D02*
D03*
X14196D02*
D03*
X14696D02*
D03*
X15196D02*
D03*
X15696D02*
D03*
X16196D02*
D03*
X17196D02*
D03*
X16696D02*
D03*
D131*
X9511Y66373D02*
D03*
Y58873D02*
D03*
X18381D02*
D03*
Y66373D02*
D03*
D132*
X9511Y65873D02*
D03*
Y65373D02*
D03*
Y64873D02*
D03*
Y64373D02*
D03*
Y63873D02*
D03*
Y63373D02*
D03*
Y62873D02*
D03*
Y62373D02*
D03*
Y61873D02*
D03*
Y61373D02*
D03*
Y60873D02*
D03*
Y60373D02*
D03*
Y59873D02*
D03*
Y59373D02*
D03*
X18381D02*
D03*
Y59873D02*
D03*
Y60373D02*
D03*
Y60873D02*
D03*
Y61373D02*
D03*
Y61873D02*
D03*
Y62373D02*
D03*
Y62873D02*
D03*
Y63373D02*
D03*
Y63873D02*
D03*
Y64373D02*
D03*
Y64873D02*
D03*
Y65373D02*
D03*
Y65873D02*
D03*
D134*
X97171Y136798D02*
D03*
X80575D02*
D03*
X30746D02*
D03*
Y131210D02*
D03*
X80575D02*
D03*
X97171D02*
D03*
D135*
X86714Y84283D02*
D03*
Y70755D02*
D03*
Y57230D02*
D03*
X39228Y84255D02*
D03*
X39228Y57230D02*
D03*
Y70755D02*
D03*
X41128D02*
D03*
X40178Y72755D02*
D03*
Y59230D02*
D03*
X41128Y57230D02*
D03*
X87664Y72755D02*
D03*
X88614Y70755D02*
D03*
X87664Y59230D02*
D03*
X88614Y57230D02*
D03*
X41128Y84255D02*
D03*
X40178Y86255D02*
D03*
X87664Y86283D02*
D03*
X88614Y84283D02*
D03*
D136*
X82066Y81298D02*
D03*
Y67770D02*
D03*
Y54244D02*
D03*
X34580Y81270D02*
D03*
X34580Y67770D02*
D03*
Y54244D02*
D03*
X80066Y53294D02*
D03*
Y55194D02*
D03*
Y68720D02*
D03*
Y66820D02*
D03*
X32580Y68720D02*
D03*
Y66820D02*
D03*
Y53294D02*
D03*
Y55194D02*
D03*
X32580Y80320D02*
D03*
Y82220D02*
D03*
X80066Y80348D02*
D03*
Y82248D02*
D03*
D137*
X83109Y84338D02*
D03*
X35623Y84310D02*
D03*
X83109Y57284D02*
D03*
Y70810D02*
D03*
X35623Y57284D02*
D03*
Y70810D02*
D03*
X36576Y72791D02*
D03*
X37528Y70810D02*
D03*
X36576Y59266D02*
D03*
X37528Y57284D02*
D03*
X84062Y72791D02*
D03*
X85014Y70810D02*
D03*
X84062Y59266D02*
D03*
X85014Y57284D02*
D03*
Y84338D02*
D03*
X84062Y86319D02*
D03*
X37528Y84310D02*
D03*
X36576Y86291D02*
D03*
D138*
X77888Y23343D02*
D03*
X76618D02*
D03*
X75348D02*
D03*
X100505Y23344D02*
D03*
X99235D02*
D03*
X97965D02*
D03*
X24458Y140086D02*
D03*
X25728D02*
D03*
X26998D02*
D03*
X108212Y133358D02*
D03*
X106942D02*
D03*
X105672D02*
D03*
X104402D02*
D03*
X74078Y23343D02*
D03*
X96695Y23344D02*
D03*
X26998Y131571D02*
D03*
X25728D02*
D03*
X24458D02*
D03*
X23188D02*
D03*
Y140086D02*
D03*
X4707Y133077D02*
D03*
X3437D02*
D03*
X2167D02*
D03*
X5977D02*
D03*
X76827Y131571D02*
D03*
X75557D02*
D03*
X74287D02*
D03*
X73017D02*
D03*
X89613D02*
D03*
X90883D02*
D03*
X92153D02*
D03*
X93423D02*
D03*
X74287Y140086D02*
D03*
X75557D02*
D03*
X76827D02*
D03*
X73017D02*
D03*
X89613D02*
D03*
X90883D02*
D03*
X92153D02*
D03*
X93423D02*
D03*
X55272Y23343D02*
D03*
X54002D02*
D03*
X52732D02*
D03*
X51462D02*
D03*
X30116D02*
D03*
X31386D02*
D03*
X32656D02*
D03*
X28846D02*
D03*
D139*
X11511Y123426D02*
D03*
X45928Y32994D02*
D03*
X68544D02*
D03*
X91161Y32995D02*
D03*
X23312Y32994D02*
D03*
X113746Y123708D02*
D03*
X106126D02*
D03*
X3891Y123426D02*
D03*
X53548Y32994D02*
D03*
X76164D02*
D03*
X98781Y32995D02*
D03*
X30932Y32994D02*
D03*
D140*
X42248Y115222D02*
D03*
X59139D02*
D03*
X42984Y123096D02*
D03*
X59875D02*
D03*
X41741Y128462D02*
D03*
X42477Y136336D02*
D03*
X58632Y128414D02*
D03*
X59368Y136288D02*
D03*
D141*
X25143Y143568D02*
D03*
X74972D02*
D03*
X91568D02*
D03*
X25143Y135054D02*
D03*
X106258Y129876D02*
D03*
X76033Y26826D02*
D03*
X98650Y26827D02*
D03*
X4023Y129594D02*
D03*
X74972Y135054D02*
D03*
X91568D02*
D03*
X53417Y26826D02*
D03*
X30801D02*
D03*
D142*
X38184Y123096D02*
D03*
X55075D02*
D03*
X46541Y128462D02*
D03*
X63432Y128414D02*
D03*
M02*
