G04*
G04 #@! TF.GenerationSoftware,Altium Limited,Altium Designer,25.8.1 (18)*
G04*
G04 Layer_Color=32768*
%FSLAX43Y43*%
%MOMM*%
G71*
G04*
G04 #@! TF.SameCoordinates,4C837565-1E1F-4476-BEE8-5968ED86CB82*
G04*
G04*
G04 #@! TF.FilePolarity,Positive*
G04*
G01*
G75*
%ADD12C,0.200*%
D12*
X103757Y127560D02*
Y133660D01*
X108857D01*
Y127560D02*
Y133660D01*
X103757Y127560D02*
X108857D01*
X35056Y71100D02*
X38096D01*
X35056D02*
Y72500D01*
X38096D01*
Y71100D02*
Y72500D01*
X38658Y71055D02*
X41698D01*
X38658D02*
Y72455D01*
X41698D01*
Y71055D02*
Y72455D01*
X35056Y57575D02*
X38096D01*
X35056D02*
Y58975D01*
X38096D01*
Y57575D02*
Y58975D01*
X41698Y57530D02*
Y58930D01*
X38658D02*
X41698D01*
X38658Y57530D02*
Y58930D01*
Y57530D02*
X41698D01*
X82542Y71100D02*
X85582D01*
X82542D02*
Y72500D01*
X85582D01*
Y71100D02*
Y72500D01*
X89184Y71055D02*
Y72455D01*
X86144D02*
X89184D01*
X86144Y71055D02*
Y72455D01*
Y71055D02*
X89184D01*
X82542Y57575D02*
X85582D01*
X82542D02*
Y58975D01*
X85582D01*
Y57575D02*
Y58975D01*
X89184Y57530D02*
Y58930D01*
X86144D02*
X89184D01*
X86144Y57530D02*
Y58930D01*
Y57530D02*
X89184D01*
X32880Y66250D02*
X34280D01*
Y69290D01*
X32880D02*
X34280D01*
X32880Y66250D02*
Y69290D01*
X80366Y52724D02*
X81766D01*
Y55764D01*
X80366D02*
X81766D01*
X80366Y52724D02*
Y55764D01*
Y66250D02*
X81766D01*
Y69290D01*
X80366D02*
X81766D01*
X80366Y66250D02*
Y69290D01*
X32880Y52724D02*
X34280D01*
Y55764D01*
X32880D02*
X34280D01*
X32880Y52724D02*
Y55764D01*
X78533Y23041D02*
Y29141D01*
X73433Y23041D02*
X78533D01*
X73433D02*
Y29141D01*
X78533D01*
X101150Y23042D02*
Y29142D01*
X96050Y23042D02*
X101150D01*
X96050D02*
Y29142D01*
X101150D01*
X22543Y137369D02*
X27643D01*
X22543Y131269D02*
Y137369D01*
Y131269D02*
X27643D01*
Y137369D01*
X22543Y145883D02*
X27643D01*
X22543Y139783D02*
Y145883D01*
Y139783D02*
X27643D01*
Y145883D01*
X1522Y127279D02*
X6622D01*
Y133379D01*
X1522D02*
X6622D01*
X1522Y127279D02*
Y133379D01*
X72372Y137369D02*
X77472D01*
X72372Y131269D02*
Y137369D01*
Y131269D02*
X77472D01*
Y137369D01*
X94068Y131269D02*
Y137369D01*
X88968Y131269D02*
X94068D01*
X88968D02*
Y137369D01*
X94068D01*
X72372Y145883D02*
X77472D01*
X72372Y139783D02*
Y145883D01*
Y139783D02*
X77472D01*
Y145883D01*
X94068Y139783D02*
Y145883D01*
X88968Y139783D02*
X94068D01*
X88968D02*
Y145883D01*
X94068D01*
X50817Y29141D02*
X55917D01*
X50817Y23041D02*
Y29141D01*
Y23041D02*
X55917D01*
Y29141D01*
X33301Y23041D02*
Y29141D01*
X28201Y23041D02*
X33301D01*
X28201D02*
Y29141D01*
X33301D01*
X38658Y84555D02*
X41698D01*
X38658D02*
Y85955D01*
X41698D01*
Y84555D02*
Y85955D01*
X89184Y84583D02*
Y85983D01*
X86144D02*
X89184D01*
X86144Y84583D02*
Y85983D01*
Y84583D02*
X89184D01*
X80366Y79778D02*
Y82818D01*
X81766D01*
Y79778D02*
Y82818D01*
X80366Y79778D02*
X81766D01*
X32880Y79750D02*
Y82790D01*
X34280D01*
Y79750D02*
Y82790D01*
X32880Y79750D02*
X34280D01*
X85582Y84629D02*
Y86029D01*
X82542D02*
X85582D01*
X82542Y84629D02*
Y86029D01*
Y84629D02*
X85582D01*
X38096Y84600D02*
Y86000D01*
X35056D02*
X38096D01*
X35056Y84600D02*
Y86000D01*
Y84600D02*
X38096D01*
M02*
