G04*
G04 #@! TF.GenerationSoftware,Altium Limited,Altium Designer,25.8.1 (18)*
G04*
G04 Layer_Color=16711935*
%FSLAX43Y43*%
%MOMM*%
G71*
G04*
G04 #@! TF.SameCoordinates,4C837565-1E1F-4476-BEE8-5968ED86CB82*
G04*
G04*
G04 #@! TF.FilePolarity,Positive*
G04*
G01*
G75*
%ADD12C,0.200*%
%ADD16C,0.127*%
%ADD156C,0.025*%
%ADD159C,0.100*%
%ADD161C,0.076*%
%ADD162C,0.212*%
D12*
X19446Y66623D02*
G03*
X19446Y66623I-100J0D01*
G01*
X114044Y125776D02*
G03*
X114044Y125776I-100J0D01*
G01*
X11809Y125494D02*
G03*
X11809Y125494I-100J0D01*
G01*
X45830Y30926D02*
G03*
X45830Y30926I-100J0D01*
G01*
X68446D02*
G03*
X68446Y30926I-100J0D01*
G01*
X91063Y30927D02*
G03*
X91063Y30927I-100J0D01*
G01*
X23214Y30926D02*
G03*
X23214Y30926I-100J0D01*
G01*
D16*
X15059Y157094D02*
X16059D01*
X15559Y156594D02*
Y157594D01*
X24758Y156967D02*
X25758D01*
X15395Y161008D02*
X25295D01*
X15395D02*
Y165808D01*
X13695D02*
X15395D01*
X13695D02*
Y168308D01*
X15395D01*
Y170008D01*
X25295D01*
Y168308D02*
Y170008D01*
Y168308D02*
X26995D01*
Y165808D02*
Y168308D01*
X25295Y165808D02*
X26995D01*
X25295Y161008D02*
Y165808D01*
X18496Y58073D02*
Y67173D01*
X9396Y58073D02*
X18496D01*
X9396D02*
Y67173D01*
X18496D01*
X107826Y154345D02*
Y155345D01*
X107580Y145129D02*
X108580D01*
X108080Y144629D02*
Y145629D01*
X119064Y158588D02*
Y159388D01*
X116564Y158588D02*
Y159388D01*
X119064Y143888D02*
Y144688D01*
X116564Y143888D02*
Y144688D01*
X111264Y155188D02*
X112064D01*
Y158588D01*
X116564Y143888D02*
X119064D01*
X116564Y159388D02*
X119064D01*
X111264Y144688D02*
X116564D01*
X119064D01*
X120064D01*
Y158588D01*
X119064D02*
X120064D01*
X116564D02*
X119064D01*
X112064D02*
X116564D01*
X111264Y144688D02*
Y155188D01*
X96468Y8718D02*
X106968D01*
X110368Y3418D02*
Y7918D01*
Y918D02*
Y3418D01*
Y-82D02*
Y918D01*
X96468Y-82D02*
X110368D01*
X96468D02*
Y918D01*
Y3418D01*
Y8718D01*
X111168Y918D02*
Y3418D01*
X95668Y918D02*
Y3418D01*
X106968Y7918D02*
X110368D01*
X106968D02*
Y8718D01*
X95668Y3418D02*
X96468D01*
X95668Y918D02*
X96468D01*
X110368Y3418D02*
X111168D01*
X110368Y918D02*
X111168D01*
X96409Y11902D02*
X97409D01*
X96909Y11402D02*
Y12402D01*
X106125Y12156D02*
X107125D01*
X111944Y125476D02*
Y130576D01*
X108944D02*
X111944D01*
X108944Y125476D02*
Y130576D01*
Y125476D02*
X111944D01*
X50611Y142908D02*
X71411D01*
X50611D02*
Y170008D01*
X71411D01*
Y142908D02*
Y170008D01*
X51428Y143603D02*
X52428D01*
X70221Y143230D02*
Y144230D01*
X69721Y143730D02*
X70721D01*
X29147Y142908D02*
X49947D01*
X29147D02*
Y170008D01*
X49947D01*
Y142908D02*
Y170008D01*
X29964Y143603D02*
X30964D01*
X48757Y143230D02*
Y144230D01*
X48257Y143730D02*
X49257D01*
X75878Y157094D02*
X76878D01*
X76378Y156594D02*
Y157594D01*
X85577Y156967D02*
X86577D01*
X76214Y161008D02*
X86114D01*
X76214D02*
Y165808D01*
X74514D02*
X76214D01*
X74514D02*
Y168308D01*
X76214D01*
Y170008D01*
X86114D01*
Y168308D02*
Y170008D01*
Y168308D02*
X87814D01*
Y165808D02*
Y168308D01*
X86114Y165808D02*
X87814D01*
X86114Y161008D02*
Y165808D01*
X102704Y161008D02*
Y165808D01*
X104404D01*
Y168308D01*
X102704D02*
X104404D01*
X102704D02*
Y170008D01*
X92804D02*
X102704D01*
X92804Y168308D02*
Y170008D01*
X91104Y168308D02*
X92804D01*
X91104Y165808D02*
Y168308D01*
Y165808D02*
X92804D01*
Y161008D02*
Y165808D01*
Y161008D02*
X102704D01*
X102167Y156967D02*
X103167D01*
X92968Y156594D02*
Y157594D01*
X92468Y157094D02*
X93468D01*
X6709Y125194D02*
X9709D01*
X6709D02*
Y130294D01*
X9709D01*
Y125194D02*
Y130294D01*
X12175Y147931D02*
Y148931D01*
X11421Y158147D02*
X12421D01*
X11921Y157647D02*
Y158647D01*
X937Y143888D02*
Y144688D01*
X3437Y143888D02*
Y144688D01*
X937Y158588D02*
Y159388D01*
X3437Y158588D02*
Y159388D01*
X7937Y148088D02*
X8737D01*
X7937Y144688D02*
Y148088D01*
X937Y159388D02*
X3437D01*
X937Y143888D02*
X3437D01*
Y158588D02*
X8737D01*
X937D02*
X3437D01*
X-63D02*
X937D01*
X-63Y144688D02*
Y158588D01*
Y144688D02*
X937D01*
X3437D01*
X7937D01*
X8737Y148088D02*
Y158588D01*
X47730Y26126D02*
Y31226D01*
Y26126D02*
X50730D01*
Y31226D01*
X47730D02*
X50730D01*
X73568Y8718D02*
X84068D01*
X87468Y3418D02*
Y7918D01*
Y918D02*
Y3418D01*
Y-82D02*
Y918D01*
X73568Y-82D02*
X87468D01*
X73568D02*
Y918D01*
Y3418D01*
Y8718D01*
X88268Y918D02*
Y3418D01*
X72768Y918D02*
Y3418D01*
X84068Y7918D02*
X87468D01*
X84068D02*
Y8718D01*
X72768Y3418D02*
X73568D01*
X72768Y918D02*
X73568D01*
X87468Y3418D02*
X88268D01*
X87468Y918D02*
X88268D01*
X73509Y11902D02*
X74509D01*
X74009Y11402D02*
Y12402D01*
X83225Y12156D02*
X84225D01*
X70346Y31226D02*
X73346D01*
Y26126D02*
Y31226D01*
X70346Y26126D02*
X73346D01*
X70346D02*
Y31226D01*
X92963Y31227D02*
X95963D01*
Y26127D02*
Y31227D01*
X92963Y26127D02*
X95963D01*
X92963D02*
Y31227D01*
X60324Y12156D02*
X61324D01*
X51108Y11402D02*
Y12402D01*
X50608Y11902D02*
X51608D01*
X64567Y918D02*
X65367D01*
X64567Y3418D02*
X65367D01*
X49867Y918D02*
X50667D01*
X49867Y3418D02*
X50667D01*
X61167Y7918D02*
Y8718D01*
Y7918D02*
X64567D01*
X49867Y918D02*
Y3418D01*
X65367Y918D02*
Y3418D01*
X50667D02*
Y8718D01*
Y918D02*
Y3418D01*
Y-82D02*
Y918D01*
Y-82D02*
X64567D01*
Y918D01*
Y3418D01*
Y7918D01*
X50667Y8718D02*
X61167D01*
X27767D02*
X38267D01*
X41667Y3418D02*
Y7918D01*
Y918D02*
Y3418D01*
Y-82D02*
Y918D01*
X27767Y-82D02*
X41667D01*
X27767D02*
Y918D01*
Y3418D01*
Y8718D01*
X42467Y918D02*
Y3418D01*
X26967Y918D02*
Y3418D01*
X38267Y7918D02*
X41667D01*
X38267D02*
Y8718D01*
X26967Y3418D02*
X27767D01*
X26967Y918D02*
X27767D01*
X41667Y3418D02*
X42467D01*
X41667Y918D02*
X42467D01*
X27708Y11902D02*
X28708D01*
X28208Y11402D02*
Y12402D01*
X37424Y12156D02*
X38424D01*
X25114Y26126D02*
Y31226D01*
Y26126D02*
X28114D01*
Y31226D01*
X25114D02*
X28114D01*
D156*
X93996Y66932D02*
Y74120D01*
X101184D01*
Y66932D02*
Y74120D01*
X93996Y66932D02*
X101184D01*
X93996Y68202D02*
X95266Y66932D01*
X94700Y74120D02*
Y75123D01*
X94980D01*
Y74120D02*
Y75123D01*
X94700Y74120D02*
X94980D01*
X95200D02*
Y75123D01*
X95480D01*
Y74120D02*
Y75123D01*
X95200Y74120D02*
X95480D01*
X95700D02*
Y75123D01*
X95980D01*
Y74120D02*
Y75123D01*
X95700Y74120D02*
X95980D01*
X96200D02*
Y75123D01*
X96480D01*
Y74120D02*
Y75123D01*
X96200Y74120D02*
X96480D01*
X96700D02*
Y75123D01*
X96980D01*
Y74120D02*
Y75123D01*
X96700Y74120D02*
X96980D01*
X97200D02*
Y75123D01*
X97480D01*
Y74120D02*
Y75123D01*
X97200Y74120D02*
X97480D01*
X97700D02*
Y75123D01*
X97980D01*
Y74120D02*
Y75123D01*
X97700Y74120D02*
X97980D01*
X98200D02*
Y75123D01*
X98480D01*
Y74120D02*
Y75123D01*
X98200Y74120D02*
X98480D01*
X98700D02*
Y75123D01*
X98980D01*
Y74120D02*
Y75123D01*
X98700Y74120D02*
X98980D01*
X99200D02*
Y75123D01*
X99480D01*
Y74120D02*
Y75123D01*
X99200Y74120D02*
X99480D01*
X99700D02*
Y75123D01*
X99980D01*
Y74120D02*
Y75123D01*
X99700Y74120D02*
X99980D01*
X100200D02*
Y75123D01*
X100480D01*
Y74120D02*
Y75123D01*
X100200Y74120D02*
X100480D01*
X101184Y73415D02*
X102188D01*
Y73136D02*
Y73415D01*
X101184Y73136D02*
X102188D01*
X101184D02*
Y73415D01*
Y72915D02*
X102188D01*
Y72636D02*
Y72915D01*
X101184Y72636D02*
X102188D01*
X101184D02*
Y72915D01*
Y72415D02*
X102188D01*
Y72136D02*
Y72415D01*
X101184Y72136D02*
X102188D01*
X101184D02*
Y72415D01*
Y71915D02*
X102188D01*
Y71636D02*
Y71915D01*
X101184Y71636D02*
X102188D01*
X101184D02*
Y71915D01*
Y71415D02*
X102188D01*
Y71136D02*
Y71415D01*
X101184Y71136D02*
X102188D01*
X101184D02*
Y71415D01*
Y70915D02*
X102188D01*
Y70636D02*
Y70915D01*
X101184Y70636D02*
X102188D01*
X101184D02*
Y70915D01*
Y70415D02*
X102188D01*
Y70136D02*
Y70415D01*
X101184Y70136D02*
X102188D01*
X101184D02*
Y70415D01*
Y69915D02*
X102188D01*
Y69636D02*
Y69915D01*
X101184Y69636D02*
X102188D01*
X101184D02*
Y69915D01*
Y69415D02*
X102188D01*
Y69136D02*
Y69415D01*
X101184Y69136D02*
X102188D01*
X101184D02*
Y69415D01*
Y68915D02*
X102188D01*
Y68636D02*
Y68915D01*
X101184Y68636D02*
X102188D01*
X101184D02*
Y68915D01*
Y68415D02*
X102188D01*
Y68136D02*
Y68415D01*
X101184Y68136D02*
X102188D01*
X101184D02*
Y68415D01*
Y67915D02*
X102188D01*
Y67636D02*
Y67915D01*
X101184Y67636D02*
X102188D01*
X101184D02*
Y67915D01*
X100480Y65928D02*
Y66932D01*
X100200Y65928D02*
X100480D01*
X100200D02*
Y66932D01*
X100480D01*
X99980Y65928D02*
Y66932D01*
X99700Y65928D02*
X99980D01*
X99700D02*
Y66932D01*
X99980D01*
X99480Y65928D02*
Y66932D01*
X99200Y65928D02*
X99480D01*
X99200D02*
Y66932D01*
X99480D01*
X98980Y65928D02*
Y66932D01*
X98700Y65928D02*
X98980D01*
X98700D02*
Y66932D01*
X98980D01*
X98480Y65928D02*
Y66932D01*
X98200Y65928D02*
X98480D01*
X98200D02*
Y66932D01*
X98480D01*
X97980Y65928D02*
Y66932D01*
X97700Y65928D02*
X97980D01*
X97700D02*
Y66932D01*
X97980D01*
X97480Y65928D02*
Y66932D01*
X97200Y65928D02*
X97480D01*
X97200D02*
Y66932D01*
X97480D01*
X96980Y65928D02*
Y66932D01*
X96700Y65928D02*
X96980D01*
X96700D02*
Y66932D01*
X96980D01*
X96480Y65928D02*
Y66932D01*
X96200Y65928D02*
X96480D01*
X96200D02*
Y66932D01*
X96480D01*
X95980Y65928D02*
Y66932D01*
X95700Y65928D02*
X95980D01*
X95700D02*
Y66932D01*
X95980D01*
X95480Y65928D02*
Y66932D01*
X95200Y65928D02*
X95480D01*
X95200D02*
Y66932D01*
X95480D01*
X94980Y65928D02*
Y66932D01*
X94700Y65928D02*
X94980D01*
X94700D02*
Y66932D01*
X94980D01*
X92993Y67636D02*
X93996D01*
X92993D02*
Y67915D01*
X93996D01*
Y67636D02*
Y67915D01*
X92993Y68136D02*
X93996D01*
X92993D02*
Y68415D01*
X93996D01*
Y68136D02*
Y68415D01*
X92993Y68636D02*
X93996D01*
X92993D02*
Y68915D01*
X93996D01*
Y68636D02*
Y68915D01*
X92993Y69136D02*
X93996D01*
X92993D02*
Y69415D01*
X93996D01*
Y69136D02*
Y69415D01*
X92993Y69636D02*
X93996D01*
X92993D02*
Y69915D01*
X93996D01*
Y69636D02*
Y69915D01*
X92993Y70136D02*
X93996D01*
X92993D02*
Y70415D01*
X93996D01*
Y70136D02*
Y70415D01*
X92993Y70636D02*
X93996D01*
X92993D02*
Y70915D01*
X93996D01*
Y70636D02*
Y70915D01*
X92993Y71136D02*
X93996D01*
X92993D02*
Y71415D01*
X93996D01*
Y71136D02*
Y71415D01*
X92993Y71636D02*
X93996D01*
X92993D02*
Y71915D01*
X93996D01*
Y71636D02*
Y71915D01*
X92993Y72136D02*
X93996D01*
X92993D02*
Y72415D01*
X93996D01*
Y72136D02*
Y72415D01*
X92993Y72636D02*
X93996D01*
X92993D02*
Y72915D01*
X93996D01*
Y72636D02*
Y72915D01*
X92993Y73136D02*
X93996D01*
X92993D02*
Y73415D01*
X93996D01*
Y73136D02*
Y73415D01*
Y53406D02*
Y60594D01*
X101184D01*
Y53406D02*
Y60594D01*
X93996Y53406D02*
X101184D01*
X93996Y54676D02*
X95266Y53406D01*
X94700Y60594D02*
Y61598D01*
X94980D01*
Y60594D02*
Y61598D01*
X94700Y60594D02*
X94980D01*
X95200D02*
Y61598D01*
X95480D01*
Y60594D02*
Y61598D01*
X95200Y60594D02*
X95480D01*
X95700D02*
Y61598D01*
X95980D01*
Y60594D02*
Y61598D01*
X95700Y60594D02*
X95980D01*
X96200D02*
Y61598D01*
X96480D01*
Y60594D02*
Y61598D01*
X96200Y60594D02*
X96480D01*
X96700D02*
Y61598D01*
X96980D01*
Y60594D02*
Y61598D01*
X96700Y60594D02*
X96980D01*
X97200D02*
Y61598D01*
X97480D01*
Y60594D02*
Y61598D01*
X97200Y60594D02*
X97480D01*
X97700D02*
Y61598D01*
X97980D01*
Y60594D02*
Y61598D01*
X97700Y60594D02*
X97980D01*
X98200D02*
Y61598D01*
X98480D01*
Y60594D02*
Y61598D01*
X98200Y60594D02*
X98480D01*
X98700D02*
Y61598D01*
X98980D01*
Y60594D02*
Y61598D01*
X98700Y60594D02*
X98980D01*
X99200D02*
Y61598D01*
X99480D01*
Y60594D02*
Y61598D01*
X99200Y60594D02*
X99480D01*
X99700D02*
Y61598D01*
X99980D01*
Y60594D02*
Y61598D01*
X99700Y60594D02*
X99980D01*
X100200D02*
Y61598D01*
X100480D01*
Y60594D02*
Y61598D01*
X100200Y60594D02*
X100480D01*
X101184Y59890D02*
X102188D01*
Y59611D02*
Y59890D01*
X101184Y59611D02*
X102188D01*
X101184D02*
Y59890D01*
Y59390D02*
X102188D01*
Y59111D02*
Y59390D01*
X101184Y59111D02*
X102188D01*
X101184D02*
Y59390D01*
Y58890D02*
X102188D01*
Y58611D02*
Y58890D01*
X101184Y58611D02*
X102188D01*
X101184D02*
Y58890D01*
Y58390D02*
X102188D01*
Y58111D02*
Y58390D01*
X101184Y58111D02*
X102188D01*
X101184D02*
Y58390D01*
Y57890D02*
X102188D01*
Y57611D02*
Y57890D01*
X101184Y57611D02*
X102188D01*
X101184D02*
Y57890D01*
Y57390D02*
X102188D01*
Y57111D02*
Y57390D01*
X101184Y57111D02*
X102188D01*
X101184D02*
Y57390D01*
Y56890D02*
X102188D01*
Y56611D02*
Y56890D01*
X101184Y56611D02*
X102188D01*
X101184D02*
Y56890D01*
Y56390D02*
X102188D01*
Y56111D02*
Y56390D01*
X101184Y56111D02*
X102188D01*
X101184D02*
Y56390D01*
Y55890D02*
X102188D01*
Y55611D02*
Y55890D01*
X101184Y55611D02*
X102188D01*
X101184D02*
Y55890D01*
Y55390D02*
X102188D01*
Y55111D02*
Y55390D01*
X101184Y55111D02*
X102188D01*
X101184D02*
Y55390D01*
Y54890D02*
X102188D01*
Y54611D02*
Y54890D01*
X101184Y54611D02*
X102188D01*
X101184D02*
Y54890D01*
Y54390D02*
X102188D01*
Y54111D02*
Y54390D01*
X101184Y54111D02*
X102188D01*
X101184D02*
Y54390D01*
X100480Y52403D02*
Y53406D01*
X100200Y52403D02*
X100480D01*
X100200D02*
Y53406D01*
X100480D01*
X99980Y52403D02*
Y53406D01*
X99700Y52403D02*
X99980D01*
X99700D02*
Y53406D01*
X99980D01*
X99480Y52403D02*
Y53406D01*
X99200Y52403D02*
X99480D01*
X99200D02*
Y53406D01*
X99480D01*
X98980Y52403D02*
Y53406D01*
X98700Y52403D02*
X98980D01*
X98700D02*
Y53406D01*
X98980D01*
X98480Y52403D02*
Y53406D01*
X98200Y52403D02*
X98480D01*
X98200D02*
Y53406D01*
X98480D01*
X97980Y52403D02*
Y53406D01*
X97700Y52403D02*
X97980D01*
X97700D02*
Y53406D01*
X97980D01*
X97480Y52403D02*
Y53406D01*
X97200Y52403D02*
X97480D01*
X97200D02*
Y53406D01*
X97480D01*
X96980Y52403D02*
Y53406D01*
X96700Y52403D02*
X96980D01*
X96700D02*
Y53406D01*
X96980D01*
X96480Y52403D02*
Y53406D01*
X96200Y52403D02*
X96480D01*
X96200D02*
Y53406D01*
X96480D01*
X95980Y52403D02*
Y53406D01*
X95700Y52403D02*
X95980D01*
X95700D02*
Y53406D01*
X95980D01*
X95480Y52403D02*
Y53406D01*
X95200Y52403D02*
X95480D01*
X95200D02*
Y53406D01*
X95480D01*
X94980Y52403D02*
Y53406D01*
X94700Y52403D02*
X94980D01*
X94700D02*
Y53406D01*
X94980D01*
X92993Y54111D02*
X93996D01*
X92993D02*
Y54390D01*
X93996D01*
Y54111D02*
Y54390D01*
X92993Y54611D02*
X93996D01*
X92993D02*
Y54890D01*
X93996D01*
Y54611D02*
Y54890D01*
X92993Y55111D02*
X93996D01*
X92993D02*
Y55390D01*
X93996D01*
Y55111D02*
Y55390D01*
X92993Y55611D02*
X93996D01*
X92993D02*
Y55890D01*
X93996D01*
Y55611D02*
Y55890D01*
X92993Y56111D02*
X93996D01*
X92993D02*
Y56390D01*
X93996D01*
Y56111D02*
Y56390D01*
X92993Y56611D02*
X93996D01*
X92993D02*
Y56890D01*
X93996D01*
Y56611D02*
Y56890D01*
X92993Y57111D02*
X93996D01*
X92993D02*
Y57390D01*
X93996D01*
Y57111D02*
Y57390D01*
X92993Y57611D02*
X93996D01*
X92993D02*
Y57890D01*
X93996D01*
Y57611D02*
Y57890D01*
X92993Y58111D02*
X93996D01*
X92993D02*
Y58390D01*
X93996D01*
Y58111D02*
Y58390D01*
X92993Y58611D02*
X93996D01*
X92993D02*
Y58890D01*
X93996D01*
Y58611D02*
Y58890D01*
X92993Y59111D02*
X93996D01*
X92993D02*
Y59390D01*
X93996D01*
Y59111D02*
Y59390D01*
X92993Y59611D02*
X93996D01*
X92993D02*
Y59890D01*
X93996D01*
Y59611D02*
Y59890D01*
X46510Y53406D02*
Y60594D01*
X53698D01*
Y53406D02*
Y60594D01*
X46510Y53406D02*
X53698D01*
X46510Y54676D02*
X47780Y53406D01*
X47214Y60594D02*
Y61598D01*
X47494D01*
Y60594D02*
Y61598D01*
X47214Y60594D02*
X47494D01*
X47714D02*
Y61598D01*
X47994D01*
Y60594D02*
Y61598D01*
X47714Y60594D02*
X47994D01*
X48214D02*
Y61598D01*
X48494D01*
Y60594D02*
Y61598D01*
X48214Y60594D02*
X48494D01*
X48714D02*
Y61598D01*
X48994D01*
Y60594D02*
Y61598D01*
X48714Y60594D02*
X48994D01*
X49214D02*
Y61598D01*
X49494D01*
Y60594D02*
Y61598D01*
X49214Y60594D02*
X49494D01*
X49714D02*
Y61598D01*
X49994D01*
Y60594D02*
Y61598D01*
X49714Y60594D02*
X49994D01*
X50214D02*
Y61598D01*
X50494D01*
Y60594D02*
Y61598D01*
X50214Y60594D02*
X50494D01*
X50714D02*
Y61598D01*
X50994D01*
Y60594D02*
Y61598D01*
X50714Y60594D02*
X50994D01*
X51214D02*
Y61598D01*
X51494D01*
Y60594D02*
Y61598D01*
X51214Y60594D02*
X51494D01*
X51714D02*
Y61598D01*
X51994D01*
Y60594D02*
Y61598D01*
X51714Y60594D02*
X51994D01*
X52214D02*
Y61598D01*
X52494D01*
Y60594D02*
Y61598D01*
X52214Y60594D02*
X52494D01*
X52714D02*
Y61598D01*
X52994D01*
Y60594D02*
Y61598D01*
X52714Y60594D02*
X52994D01*
X53698Y59890D02*
X54701D01*
Y59611D02*
Y59890D01*
X53698Y59611D02*
X54701D01*
X53698D02*
Y59890D01*
Y59390D02*
X54701D01*
Y59111D02*
Y59390D01*
X53698Y59111D02*
X54701D01*
X53698D02*
Y59390D01*
Y58890D02*
X54701D01*
Y58611D02*
Y58890D01*
X53698Y58611D02*
X54701D01*
X53698D02*
Y58890D01*
Y58390D02*
X54701D01*
Y58111D02*
Y58390D01*
X53698Y58111D02*
X54701D01*
X53698D02*
Y58390D01*
Y57890D02*
X54701D01*
Y57611D02*
Y57890D01*
X53698Y57611D02*
X54701D01*
X53698D02*
Y57890D01*
Y57390D02*
X54701D01*
Y57111D02*
Y57390D01*
X53698Y57111D02*
X54701D01*
X53698D02*
Y57390D01*
Y56890D02*
X54701D01*
Y56611D02*
Y56890D01*
X53698Y56611D02*
X54701D01*
X53698D02*
Y56890D01*
Y56390D02*
X54701D01*
Y56111D02*
Y56390D01*
X53698Y56111D02*
X54701D01*
X53698D02*
Y56390D01*
Y55890D02*
X54701D01*
Y55611D02*
Y55890D01*
X53698Y55611D02*
X54701D01*
X53698D02*
Y55890D01*
Y55390D02*
X54701D01*
Y55111D02*
Y55390D01*
X53698Y55111D02*
X54701D01*
X53698D02*
Y55390D01*
Y54890D02*
X54701D01*
Y54611D02*
Y54890D01*
X53698Y54611D02*
X54701D01*
X53698D02*
Y54890D01*
Y54390D02*
X54701D01*
Y54111D02*
Y54390D01*
X53698Y54111D02*
X54701D01*
X53698D02*
Y54390D01*
X52994Y52403D02*
Y53406D01*
X52714Y52403D02*
X52994D01*
X52714D02*
Y53406D01*
X52994D01*
X52494Y52403D02*
Y53406D01*
X52214Y52403D02*
X52494D01*
X52214D02*
Y53406D01*
X52494D01*
X51994Y52403D02*
Y53406D01*
X51714Y52403D02*
X51994D01*
X51714D02*
Y53406D01*
X51994D01*
X51494Y52403D02*
Y53406D01*
X51214Y52403D02*
X51494D01*
X51214D02*
Y53406D01*
X51494D01*
X50994Y52403D02*
Y53406D01*
X50714Y52403D02*
X50994D01*
X50714D02*
Y53406D01*
X50994D01*
X50494Y52403D02*
Y53406D01*
X50214Y52403D02*
X50494D01*
X50214D02*
Y53406D01*
X50494D01*
X49994Y52403D02*
Y53406D01*
X49714Y52403D02*
X49994D01*
X49714D02*
Y53406D01*
X49994D01*
X49494Y52403D02*
Y53406D01*
X49214Y52403D02*
X49494D01*
X49214D02*
Y53406D01*
X49494D01*
X48994Y52403D02*
Y53406D01*
X48714Y52403D02*
X48994D01*
X48714D02*
Y53406D01*
X48994D01*
X48494Y52403D02*
Y53406D01*
X48214Y52403D02*
X48494D01*
X48214D02*
Y53406D01*
X48494D01*
X47994Y52403D02*
Y53406D01*
X47714Y52403D02*
X47994D01*
X47714D02*
Y53406D01*
X47994D01*
X47494Y52403D02*
Y53406D01*
X47214Y52403D02*
X47494D01*
X47214D02*
Y53406D01*
X47494D01*
X45507Y54111D02*
X46510D01*
X45507D02*
Y54390D01*
X46510D01*
Y54111D02*
Y54390D01*
X45507Y54611D02*
X46510D01*
X45507D02*
Y54890D01*
X46510D01*
Y54611D02*
Y54890D01*
X45507Y55111D02*
X46510D01*
X45507D02*
Y55390D01*
X46510D01*
Y55111D02*
Y55390D01*
X45507Y55611D02*
X46510D01*
X45507D02*
Y55890D01*
X46510D01*
Y55611D02*
Y55890D01*
X45507Y56111D02*
X46510D01*
X45507D02*
Y56390D01*
X46510D01*
Y56111D02*
Y56390D01*
X45507Y56611D02*
X46510D01*
X45507D02*
Y56890D01*
X46510D01*
Y56611D02*
Y56890D01*
X45507Y57111D02*
X46510D01*
X45507D02*
Y57390D01*
X46510D01*
Y57111D02*
Y57390D01*
X45507Y57611D02*
X46510D01*
X45507D02*
Y57890D01*
X46510D01*
Y57611D02*
Y57890D01*
X45507Y58111D02*
X46510D01*
X45507D02*
Y58390D01*
X46510D01*
Y58111D02*
Y58390D01*
X45507Y58611D02*
X46510D01*
X45507D02*
Y58890D01*
X46510D01*
Y58611D02*
Y58890D01*
X45507Y59111D02*
X46510D01*
X45507D02*
Y59390D01*
X46510D01*
Y59111D02*
Y59390D01*
X45507Y59611D02*
X46510D01*
X45507D02*
Y59890D01*
X46510D01*
Y59611D02*
Y59890D01*
Y73136D02*
Y73415D01*
X45507D02*
X46510D01*
X45507Y73136D02*
Y73415D01*
Y73136D02*
X46510D01*
Y72636D02*
Y72915D01*
X45507D02*
X46510D01*
X45507Y72636D02*
Y72915D01*
Y72636D02*
X46510D01*
Y72136D02*
Y72415D01*
X45507D02*
X46510D01*
X45507Y72136D02*
Y72415D01*
Y72136D02*
X46510D01*
Y71636D02*
Y71915D01*
X45507D02*
X46510D01*
X45507Y71636D02*
Y71915D01*
Y71636D02*
X46510D01*
Y71136D02*
Y71415D01*
X45507D02*
X46510D01*
X45507Y71136D02*
Y71415D01*
Y71136D02*
X46510D01*
Y70636D02*
Y70915D01*
X45507D02*
X46510D01*
X45507Y70636D02*
Y70915D01*
Y70636D02*
X46510D01*
Y70136D02*
Y70415D01*
X45507D02*
X46510D01*
X45507Y70136D02*
Y70415D01*
Y70136D02*
X46510D01*
Y69636D02*
Y69915D01*
X45507D02*
X46510D01*
X45507Y69636D02*
Y69915D01*
Y69636D02*
X46510D01*
Y69136D02*
Y69415D01*
X45507D02*
X46510D01*
X45507Y69136D02*
Y69415D01*
Y69136D02*
X46510D01*
Y68636D02*
Y68915D01*
X45507D02*
X46510D01*
X45507Y68636D02*
Y68915D01*
Y68636D02*
X46510D01*
Y68136D02*
Y68415D01*
X45507D02*
X46510D01*
X45507Y68136D02*
Y68415D01*
Y68136D02*
X46510D01*
Y67636D02*
Y67915D01*
X45507D02*
X46510D01*
X45507Y67636D02*
Y67915D01*
Y67636D02*
X46510D01*
X47214Y66932D02*
X47494D01*
X47214Y65928D02*
Y66932D01*
Y65928D02*
X47494D01*
Y66932D01*
X47714D02*
X47994D01*
X47714Y65928D02*
Y66932D01*
Y65928D02*
X47994D01*
Y66932D01*
X48214D02*
X48494D01*
X48214Y65928D02*
Y66932D01*
Y65928D02*
X48494D01*
Y66932D01*
X48714D02*
X48994D01*
X48714Y65928D02*
Y66932D01*
Y65928D02*
X48994D01*
Y66932D01*
X49214D02*
X49494D01*
X49214Y65928D02*
Y66932D01*
Y65928D02*
X49494D01*
Y66932D01*
X49714D02*
X49994D01*
X49714Y65928D02*
Y66932D01*
Y65928D02*
X49994D01*
Y66932D01*
X50214D02*
X50494D01*
X50214Y65928D02*
Y66932D01*
Y65928D02*
X50494D01*
Y66932D01*
X50714D02*
X50994D01*
X50714Y65928D02*
Y66932D01*
Y65928D02*
X50994D01*
Y66932D01*
X51214D02*
X51494D01*
X51214Y65928D02*
Y66932D01*
Y65928D02*
X51494D01*
Y66932D01*
X51714D02*
X51994D01*
X51714Y65928D02*
Y66932D01*
Y65928D02*
X51994D01*
Y66932D01*
X52214D02*
X52494D01*
X52214Y65928D02*
Y66932D01*
Y65928D02*
X52494D01*
Y66932D01*
X52714D02*
X52994D01*
X52714Y65928D02*
Y66932D01*
Y65928D02*
X52994D01*
Y66932D01*
X53698Y67636D02*
Y67915D01*
Y67636D02*
X54701D01*
Y67915D01*
X53698D02*
X54701D01*
X53698Y68136D02*
Y68415D01*
Y68136D02*
X54701D01*
Y68415D01*
X53698D02*
X54701D01*
X53698Y68636D02*
Y68915D01*
Y68636D02*
X54701D01*
Y68915D01*
X53698D02*
X54701D01*
X53698Y69136D02*
Y69415D01*
Y69136D02*
X54701D01*
Y69415D01*
X53698D02*
X54701D01*
X53698Y69636D02*
Y69915D01*
Y69636D02*
X54701D01*
Y69915D01*
X53698D02*
X54701D01*
X53698Y70136D02*
Y70415D01*
Y70136D02*
X54701D01*
Y70415D01*
X53698D02*
X54701D01*
X53698Y70636D02*
Y70915D01*
Y70636D02*
X54701D01*
Y70915D01*
X53698D02*
X54701D01*
X53698Y71136D02*
Y71415D01*
Y71136D02*
X54701D01*
Y71415D01*
X53698D02*
X54701D01*
X53698Y71636D02*
Y71915D01*
Y71636D02*
X54701D01*
Y71915D01*
X53698D02*
X54701D01*
X53698Y72136D02*
Y72415D01*
Y72136D02*
X54701D01*
Y72415D01*
X53698D02*
X54701D01*
X53698Y72636D02*
Y72915D01*
Y72636D02*
X54701D01*
Y72915D01*
X53698D02*
X54701D01*
X53698Y73136D02*
Y73415D01*
Y73136D02*
X54701D01*
Y73415D01*
X53698D02*
X54701D01*
X52714Y74120D02*
X52994D01*
Y75123D01*
X52714D02*
X52994D01*
X52714Y74120D02*
Y75123D01*
X52214Y74120D02*
X52494D01*
Y75123D01*
X52214D02*
X52494D01*
X52214Y74120D02*
Y75123D01*
X51714Y74120D02*
X51994D01*
Y75123D01*
X51714D02*
X51994D01*
X51714Y74120D02*
Y75123D01*
X51214Y74120D02*
X51494D01*
Y75123D01*
X51214D02*
X51494D01*
X51214Y74120D02*
Y75123D01*
X50714Y74120D02*
X50994D01*
Y75123D01*
X50714D02*
X50994D01*
X50714Y74120D02*
Y75123D01*
X50214Y74120D02*
X50494D01*
Y75123D01*
X50214D02*
X50494D01*
X50214Y74120D02*
Y75123D01*
X49714Y74120D02*
X49994D01*
Y75123D01*
X49714D02*
X49994D01*
X49714Y74120D02*
Y75123D01*
X49214Y74120D02*
X49494D01*
Y75123D01*
X49214D02*
X49494D01*
X49214Y74120D02*
Y75123D01*
X48714Y74120D02*
X48994D01*
Y75123D01*
X48714D02*
X48994D01*
X48714Y74120D02*
Y75123D01*
X48214Y74120D02*
X48494D01*
Y75123D01*
X48214D02*
X48494D01*
X48214Y74120D02*
Y75123D01*
X47714Y74120D02*
X47994D01*
Y75123D01*
X47714D02*
X47994D01*
X47714Y74120D02*
Y75123D01*
X47214Y74120D02*
X47494D01*
Y75123D01*
X47214D02*
X47494D01*
X47214Y74120D02*
Y75123D01*
X46510Y68202D02*
X47780Y66932D01*
X46510D02*
X53698D01*
Y74120D01*
X46510D02*
X53698D01*
X46510Y66932D02*
Y74120D01*
X93996Y80460D02*
Y87648D01*
X101184D01*
Y80460D02*
Y87648D01*
X93996Y80460D02*
X101184D01*
X93996Y81730D02*
X95266Y80460D01*
X94700Y87648D02*
Y88651D01*
X94980D01*
Y87648D02*
Y88651D01*
X94700Y87648D02*
X94980D01*
X95200D02*
Y88651D01*
X95480D01*
Y87648D02*
Y88651D01*
X95200Y87648D02*
X95480D01*
X95700D02*
Y88651D01*
X95980D01*
Y87648D02*
Y88651D01*
X95700Y87648D02*
X95980D01*
X96200D02*
Y88651D01*
X96480D01*
Y87648D02*
Y88651D01*
X96200Y87648D02*
X96480D01*
X96700D02*
Y88651D01*
X96980D01*
Y87648D02*
Y88651D01*
X96700Y87648D02*
X96980D01*
X97200D02*
Y88651D01*
X97480D01*
Y87648D02*
Y88651D01*
X97200Y87648D02*
X97480D01*
X97700D02*
Y88651D01*
X97980D01*
Y87648D02*
Y88651D01*
X97700Y87648D02*
X97980D01*
X98200D02*
Y88651D01*
X98480D01*
Y87648D02*
Y88651D01*
X98200Y87648D02*
X98480D01*
X98700D02*
Y88651D01*
X98980D01*
Y87648D02*
Y88651D01*
X98700Y87648D02*
X98980D01*
X99200D02*
Y88651D01*
X99480D01*
Y87648D02*
Y88651D01*
X99200Y87648D02*
X99480D01*
X99700D02*
Y88651D01*
X99980D01*
Y87648D02*
Y88651D01*
X99700Y87648D02*
X99980D01*
X100200D02*
Y88651D01*
X100480D01*
Y87648D02*
Y88651D01*
X100200Y87648D02*
X100480D01*
X101184Y86943D02*
X102188D01*
Y86664D02*
Y86943D01*
X101184Y86664D02*
X102188D01*
X101184D02*
Y86943D01*
Y86443D02*
X102188D01*
Y86164D02*
Y86443D01*
X101184Y86164D02*
X102188D01*
X101184D02*
Y86443D01*
Y85943D02*
X102188D01*
Y85664D02*
Y85943D01*
X101184Y85664D02*
X102188D01*
X101184D02*
Y85943D01*
Y85443D02*
X102188D01*
Y85164D02*
Y85443D01*
X101184Y85164D02*
X102188D01*
X101184D02*
Y85443D01*
Y84943D02*
X102188D01*
Y84664D02*
Y84943D01*
X101184Y84664D02*
X102188D01*
X101184D02*
Y84943D01*
Y84443D02*
X102188D01*
Y84164D02*
Y84443D01*
X101184Y84164D02*
X102188D01*
X101184D02*
Y84443D01*
Y83943D02*
X102188D01*
Y83664D02*
Y83943D01*
X101184Y83664D02*
X102188D01*
X101184D02*
Y83943D01*
Y83443D02*
X102188D01*
Y83164D02*
Y83443D01*
X101184Y83164D02*
X102188D01*
X101184D02*
Y83443D01*
Y82943D02*
X102188D01*
Y82664D02*
Y82943D01*
X101184Y82664D02*
X102188D01*
X101184D02*
Y82943D01*
Y82443D02*
X102188D01*
Y82164D02*
Y82443D01*
X101184Y82164D02*
X102188D01*
X101184D02*
Y82443D01*
Y81943D02*
X102188D01*
Y81664D02*
Y81943D01*
X101184Y81664D02*
X102188D01*
X101184D02*
Y81943D01*
Y81443D02*
X102188D01*
Y81164D02*
Y81443D01*
X101184Y81164D02*
X102188D01*
X101184D02*
Y81443D01*
X100480Y79456D02*
Y80460D01*
X100200Y79456D02*
X100480D01*
X100200D02*
Y80460D01*
X100480D01*
X99980Y79456D02*
Y80460D01*
X99700Y79456D02*
X99980D01*
X99700D02*
Y80460D01*
X99980D01*
X99480Y79456D02*
Y80460D01*
X99200Y79456D02*
X99480D01*
X99200D02*
Y80460D01*
X99480D01*
X98980Y79456D02*
Y80460D01*
X98700Y79456D02*
X98980D01*
X98700D02*
Y80460D01*
X98980D01*
X98480Y79456D02*
Y80460D01*
X98200Y79456D02*
X98480D01*
X98200D02*
Y80460D01*
X98480D01*
X97980Y79456D02*
Y80460D01*
X97700Y79456D02*
X97980D01*
X97700D02*
Y80460D01*
X97980D01*
X97480Y79456D02*
Y80460D01*
X97200Y79456D02*
X97480D01*
X97200D02*
Y80460D01*
X97480D01*
X96980Y79456D02*
Y80460D01*
X96700Y79456D02*
X96980D01*
X96700D02*
Y80460D01*
X96980D01*
X96480Y79456D02*
Y80460D01*
X96200Y79456D02*
X96480D01*
X96200D02*
Y80460D01*
X96480D01*
X95980Y79456D02*
Y80460D01*
X95700Y79456D02*
X95980D01*
X95700D02*
Y80460D01*
X95980D01*
X95480Y79456D02*
Y80460D01*
X95200Y79456D02*
X95480D01*
X95200D02*
Y80460D01*
X95480D01*
X94980Y79456D02*
Y80460D01*
X94700Y79456D02*
X94980D01*
X94700D02*
Y80460D01*
X94980D01*
X92993Y81164D02*
X93996D01*
X92993D02*
Y81443D01*
X93996D01*
Y81164D02*
Y81443D01*
X92993Y81664D02*
X93996D01*
X92993D02*
Y81943D01*
X93996D01*
Y81664D02*
Y81943D01*
X92993Y82164D02*
X93996D01*
X92993D02*
Y82443D01*
X93996D01*
Y82164D02*
Y82443D01*
X92993Y82664D02*
X93996D01*
X92993D02*
Y82943D01*
X93996D01*
Y82664D02*
Y82943D01*
X92993Y83164D02*
X93996D01*
X92993D02*
Y83443D01*
X93996D01*
Y83164D02*
Y83443D01*
X92993Y83664D02*
X93996D01*
X92993D02*
Y83943D01*
X93996D01*
Y83664D02*
Y83943D01*
X92993Y84164D02*
X93996D01*
X92993D02*
Y84443D01*
X93996D01*
Y84164D02*
Y84443D01*
X92993Y84664D02*
X93996D01*
X92993D02*
Y84943D01*
X93996D01*
Y84664D02*
Y84943D01*
X92993Y85164D02*
X93996D01*
X92993D02*
Y85443D01*
X93996D01*
Y85164D02*
Y85443D01*
X92993Y85664D02*
X93996D01*
X92993D02*
Y85943D01*
X93996D01*
Y85664D02*
Y85943D01*
X92993Y86164D02*
X93996D01*
X92993D02*
Y86443D01*
X93996D01*
Y86164D02*
Y86443D01*
X92993Y86664D02*
X93996D01*
X92993D02*
Y86943D01*
X93996D01*
Y86664D02*
Y86943D01*
X46510Y86636D02*
Y86915D01*
X45507D02*
X46510D01*
X45507Y86636D02*
Y86915D01*
Y86636D02*
X46510D01*
Y86136D02*
Y86415D01*
X45507D02*
X46510D01*
X45507Y86136D02*
Y86415D01*
Y86136D02*
X46510D01*
Y85636D02*
Y85915D01*
X45507D02*
X46510D01*
X45507Y85636D02*
Y85915D01*
Y85636D02*
X46510D01*
Y85136D02*
Y85415D01*
X45507D02*
X46510D01*
X45507Y85136D02*
Y85415D01*
Y85136D02*
X46510D01*
Y84636D02*
Y84915D01*
X45507D02*
X46510D01*
X45507Y84636D02*
Y84915D01*
Y84636D02*
X46510D01*
Y84136D02*
Y84415D01*
X45507D02*
X46510D01*
X45507Y84136D02*
Y84415D01*
Y84136D02*
X46510D01*
Y83636D02*
Y83915D01*
X45507D02*
X46510D01*
X45507Y83636D02*
Y83915D01*
Y83636D02*
X46510D01*
Y83136D02*
Y83415D01*
X45507D02*
X46510D01*
X45507Y83136D02*
Y83415D01*
Y83136D02*
X46510D01*
Y82636D02*
Y82915D01*
X45507D02*
X46510D01*
X45507Y82636D02*
Y82915D01*
Y82636D02*
X46510D01*
Y82136D02*
Y82415D01*
X45507D02*
X46510D01*
X45507Y82136D02*
Y82415D01*
Y82136D02*
X46510D01*
Y81636D02*
Y81915D01*
X45507D02*
X46510D01*
X45507Y81636D02*
Y81915D01*
Y81636D02*
X46510D01*
Y81136D02*
Y81415D01*
X45507D02*
X46510D01*
X45507Y81136D02*
Y81415D01*
Y81136D02*
X46510D01*
X47214Y80432D02*
X47494D01*
X47214Y79428D02*
Y80432D01*
Y79428D02*
X47494D01*
Y80432D01*
X47714D02*
X47994D01*
X47714Y79428D02*
Y80432D01*
Y79428D02*
X47994D01*
Y80432D01*
X48214D02*
X48494D01*
X48214Y79428D02*
Y80432D01*
Y79428D02*
X48494D01*
Y80432D01*
X48714D02*
X48994D01*
X48714Y79428D02*
Y80432D01*
Y79428D02*
X48994D01*
Y80432D01*
X49214D02*
X49494D01*
X49214Y79428D02*
Y80432D01*
Y79428D02*
X49494D01*
Y80432D01*
X49714D02*
X49994D01*
X49714Y79428D02*
Y80432D01*
Y79428D02*
X49994D01*
Y80432D01*
X50214D02*
X50494D01*
X50214Y79428D02*
Y80432D01*
Y79428D02*
X50494D01*
Y80432D01*
X50714D02*
X50994D01*
X50714Y79428D02*
Y80432D01*
Y79428D02*
X50994D01*
Y80432D01*
X51214D02*
X51494D01*
X51214Y79428D02*
Y80432D01*
Y79428D02*
X51494D01*
Y80432D01*
X51714D02*
X51994D01*
X51714Y79428D02*
Y80432D01*
Y79428D02*
X51994D01*
Y80432D01*
X52214D02*
X52494D01*
X52214Y79428D02*
Y80432D01*
Y79428D02*
X52494D01*
Y80432D01*
X52714D02*
X52994D01*
X52714Y79428D02*
Y80432D01*
Y79428D02*
X52994D01*
Y80432D01*
X53698Y81136D02*
Y81415D01*
Y81136D02*
X54701D01*
Y81415D01*
X53698D02*
X54701D01*
X53698Y81636D02*
Y81915D01*
Y81636D02*
X54701D01*
Y81915D01*
X53698D02*
X54701D01*
X53698Y82136D02*
Y82415D01*
Y82136D02*
X54701D01*
Y82415D01*
X53698D02*
X54701D01*
X53698Y82636D02*
Y82915D01*
Y82636D02*
X54701D01*
Y82915D01*
X53698D02*
X54701D01*
X53698Y83136D02*
Y83415D01*
Y83136D02*
X54701D01*
Y83415D01*
X53698D02*
X54701D01*
X53698Y83636D02*
Y83915D01*
Y83636D02*
X54701D01*
Y83915D01*
X53698D02*
X54701D01*
X53698Y84136D02*
Y84415D01*
Y84136D02*
X54701D01*
Y84415D01*
X53698D02*
X54701D01*
X53698Y84636D02*
Y84915D01*
Y84636D02*
X54701D01*
Y84915D01*
X53698D02*
X54701D01*
X53698Y85136D02*
Y85415D01*
Y85136D02*
X54701D01*
Y85415D01*
X53698D02*
X54701D01*
X53698Y85636D02*
Y85915D01*
Y85636D02*
X54701D01*
Y85915D01*
X53698D02*
X54701D01*
X53698Y86136D02*
Y86415D01*
Y86136D02*
X54701D01*
Y86415D01*
X53698D02*
X54701D01*
X53698Y86636D02*
Y86915D01*
Y86636D02*
X54701D01*
Y86915D01*
X53698D02*
X54701D01*
X52714Y87620D02*
X52994D01*
Y88623D01*
X52714D02*
X52994D01*
X52714Y87620D02*
Y88623D01*
X52214Y87620D02*
X52494D01*
Y88623D01*
X52214D02*
X52494D01*
X52214Y87620D02*
Y88623D01*
X51714Y87620D02*
X51994D01*
Y88623D01*
X51714D02*
X51994D01*
X51714Y87620D02*
Y88623D01*
X51214Y87620D02*
X51494D01*
Y88623D01*
X51214D02*
X51494D01*
X51214Y87620D02*
Y88623D01*
X50714Y87620D02*
X50994D01*
Y88623D01*
X50714D02*
X50994D01*
X50714Y87620D02*
Y88623D01*
X50214Y87620D02*
X50494D01*
Y88623D01*
X50214D02*
X50494D01*
X50214Y87620D02*
Y88623D01*
X49714Y87620D02*
X49994D01*
Y88623D01*
X49714D02*
X49994D01*
X49714Y87620D02*
Y88623D01*
X49214Y87620D02*
X49494D01*
Y88623D01*
X49214D02*
X49494D01*
X49214Y87620D02*
Y88623D01*
X48714Y87620D02*
X48994D01*
Y88623D01*
X48714D02*
X48994D01*
X48714Y87620D02*
Y88623D01*
X48214Y87620D02*
X48494D01*
Y88623D01*
X48214D02*
X48494D01*
X48214Y87620D02*
Y88623D01*
X47714Y87620D02*
X47994D01*
Y88623D01*
X47714D02*
X47994D01*
X47714Y87620D02*
Y88623D01*
X47214Y87620D02*
X47494D01*
Y88623D01*
X47214D02*
X47494D01*
X47214Y87620D02*
Y88623D01*
X46510Y81702D02*
X47780Y80432D01*
X46510D02*
X53698D01*
Y87620D01*
X46510D02*
X53698D01*
X46510Y80432D02*
Y87620D01*
D159*
X22686Y119296D02*
G03*
X22686Y119296I-500J0D01*
G01*
X74243D02*
G03*
X74243Y119296I-500J0D01*
G01*
X90838D02*
G03*
X90838Y119296I-500J0D01*
G01*
X20449Y54223D02*
X21749D01*
X20449D02*
Y56223D01*
X21749D01*
Y54223D02*
Y56223D01*
X112196Y131772D02*
Y134772D01*
X110796Y131772D02*
Y134772D01*
Y131772D02*
X112196D01*
X110796Y134772D02*
X112196D01*
X117427Y136662D02*
Y138662D01*
X116127Y136662D02*
X117427D01*
X116127D02*
Y138662D01*
X117427D01*
X114402Y136751D02*
Y138751D01*
X113102Y136751D02*
X114402D01*
X113102D02*
Y138751D01*
X114402D01*
X111274Y136356D02*
Y142556D01*
X104274D02*
X111274D01*
X104274Y136356D02*
Y142556D01*
Y136356D02*
X111274D01*
X67249Y52024D02*
Y62484D01*
X64709Y52024D02*
X67249D01*
X64709D02*
Y62484D01*
X67249D01*
Y65550D02*
Y76010D01*
X64709Y65550D02*
X67249D01*
X64709D02*
Y76010D01*
X67249D01*
X114735Y52024D02*
Y62484D01*
X112195Y52024D02*
X114735D01*
X112195D02*
Y62484D01*
X114735D01*
Y65550D02*
Y76010D01*
X112195Y65550D02*
X114735D01*
X112195D02*
Y76010D01*
X114735D01*
X31534Y53339D02*
Y58419D01*
X26154D02*
X31534D01*
X26154Y53339D02*
Y58419D01*
Y53339D02*
X31534D01*
Y66865D02*
Y71945D01*
X26154D02*
X31534D01*
X26154Y66865D02*
Y71945D01*
Y66865D02*
X31534D01*
X79020Y53339D02*
Y58419D01*
X73640D02*
X79020D01*
X73640Y53339D02*
Y58419D01*
Y53339D02*
X79020D01*
Y66865D02*
Y71945D01*
X73640D02*
X79020D01*
X73640Y66865D02*
Y71945D01*
Y66865D02*
X79020D01*
X57191Y69286D02*
X59191D01*
X57191D02*
Y70586D01*
X59191D01*
Y69286D02*
Y70586D01*
X57191Y72236D02*
X59191D01*
X57191D02*
Y73536D01*
X59191D01*
Y72236D02*
Y73536D01*
X106677Y52846D02*
Y54146D01*
X104677D02*
X106677D01*
X104677Y52846D02*
Y54146D01*
Y52846D02*
X106677D01*
X104677Y55761D02*
X106677D01*
X104677D02*
Y57061D01*
X106677D01*
Y55761D02*
Y57061D01*
X104677Y58710D02*
X106677D01*
X104677D02*
Y60010D01*
X106677D01*
Y58710D02*
Y60010D01*
X104677Y69286D02*
X106677D01*
X104677D02*
Y70586D01*
X106677D01*
Y69286D02*
Y70586D01*
Y66372D02*
Y67672D01*
X104677D02*
X106677D01*
X104677Y66372D02*
Y67672D01*
Y66372D02*
X106677D01*
X104677Y72236D02*
X106677D01*
X104677D02*
Y73536D01*
X106677D01*
Y72236D02*
Y73536D01*
X59191Y52846D02*
Y54146D01*
X57191D02*
X59191D01*
X57191Y52846D02*
Y54146D01*
Y52846D02*
X59191D01*
X57191Y55761D02*
X59191D01*
X57191D02*
Y57061D01*
X59191D01*
Y55761D02*
Y57061D01*
Y66372D02*
Y67672D01*
X57191D02*
X59191D01*
X57191Y66372D02*
Y67672D01*
Y66372D02*
X59191D01*
X57191Y58710D02*
X59191D01*
X57191D02*
Y60010D01*
X59191D01*
Y58710D02*
Y60010D01*
X87770Y66643D02*
Y71643D01*
X83770Y66643D02*
Y71643D01*
Y66643D02*
X87770D01*
X83770Y71643D02*
X87770D01*
X40284Y53118D02*
Y58118D01*
X36284Y53118D02*
Y58118D01*
Y53118D02*
X40284D01*
X36284Y58118D02*
X40284D01*
Y66643D02*
Y71643D01*
X36284Y66643D02*
Y71643D01*
Y66643D02*
X40284D01*
X36284Y71643D02*
X40284D01*
X87770Y53118D02*
Y58118D01*
X83770Y53118D02*
Y58118D01*
Y53118D02*
X87770D01*
X83770Y58118D02*
X87770D01*
X108465Y107274D02*
X110465D01*
X108465Y105974D02*
Y107274D01*
Y105974D02*
X110465D01*
Y107274D01*
X115310Y105974D02*
Y107274D01*
X113310Y105974D02*
X115310D01*
X113310D02*
Y107274D01*
X115310D01*
X108465Y109268D02*
X110465D01*
X108465Y107968D02*
Y109268D01*
Y107968D02*
X110465D01*
Y109268D01*
X115310Y107968D02*
Y109268D01*
X113310Y107968D02*
X115310D01*
X113310D02*
Y109268D01*
X115310D01*
X108465Y105280D02*
X110465D01*
X108465Y103980D02*
Y105280D01*
Y103980D02*
X110465D01*
Y105280D01*
X115310Y103980D02*
Y105280D01*
X113310Y103980D02*
X115310D01*
X113310D02*
Y105280D01*
X115310D01*
X98592Y94874D02*
Y96174D01*
Y94874D02*
X100592D01*
Y96174D01*
X98592D02*
X100592D01*
X102309Y94874D02*
Y96174D01*
Y94874D02*
X104309D01*
Y96174D01*
X102309D02*
X104309D01*
X102309Y92816D02*
Y94116D01*
Y92816D02*
X104309D01*
Y94116D01*
X102309D02*
X104309D01*
X98592Y92816D02*
Y94116D01*
Y92816D02*
X100592D01*
Y94116D01*
X98592D02*
X100592D01*
X27886Y118396D02*
Y122896D01*
X21286Y118396D02*
Y122896D01*
X27886D01*
X21286Y118396D02*
X27886D01*
X72843D02*
X79443D01*
X72843Y122896D02*
X79443D01*
X72843Y118396D02*
Y122896D01*
X79443Y118396D02*
Y122896D01*
X89438Y118396D02*
X96038D01*
X89438Y122896D02*
X96038D01*
X89438Y118396D02*
Y122896D01*
X96038Y118396D02*
Y122896D01*
X9039Y136074D02*
Y142274D01*
X2039D02*
X9039D01*
X2039Y136074D02*
Y142274D01*
Y136074D02*
X9039D01*
X108749Y90983D02*
X116242D01*
X108749Y98273D02*
X116242D01*
Y90983D02*
Y98273D01*
X108749Y90983D02*
Y98273D01*
X19869Y117696D02*
Y119696D01*
X18569Y117696D02*
X19869D01*
X18569D02*
Y119696D01*
X19869D01*
X40391Y116419D02*
Y119469D01*
X38641Y116419D02*
Y119469D01*
Y116419D02*
X40391D01*
X38641Y119469D02*
X40391D01*
X18569Y122360D02*
Y124360D01*
X19869D01*
Y122360D02*
Y124360D01*
X18569Y122360D02*
X19869D01*
X57282Y116419D02*
Y119469D01*
X55532Y116419D02*
Y119469D01*
Y116419D02*
X57282D01*
X55532Y119469D02*
X57282D01*
X70125Y119696D02*
X71425D01*
X70125Y117696D02*
Y119696D01*
Y117696D02*
X71425D01*
Y119696D01*
X88020Y117696D02*
Y119696D01*
X86720Y117696D02*
X88020D01*
X86720D02*
Y119696D01*
X88020D01*
X70125Y122360D02*
X71425D01*
Y124360D01*
X70125D02*
X71425D01*
X70125Y122360D02*
Y124360D01*
X86720Y122360D02*
Y124360D01*
X88020D01*
Y122360D02*
Y124360D01*
X86720Y122360D02*
X88020D01*
X8538Y134514D02*
X9938D01*
X8538Y131514D02*
X9938D01*
X8538D02*
Y134514D01*
X9938Y131514D02*
Y134514D01*
X42048Y128685D02*
X45148D01*
X42048Y125585D02*
X45148D01*
Y128685D01*
X42048Y125585D02*
Y128685D01*
X58939Y125585D02*
Y128685D01*
X62039Y125585D02*
Y128685D01*
X58939Y125585D02*
X62039D01*
X58939Y128685D02*
X62039D01*
X48804Y135947D02*
Y142147D01*
X41804D02*
X48804D01*
X41804Y135947D02*
Y142147D01*
Y135947D02*
X48804D01*
X58695D02*
X65695D01*
X58695D02*
Y142147D01*
X65695D01*
Y135947D02*
Y142147D01*
X13892Y138380D02*
X15192D01*
X13892Y136380D02*
Y138380D01*
Y136380D02*
X15192D01*
Y138380D01*
X10867Y138470D02*
X12167D01*
X10867Y136470D02*
Y138470D01*
Y136470D02*
X12167D01*
Y138470D01*
X48400Y20346D02*
X55400D01*
Y14146D02*
Y20346D01*
X48400Y14146D02*
X55400D01*
X48400D02*
Y20346D01*
X1781Y27764D02*
X13781D01*
Y12264D02*
Y27764D01*
X1781Y12264D02*
X13781D01*
X1781D02*
Y27764D01*
X42247Y18040D02*
Y20040D01*
X43547D01*
Y18040D02*
Y20040D01*
X42247Y18040D02*
X43547D01*
X7335Y32887D02*
X8635D01*
Y34887D01*
X7335D02*
X8635D01*
X7335Y32887D02*
Y34887D01*
X71016Y14146D02*
Y20346D01*
Y14146D02*
X78016D01*
Y20346D01*
X71016D02*
X78016D01*
X64863Y18040D02*
X66163D01*
Y20040D01*
X64863D02*
X66163D01*
X64863Y18040D02*
Y20040D01*
X70117Y21906D02*
X71517D01*
X70117Y24906D02*
X71517D01*
Y21906D02*
Y24906D01*
X70117Y21906D02*
Y24906D01*
X93633Y14147D02*
Y20347D01*
Y14147D02*
X100633D01*
Y20347D01*
X93633D02*
X100633D01*
X92734Y21907D02*
X94134D01*
X92734Y24907D02*
X94134D01*
Y21907D02*
Y24907D01*
X92734Y21907D02*
Y24907D01*
X67888Y17950D02*
X69188D01*
Y19950D01*
X67888D02*
X69188D01*
X67888Y17950D02*
Y19950D01*
X90505Y17951D02*
X91805D01*
Y19951D01*
X90505D02*
X91805D01*
X90505Y17951D02*
Y19951D01*
X87480Y18041D02*
X88780D01*
Y20041D01*
X87480D02*
X88780D01*
X87480Y18041D02*
Y20041D01*
X7081Y46963D02*
X8381D01*
X7081Y44963D02*
Y46963D01*
Y44963D02*
X8381D01*
Y46963D01*
X47501Y21906D02*
X48901D01*
X47501Y24906D02*
X48901D01*
Y21906D02*
Y24906D01*
X47501Y21906D02*
Y24906D01*
X24885Y21906D02*
Y24906D01*
X26285Y21906D02*
Y24906D01*
X24885D02*
X26285D01*
X24885Y21906D02*
X26285D01*
X25784Y14146D02*
Y20346D01*
Y14146D02*
X32784D01*
Y20346D01*
X25784D02*
X32784D01*
X22656Y17950D02*
Y19950D01*
X23956D01*
Y17950D02*
Y19950D01*
X22656Y17950D02*
X23956D01*
X45272D02*
Y19950D01*
X46572D01*
Y17950D02*
Y19950D01*
X45272Y17950D02*
X46572D01*
X19631Y18040D02*
Y20040D01*
X20931D01*
Y18040D02*
Y20040D01*
X19631Y18040D02*
X20931D01*
X83770Y85171D02*
X87770D01*
X83770Y80171D02*
X87770D01*
X83770D02*
Y85171D01*
X87770Y80171D02*
Y85171D01*
X36284Y85143D02*
X40284D01*
X36284Y80143D02*
X40284D01*
X36284D02*
Y85143D01*
X40284Y80143D02*
Y85143D01*
X73640Y80393D02*
X79020D01*
X73640D02*
Y85473D01*
X79020D01*
Y80393D02*
Y85473D01*
X106677Y85764D02*
Y87064D01*
X104677D02*
X106677D01*
X104677Y85764D02*
Y87064D01*
Y85764D02*
X106677D01*
Y82814D02*
Y84114D01*
X104677D02*
X106677D01*
X104677Y82814D02*
Y84114D01*
Y82814D02*
X106677D01*
X104677Y79900D02*
X106677D01*
X104677D02*
Y81200D01*
X106677D01*
Y79900D02*
Y81200D01*
X112195Y89538D02*
X114735D01*
X112195Y79078D02*
Y89538D01*
Y79078D02*
X114735D01*
Y89538D01*
X64709Y89510D02*
X67249D01*
X64709Y79050D02*
Y89510D01*
Y79050D02*
X67249D01*
Y89510D01*
X57191Y79872D02*
X59191D01*
X57191D02*
Y81172D01*
X59191D01*
Y79872D02*
Y81172D01*
Y85736D02*
Y87036D01*
X57191D02*
X59191D01*
X57191Y85736D02*
Y87036D01*
Y85736D02*
X59191D01*
Y82786D02*
Y84086D01*
X57191D02*
X59191D01*
X57191Y82786D02*
Y84086D01*
Y82786D02*
X59191D01*
X26154Y80365D02*
X31534D01*
X26154D02*
Y85445D01*
X31534D01*
Y80365D02*
Y85445D01*
D161*
X98225Y68303D02*
X96956D01*
Y68938D01*
X97167Y69150D01*
X97590D01*
X97802Y68938D01*
Y68303D01*
Y68726D02*
X98225Y69150D01*
Y70208D02*
Y69784D01*
X98014Y69573D01*
X97590D01*
X97379Y69784D01*
Y70208D01*
X97590Y70419D01*
X97802D01*
Y69573D01*
X98225Y71054D02*
X97167D01*
X97590D01*
Y70842D01*
Y71266D01*
Y71054D01*
X97167D01*
X96956Y71266D01*
Y71900D02*
X98225D01*
Y72535D01*
X98014Y72747D01*
X97167D01*
X96956Y72535D01*
Y71900D01*
X98225Y73805D02*
Y73382D01*
X98014Y73170D01*
X97590D01*
X97379Y73382D01*
Y73805D01*
X97590Y74016D01*
X97802D01*
Y73170D01*
X98225Y74440D02*
Y75074D01*
X98014Y75286D01*
X97802Y75074D01*
Y74651D01*
X97590Y74440D01*
X97379Y74651D01*
Y75286D01*
X98225Y76556D02*
Y75709D01*
X97379Y76556D01*
X97167D01*
X96956Y76344D01*
Y75921D01*
X97167Y75709D01*
X94167Y66995D02*
X95014Y67841D01*
Y66995D02*
X94167Y67841D01*
X94590Y66995D02*
Y67841D01*
X95014Y67418D02*
X94167D01*
Y53470D02*
X95014Y54316D01*
Y53470D02*
X94167Y54316D01*
X94590Y53470D02*
Y54316D01*
X95014Y53893D02*
X94167D01*
X98225Y54778D02*
X96956D01*
Y55413D01*
X97167Y55624D01*
X97590D01*
X97802Y55413D01*
Y54778D01*
Y55201D02*
X98225Y55624D01*
Y56682D02*
Y56259D01*
X98014Y56047D01*
X97590D01*
X97379Y56259D01*
Y56682D01*
X97590Y56894D01*
X97802D01*
Y56047D01*
X98225Y57529D02*
X97167D01*
X97590D01*
Y57317D01*
Y57740D01*
Y57529D01*
X97167D01*
X96956Y57740D01*
Y58375D02*
X98225D01*
Y59010D01*
X98014Y59221D01*
X97167D01*
X96956Y59010D01*
Y58375D01*
X98225Y60279D02*
Y59856D01*
X98014Y59645D01*
X97590D01*
X97379Y59856D01*
Y60279D01*
X97590Y60491D01*
X97802D01*
Y59645D01*
X98225Y60914D02*
Y61549D01*
X98014Y61761D01*
X97802Y61549D01*
Y61126D01*
X97590Y60914D01*
X97379Y61126D01*
Y61761D01*
X98225Y63030D02*
Y62184D01*
X97379Y63030D01*
X97167D01*
X96956Y62819D01*
Y62395D01*
X97167Y62184D01*
X50739Y54778D02*
X49469D01*
Y55413D01*
X49681Y55624D01*
X50104D01*
X50316Y55413D01*
Y54778D01*
Y55201D02*
X50739Y55624D01*
Y56682D02*
Y56259D01*
X50527Y56047D01*
X50104D01*
X49893Y56259D01*
Y56682D01*
X50104Y56894D01*
X50316D01*
Y56047D01*
X50739Y57529D02*
X49681D01*
X50104D01*
Y57317D01*
Y57740D01*
Y57529D01*
X49681D01*
X49469Y57740D01*
Y58375D02*
X50739D01*
Y59010D01*
X50527Y59221D01*
X49681D01*
X49469Y59010D01*
Y58375D01*
X50739Y60279D02*
Y59856D01*
X50527Y59645D01*
X50104D01*
X49893Y59856D01*
Y60279D01*
X50104Y60491D01*
X50316D01*
Y59645D01*
X50739Y60914D02*
Y61549D01*
X50527Y61761D01*
X50316Y61549D01*
Y61126D01*
X50104Y60914D01*
X49893Y61126D01*
Y61761D01*
X50739Y63030D02*
Y62184D01*
X49893Y63030D01*
X49681D01*
X49469Y62819D01*
Y62395D01*
X49681Y62184D01*
X46681Y53470D02*
X47527Y54316D01*
Y53470D02*
X46681Y54316D01*
X47104Y53470D02*
Y54316D01*
X47527Y53893D02*
X46681D01*
X50739Y68303D02*
X49469D01*
Y68938D01*
X49681Y69150D01*
X50104D01*
X50316Y68938D01*
Y68303D01*
Y68726D02*
X50739Y69150D01*
Y70208D02*
Y69784D01*
X50527Y69573D01*
X50104D01*
X49893Y69784D01*
Y70208D01*
X50104Y70419D01*
X50316D01*
Y69573D01*
X50739Y71054D02*
X49681D01*
X50104D01*
Y70842D01*
Y71266D01*
Y71054D01*
X49681D01*
X49469Y71266D01*
Y71900D02*
X50739D01*
Y72535D01*
X50527Y72747D01*
X49681D01*
X49469Y72535D01*
Y71900D01*
X50739Y73805D02*
Y73382D01*
X50527Y73170D01*
X50104D01*
X49893Y73382D01*
Y73805D01*
X50104Y74016D01*
X50316D01*
Y73170D01*
X50739Y74440D02*
Y75074D01*
X50527Y75286D01*
X50316Y75074D01*
Y74651D01*
X50104Y74440D01*
X49893Y74651D01*
Y75286D01*
X50739Y76556D02*
Y75709D01*
X49893Y76556D01*
X49681D01*
X49469Y76344D01*
Y75921D01*
X49681Y75709D01*
X46681Y66995D02*
X47527Y67841D01*
Y66995D02*
X46681Y67841D01*
X47104Y66995D02*
Y67841D01*
X47527Y67418D02*
X46681D01*
X94167Y80523D02*
X95014Y81370D01*
Y80523D02*
X94167Y81370D01*
X94590Y80523D02*
Y81370D01*
X95014Y80946D02*
X94167D01*
X98225Y81831D02*
X96956D01*
Y82466D01*
X97167Y82678D01*
X97590D01*
X97802Y82466D01*
Y81831D01*
Y82254D02*
X98225Y82678D01*
Y83736D02*
Y83312D01*
X98014Y83101D01*
X97590D01*
X97379Y83312D01*
Y83736D01*
X97590Y83947D01*
X97802D01*
Y83101D01*
X98225Y84582D02*
X97167D01*
X97590D01*
Y84370D01*
Y84794D01*
Y84582D01*
X97167D01*
X96956Y84794D01*
Y85428D02*
X98225D01*
Y86063D01*
X98014Y86275D01*
X97167D01*
X96956Y86063D01*
Y85428D01*
X98225Y87333D02*
Y86910D01*
X98014Y86698D01*
X97590D01*
X97379Y86910D01*
Y87333D01*
X97590Y87544D01*
X97802D01*
Y86698D01*
X98225Y87968D02*
Y88602D01*
X98014Y88814D01*
X97802Y88602D01*
Y88179D01*
X97590Y87968D01*
X97379Y88179D01*
Y88814D01*
X98225Y90084D02*
Y89237D01*
X97379Y90084D01*
X97167D01*
X96956Y89872D01*
Y89449D01*
X97167Y89237D01*
X46681Y80495D02*
X47527Y81341D01*
Y80495D02*
X46681Y81341D01*
X47104Y80495D02*
Y81341D01*
X47527Y80918D02*
X46681D01*
X50739Y81803D02*
X49469D01*
Y82438D01*
X49681Y82650D01*
X50104D01*
X50316Y82438D01*
Y81803D01*
Y82226D02*
X50739Y82650D01*
Y83708D02*
Y83284D01*
X50527Y83073D01*
X50104D01*
X49893Y83284D01*
Y83708D01*
X50104Y83919D01*
X50316D01*
Y83073D01*
X50739Y84554D02*
X49681D01*
X50104D01*
Y84342D01*
Y84766D01*
Y84554D01*
X49681D01*
X49469Y84766D01*
Y85400D02*
X50739D01*
Y86035D01*
X50527Y86247D01*
X49681D01*
X49469Y86035D01*
Y85400D01*
X50739Y87305D02*
Y86882D01*
X50527Y86670D01*
X50104D01*
X49893Y86882D01*
Y87305D01*
X50104Y87516D01*
X50316D01*
Y86670D01*
X50739Y87940D02*
Y88574D01*
X50527Y88786D01*
X50316Y88574D01*
Y88151D01*
X50104Y87940D01*
X49893Y88151D01*
Y88786D01*
X50739Y90056D02*
Y89209D01*
X49893Y90056D01*
X49681D01*
X49469Y89844D01*
Y89421D01*
X49681Y89209D01*
D162*
X3931Y24764D02*
Y24425D01*
Y24594D01*
X4946D01*
X4777Y24764D01*
X9181Y13706D02*
X10196D01*
X9688Y14214D01*
Y13536D01*
X9181Y20537D02*
Y21214D01*
X9858Y20537D01*
X10027D01*
X10196Y20706D01*
Y21044D01*
X10027Y21214D01*
M02*
