G04*
G04 #@! TF.GenerationSoftware,Altium Limited,Altium Designer,25.8.1 (18)*
G04*
G04 Layer_Color=32768*
%FSLAX43Y43*%
%MOMM*%
G71*
G04*
G04 #@! TF.SameCoordinates,4C837565-1E1F-4476-BEE8-5968ED86CB82*
G04*
G04*
G04 #@! TF.FilePolarity,Positive*
G04*
G01*
G75*
%ADD14C,0.152*%
%ADD158C,0.050*%
%ADD159C,0.100*%
%ADD163C,0.051*%
%ADD164C,0.600*%
G36*
X53599Y137585D02*
X53401D01*
Y138377D01*
X53599D01*
Y137585D01*
D02*
G37*
G36*
X37397D02*
X37199D01*
Y138377D01*
X37397D01*
Y137585D01*
D02*
G37*
G36*
X100196Y134051D02*
X97696D01*
Y137851D01*
X100196D01*
Y134051D01*
D02*
G37*
G36*
X88896D02*
X86396D01*
Y137851D01*
X88896D01*
Y134051D01*
D02*
G37*
G36*
X83601D02*
X81101D01*
Y137851D01*
X83601D01*
Y134051D01*
D02*
G37*
G36*
X72301D02*
X69801D01*
Y137851D01*
X72301D01*
Y134051D01*
D02*
G37*
G36*
X32045D02*
X29545D01*
Y137851D01*
X32045D01*
Y134051D01*
D02*
G37*
G36*
X20745D02*
X18245D01*
Y137851D01*
X20745D01*
Y134051D01*
D02*
G37*
G36*
X53599Y132668D02*
X54160D01*
Y132470D01*
X53599D01*
Y132173D01*
X53401D01*
Y132470D01*
X52840D01*
Y132668D01*
X53401D01*
Y132965D01*
X53599D01*
Y132668D01*
D02*
G37*
G36*
X37397D02*
X37958D01*
Y132470D01*
X37397D01*
Y132173D01*
X37199D01*
Y132470D01*
X36638D01*
Y132668D01*
X37199D01*
Y132965D01*
X37397D01*
Y132668D01*
D02*
G37*
G36*
X107686Y121108D02*
X104936D01*
Y126308D01*
X107686D01*
Y121108D01*
D02*
G37*
G36*
X114936Y121168D02*
X114961D01*
X114996Y121132D01*
Y121108D01*
Y121083D01*
X114961Y121048D01*
X114912D01*
X114876Y121083D01*
Y121108D01*
X112186D01*
Y126308D01*
X114936D01*
Y121168D01*
D02*
G37*
G36*
X5451Y120826D02*
X2701D01*
Y126026D01*
X5451D01*
Y120826D01*
D02*
G37*
G36*
X12701Y120886D02*
X12726D01*
X12761Y120851D01*
Y120826D01*
Y120802D01*
X12726Y120766D01*
X12677D01*
X12641Y120802D01*
Y120826D01*
X9951D01*
Y126026D01*
X12701D01*
Y120886D01*
D02*
G37*
G36*
X106932Y119785D02*
X107493D01*
Y119587D01*
X106932D01*
Y119290D01*
X106734D01*
Y119587D01*
X106173D01*
Y119785D01*
X106734D01*
Y120082D01*
X106932D01*
Y119785D01*
D02*
G37*
G36*
X114263Y119782D02*
X114824D01*
Y119584D01*
X114263D01*
Y119287D01*
X114065D01*
Y119584D01*
X113504D01*
Y119782D01*
X114065D01*
Y120079D01*
X114263D01*
Y119782D01*
D02*
G37*
G36*
X4697Y119503D02*
X5258D01*
Y119305D01*
X4697D01*
Y119008D01*
X4499D01*
Y119305D01*
X3938D01*
Y119503D01*
X4499D01*
Y119800D01*
X4697D01*
Y119503D01*
D02*
G37*
G36*
X12028Y119500D02*
X12589D01*
Y119302D01*
X12028D01*
Y119005D01*
X11830D01*
Y119302D01*
X11269D01*
Y119500D01*
X11830D01*
Y119797D01*
X12028D01*
Y119500D01*
D02*
G37*
G36*
X106932Y113878D02*
X106734D01*
Y114670D01*
X106932D01*
Y113878D01*
D02*
G37*
G36*
X114263Y113875D02*
X114065D01*
Y114667D01*
X114263D01*
Y113875D01*
D02*
G37*
G36*
X4697Y113596D02*
X4499D01*
Y114388D01*
X4697D01*
Y113596D01*
D02*
G37*
G36*
X12028Y113593D02*
X11830D01*
Y114385D01*
X12028D01*
Y113593D01*
D02*
G37*
G36*
X86493Y113595D02*
X86509Y113576D01*
X86524Y113557D01*
X86520Y113507D01*
X86482Y113475D01*
X86433Y113480D01*
X86417Y113499D01*
X86401Y113518D01*
X86405Y113567D01*
X86443Y113599D01*
X86493Y113595D01*
D02*
G37*
G36*
X67734D02*
X67750Y113576D01*
X67766Y113557D01*
X67762Y113507D01*
X67724Y113475D01*
X67674Y113480D01*
X67658Y113499D01*
X67642Y113518D01*
X67646Y113567D01*
X67684Y113599D01*
X67734Y113595D01*
D02*
G37*
G36*
X48975D02*
X48991Y113576D01*
X49007Y113557D01*
X49003Y113507D01*
X48965Y113475D01*
X48915Y113480D01*
X48899Y113499D01*
X48883Y113518D01*
X48888Y113567D01*
X48926Y113599D01*
X48975Y113595D01*
D02*
G37*
G36*
X30217D02*
X30233Y113576D01*
X30249Y113557D01*
X30244Y113507D01*
X30206Y113475D01*
X30157Y113480D01*
X30141Y113499D01*
X30125Y113518D01*
X30129Y113567D01*
X30167Y113599D01*
X30217Y113595D01*
D02*
G37*
G36*
X11458D02*
X11474Y113576D01*
X11490Y113557D01*
X11486Y113507D01*
X11448Y113475D01*
X11398Y113480D01*
X11382Y113499D01*
X11366Y113518D01*
X11371Y113567D01*
X11409Y113599D01*
X11458Y113595D01*
D02*
G37*
G36*
X7642Y85958D02*
Y85908D01*
X7607Y85873D01*
X7557D01*
X7522Y85908D01*
Y85958D01*
X7557Y85993D01*
X7607D01*
X7642Y85958D01*
D02*
G37*
G36*
X7082Y85633D02*
X5982D01*
Y85933D01*
X7082D01*
Y85633D01*
D02*
G37*
G36*
X2752D02*
X1952D01*
Y85933D01*
X2752D01*
Y85633D01*
D02*
G37*
G36*
X7582Y84668D02*
Y84468D01*
X6882D01*
Y84668D01*
Y84868D01*
X7582D01*
Y84668D01*
D02*
G37*
G36*
X7582Y83868D02*
Y83668D01*
X6882D01*
Y83868D01*
Y84068D01*
X7582D01*
Y83868D01*
D02*
G37*
G36*
X7582Y83108D02*
X6882D01*
Y83308D01*
X7582D01*
Y83108D01*
D02*
G37*
G36*
Y82608D02*
X6882D01*
Y82808D01*
X7582D01*
Y82608D01*
D02*
G37*
G36*
Y82108D02*
X6882D01*
Y82308D01*
X7582D01*
Y82108D01*
D02*
G37*
G36*
Y81608D02*
X6882D01*
Y81808D01*
X7582D01*
Y81608D01*
D02*
G37*
G36*
Y81108D02*
X6882D01*
Y81308D01*
X7582D01*
Y81108D01*
D02*
G37*
G36*
Y80608D02*
X6882D01*
Y80808D01*
X7582D01*
Y80608D01*
D02*
G37*
G36*
Y80108D02*
X6882D01*
Y80308D01*
X7582D01*
Y80108D01*
D02*
G37*
G36*
Y79608D02*
X6882D01*
Y79808D01*
X7582D01*
Y79608D01*
D02*
G37*
G36*
X7582Y79048D02*
Y78848D01*
X6882D01*
Y79048D01*
Y79248D01*
X7582D01*
Y79048D01*
D02*
G37*
G36*
X100734Y87902D02*
X101438D01*
Y87197D01*
X102797D01*
Y80910D01*
X101438D01*
Y80206D01*
X100734D01*
Y78847D01*
X94446D01*
Y80206D01*
X93742D01*
Y80910D01*
X92383D01*
Y87197D01*
X93742D01*
Y87902D01*
X94446D01*
Y89261D01*
X100734D01*
Y87902D01*
D02*
G37*
G36*
X53248Y87874D02*
X53952D01*
Y87169D01*
X55311D01*
Y80882D01*
X53952D01*
Y80178D01*
X53248D01*
Y78819D01*
X46960D01*
Y80178D01*
X46256D01*
Y80882D01*
X44897D01*
Y87169D01*
X46256D01*
Y87874D01*
X46960D01*
Y89233D01*
X53248D01*
Y87874D01*
D02*
G37*
G36*
X7582Y78248D02*
Y78048D01*
X6882D01*
Y78248D01*
Y78448D01*
X7582D01*
Y78248D01*
D02*
G37*
G36*
X7082Y76983D02*
X5982D01*
Y77283D01*
X7082D01*
Y76983D01*
D02*
G37*
G36*
X2752D02*
X1952D01*
Y77283D01*
X2752D01*
Y76983D01*
D02*
G37*
G36*
X20731Y74716D02*
X19831D01*
Y75516D01*
X20731D01*
Y74716D01*
D02*
G37*
G36*
X18631D02*
X17731D01*
Y75516D01*
X18631D01*
Y74716D01*
D02*
G37*
G36*
X20731Y73216D02*
X19831D01*
Y74016D01*
X20731D01*
Y73216D01*
D02*
G37*
G36*
X18631D02*
X17731D01*
Y74016D01*
X18631D01*
Y73216D01*
D02*
G37*
G36*
X20891Y73141D02*
Y73116D01*
Y73092D01*
X20856Y73056D01*
X20806D01*
X20771Y73092D01*
Y73116D01*
Y73141D01*
X20806Y73176D01*
X20856D01*
X20891Y73141D01*
D02*
G37*
G36*
X100734Y74374D02*
X101438D01*
Y73669D01*
X102797D01*
Y67382D01*
X101438D01*
Y66678D01*
X100734D01*
Y65319D01*
X94446D01*
Y66678D01*
X93742D01*
Y67382D01*
X92383D01*
Y73669D01*
X93742D01*
Y74374D01*
X94446D01*
Y75733D01*
X100734D01*
Y74374D01*
D02*
G37*
G36*
X53248D02*
X53952D01*
Y73669D01*
X55311D01*
Y67382D01*
X53952D01*
Y66678D01*
X53248D01*
Y65319D01*
X46960D01*
Y66678D01*
X46256D01*
Y67382D01*
X44897D01*
Y73669D01*
X46256D01*
Y74374D01*
X46960D01*
Y75733D01*
X53248D01*
Y74374D01*
D02*
G37*
G36*
X100734Y60848D02*
X101438D01*
Y60144D01*
X102797D01*
Y53857D01*
X101438D01*
Y53152D01*
X100734D01*
Y51793D01*
X94446D01*
Y53152D01*
X93742D01*
Y53857D01*
X92383D01*
Y60144D01*
X93742D01*
Y60848D01*
X94446D01*
Y62207D01*
X100734D01*
Y60848D01*
D02*
G37*
G36*
X53248D02*
X53952D01*
Y60144D01*
X55311D01*
Y53857D01*
X53952D01*
Y53152D01*
X53248D01*
Y51793D01*
X46960D01*
Y53152D01*
X46256D01*
Y53857D01*
X44897D01*
Y60144D01*
X46256D01*
Y60848D01*
X46960D01*
Y62207D01*
X53248D01*
Y60848D01*
D02*
G37*
G36*
X90842Y42036D02*
X90644D01*
Y42828D01*
X90842D01*
Y42036D01*
D02*
G37*
G36*
X68225Y42035D02*
X68027D01*
Y42827D01*
X68225D01*
Y42035D01*
D02*
G37*
G36*
X45609D02*
X45411D01*
Y42827D01*
X45609D01*
Y42035D01*
D02*
G37*
G36*
X22993D02*
X22795D01*
Y42827D01*
X22993D01*
Y42035D01*
D02*
G37*
G36*
X98173Y42033D02*
X97975D01*
Y42825D01*
X98173D01*
Y42033D01*
D02*
G37*
G36*
X75557Y42032D02*
X75359D01*
Y42824D01*
X75557D01*
Y42032D01*
D02*
G37*
G36*
X52941D02*
X52743D01*
Y42824D01*
X52941D01*
Y42032D01*
D02*
G37*
G36*
X30325D02*
X30127D01*
Y42824D01*
X30325D01*
Y42032D01*
D02*
G37*
G36*
X90842Y37119D02*
X91403D01*
Y36921D01*
X90842D01*
Y36624D01*
X90644D01*
Y36921D01*
X90083D01*
Y37119D01*
X90644D01*
Y37416D01*
X90842D01*
Y37119D01*
D02*
G37*
G36*
X68225Y37118D02*
X68786D01*
Y36920D01*
X68225D01*
Y36623D01*
X68027D01*
Y36920D01*
X67466D01*
Y37118D01*
X68027D01*
Y37415D01*
X68225D01*
Y37118D01*
D02*
G37*
G36*
X45609D02*
X46170D01*
Y36920D01*
X45609D01*
Y36623D01*
X45411D01*
Y36920D01*
X44850D01*
Y37118D01*
X45411D01*
Y37415D01*
X45609D01*
Y37118D01*
D02*
G37*
G36*
X22993D02*
X23554D01*
Y36920D01*
X22993D01*
Y36623D01*
X22795D01*
Y36920D01*
X22234D01*
Y37118D01*
X22795D01*
Y37415D01*
X22993D01*
Y37118D01*
D02*
G37*
G36*
X98173Y37116D02*
X98734D01*
Y36918D01*
X98173D01*
Y36621D01*
X97975D01*
Y36918D01*
X97414D01*
Y37116D01*
X97975D01*
Y37413D01*
X98173D01*
Y37116D01*
D02*
G37*
G36*
X75557Y37115D02*
X76118D01*
Y36917D01*
X75557D01*
Y36620D01*
X75359D01*
Y36917D01*
X74798D01*
Y37115D01*
X75359D01*
Y37412D01*
X75557D01*
Y37115D01*
D02*
G37*
G36*
X52941D02*
X53502D01*
Y36917D01*
X52941D01*
Y36620D01*
X52743D01*
Y36917D01*
X52182D01*
Y37115D01*
X52743D01*
Y37412D01*
X52941D01*
Y37115D01*
D02*
G37*
G36*
X30325D02*
X30886D01*
Y36917D01*
X30325D01*
Y36620D01*
X30127D01*
Y36917D01*
X29566D01*
Y37115D01*
X30127D01*
Y37412D01*
X30325D01*
Y37115D01*
D02*
G37*
G36*
X99971Y30395D02*
X97221D01*
Y35595D01*
X99971D01*
Y30395D01*
D02*
G37*
G36*
X90031Y35619D02*
Y35595D01*
X92721D01*
Y30395D01*
X89971D01*
Y35535D01*
X89946D01*
X89911Y35570D01*
Y35595D01*
Y35619D01*
X89946Y35655D01*
X89995D01*
X90031Y35619D01*
D02*
G37*
G36*
X77354Y30394D02*
X74604D01*
Y35594D01*
X77354D01*
Y30394D01*
D02*
G37*
G36*
X67414Y35619D02*
Y35594D01*
X70104D01*
Y30394D01*
X67354D01*
Y35534D01*
X67329D01*
X67294Y35569D01*
Y35594D01*
Y35619D01*
X67329Y35654D01*
X67379D01*
X67414Y35619D01*
D02*
G37*
G36*
X54738Y30394D02*
X51988D01*
Y35594D01*
X54738D01*
Y30394D01*
D02*
G37*
G36*
X44798Y35619D02*
Y35594D01*
X47488D01*
Y30394D01*
X44738D01*
Y35534D01*
X44713D01*
X44678Y35569D01*
Y35594D01*
Y35619D01*
X44713Y35654D01*
X44763D01*
X44798Y35619D01*
D02*
G37*
G36*
X32122Y30394D02*
X29372D01*
Y35594D01*
X32122D01*
Y30394D01*
D02*
G37*
G36*
X22182Y35619D02*
Y35594D01*
X24872D01*
Y30394D01*
X22122D01*
Y35534D01*
X22097D01*
X22062Y35569D01*
Y35594D01*
Y35619D01*
X22097Y35654D01*
X22147D01*
X22182Y35619D01*
D02*
G37*
G36*
X14081Y11964D02*
X1481D01*
Y28064D01*
X14081D01*
Y11964D01*
D02*
G37*
D14*
X101438Y73669D02*
Y74374D01*
Y73669D02*
X102797D01*
Y67382D02*
Y73669D01*
X101438Y67382D02*
X102797D01*
X101438Y66678D02*
Y67382D01*
X93742Y73669D02*
Y74374D01*
X92383Y73669D02*
X93742D01*
X92383Y67382D02*
Y73669D01*
Y67382D02*
X93742D01*
Y66678D02*
Y67382D01*
Y74374D02*
X94446D01*
Y75733D01*
X100734D01*
Y74374D02*
Y75733D01*
Y74374D02*
X101438D01*
X93742Y66678D02*
X94446D01*
Y65319D02*
Y66678D01*
Y65319D02*
X100734D01*
Y66678D01*
X101438D01*
Y60144D02*
Y60848D01*
Y60144D02*
X102797D01*
Y53857D02*
Y60144D01*
X101438Y53857D02*
X102797D01*
X101438Y53152D02*
Y53857D01*
X93742Y60144D02*
Y60848D01*
X92383Y60144D02*
X93742D01*
X92383Y53857D02*
Y60144D01*
Y53857D02*
X93742D01*
Y53152D02*
Y53857D01*
Y60848D02*
X94446D01*
Y62207D01*
X100734D01*
Y60848D02*
Y62207D01*
Y60848D02*
X101438D01*
X93742Y53152D02*
X94446D01*
Y51793D02*
Y53152D01*
Y51793D02*
X100734D01*
Y53152D01*
X101438D01*
X53952Y60144D02*
Y60848D01*
Y60144D02*
X55311D01*
Y53857D02*
Y60144D01*
X53952Y53857D02*
X55311D01*
X53952Y53152D02*
Y53857D01*
X46256Y60144D02*
Y60848D01*
X44897Y60144D02*
X46256D01*
X44897Y53857D02*
Y60144D01*
Y53857D02*
X46256D01*
Y53152D02*
Y53857D01*
Y60848D02*
X46960D01*
Y62207D01*
X53248D01*
Y60848D02*
Y62207D01*
Y60848D02*
X53952D01*
X46256Y53152D02*
X46960D01*
Y51793D02*
Y53152D01*
Y51793D02*
X53248D01*
Y53152D01*
X53952D01*
X53248Y66678D02*
X53952D01*
X53248Y65319D02*
Y66678D01*
X46960Y65319D02*
X53248D01*
X46960D02*
Y66678D01*
X46256D02*
X46960D01*
X53248Y74374D02*
X53952D01*
X53248D02*
Y75733D01*
X46960D02*
X53248D01*
X46960Y74374D02*
Y75733D01*
X46256Y74374D02*
X46960D01*
X46256Y66678D02*
Y67382D01*
X44897D02*
X46256D01*
X44897D02*
Y73669D01*
X46256D01*
Y74374D01*
X53952Y66678D02*
Y67382D01*
X55311D01*
Y73669D01*
X53952D02*
X55311D01*
X53952D02*
Y74374D01*
X101438Y87197D02*
Y87902D01*
Y87197D02*
X102797D01*
Y80910D02*
Y87197D01*
X101438Y80910D02*
X102797D01*
X101438Y80206D02*
Y80910D01*
X93742Y87197D02*
Y87902D01*
X92383Y87197D02*
X93742D01*
X92383Y80910D02*
Y87197D01*
Y80910D02*
X93742D01*
Y80206D02*
Y80910D01*
Y87902D02*
X94446D01*
Y89261D01*
X100734D01*
Y87902D02*
Y89261D01*
Y87902D02*
X101438D01*
X93742Y80206D02*
X94446D01*
Y78847D02*
Y80206D01*
Y78847D02*
X100734D01*
Y80206D01*
X101438D01*
X53248Y80178D02*
X53952D01*
X53248Y78819D02*
Y80178D01*
X46960Y78819D02*
X53248D01*
X46960D02*
Y80178D01*
X46256D02*
X46960D01*
X53248Y87874D02*
X53952D01*
X53248D02*
Y89233D01*
X46960D02*
X53248D01*
X46960Y87874D02*
Y89233D01*
X46256Y87874D02*
X46960D01*
X46256Y80178D02*
Y80882D01*
X44897D02*
X46256D01*
X44897D02*
Y87169D01*
X46256D01*
Y87874D01*
X53952Y80178D02*
Y80882D01*
X55311D01*
Y87169D01*
X53952D02*
X55311D01*
X53952D02*
Y87874D01*
D158*
X27245Y155533D02*
Y170258D01*
X13445D02*
X27245D01*
X13445Y155533D02*
Y170258D01*
Y155533D02*
X27245D01*
X19066Y57503D02*
Y67743D01*
X8826Y57503D02*
X19066D01*
X8826D02*
Y67743D01*
X19066D01*
X119314Y158838D02*
X120314D01*
X106659D02*
X116314D01*
Y159638D01*
X119314Y158838D02*
Y159638D01*
Y144438D02*
X120314D01*
X119314Y143638D02*
Y144438D01*
X116314Y143638D02*
Y144438D01*
X106659D02*
X116314D01*
X106659D02*
Y158838D01*
X116314Y159638D02*
X119314D01*
X120314Y144438D02*
Y158838D01*
X116314Y143638D02*
X119314D01*
X95418Y668D02*
Y3668D01*
X96218Y-332D02*
X110618D01*
X111418Y668D02*
Y3668D01*
X96218Y13323D02*
X110618D01*
X96218Y3668D02*
Y13323D01*
X95418Y3668D02*
X96218D01*
X95418Y668D02*
X96218D01*
Y-332D02*
Y668D01*
X110618D02*
X111418D01*
X110618Y3668D02*
X111418D01*
X110618D02*
Y13323D01*
Y-332D02*
Y668D01*
X113619Y125226D02*
Y130826D01*
X107269D02*
X113619D01*
X107269Y125226D02*
Y130826D01*
Y125226D02*
X113619D01*
X89570Y66343D02*
Y71968D01*
X81920Y66343D02*
Y71968D01*
Y66343D02*
X89570D01*
X81920Y71968D02*
X89570D01*
X42084Y52818D02*
Y58443D01*
X34434Y52818D02*
Y58443D01*
Y52818D02*
X42084D01*
X34434Y58443D02*
X42084D01*
Y66343D02*
Y71968D01*
X34434Y66343D02*
Y71968D01*
Y66343D02*
X42084D01*
X34434Y71968D02*
X42084D01*
X89570Y52818D02*
Y58443D01*
X81920Y52818D02*
Y58443D01*
Y52818D02*
X89570D01*
X81920Y58443D02*
X89570D01*
X50361Y142658D02*
X71661D01*
X50361D02*
Y170258D01*
X71661D01*
Y142658D02*
Y170258D01*
X28136Y116746D02*
Y124546D01*
X21036Y116746D02*
Y124546D01*
X28136D01*
X21036Y116746D02*
X28136D01*
X28897Y142658D02*
X50197D01*
X28897D02*
Y170258D01*
X50197D01*
Y142658D02*
Y170258D01*
X72593Y116746D02*
X79693D01*
X72593Y124546D02*
X79693D01*
X72593Y116746D02*
Y124546D01*
X79693Y116746D02*
Y124546D01*
X89188Y116746D02*
X96288D01*
X89188Y124546D02*
X96288D01*
X89188Y116746D02*
Y124546D01*
X96288Y116746D02*
Y124546D01*
X88064Y155533D02*
Y170258D01*
X74264D02*
X88064D01*
X74264Y155533D02*
Y170258D01*
Y155533D02*
X88064D01*
X90854D02*
X104654D01*
X90854D02*
Y170258D01*
X104654D01*
Y155533D02*
Y170258D01*
X92316Y125691D02*
Y128291D01*
X93516Y125691D02*
Y128291D01*
X92316Y125691D02*
X93516D01*
X92316Y128291D02*
X93516D01*
X42091Y115894D02*
Y119994D01*
X36941Y115894D02*
Y119994D01*
Y115894D02*
X42091D01*
X36941Y119994D02*
X42091D01*
X5034Y124944D02*
X11384D01*
X5034D02*
Y130544D01*
X11384D01*
Y124944D02*
Y130544D01*
X58982Y115894D02*
Y119994D01*
X53832Y115894D02*
Y119994D01*
Y115894D02*
X58982D01*
X53832Y119994D02*
X58982D01*
X24165Y125691D02*
Y128291D01*
X25365Y125691D02*
Y128291D01*
X24165Y125691D02*
X25365D01*
X24165Y128291D02*
X25365D01*
X41798Y130285D02*
X45398D01*
X41798Y123985D02*
X45398D01*
Y130285D01*
X41798Y123985D02*
Y130285D01*
X58689Y123985D02*
Y130285D01*
X62289Y123985D02*
Y130285D01*
X58689Y123985D02*
X62289D01*
X58689Y130285D02*
X62289D01*
X75721Y128291D02*
X76921D01*
X75721Y125691D02*
X76921D01*
Y128291D01*
X75721Y125691D02*
Y128291D01*
X-313Y144438D02*
X687D01*
X3687D02*
X13342D01*
X3687Y143638D02*
Y144438D01*
X687Y143638D02*
Y144438D01*
X-313Y158838D02*
X687D01*
Y159638D01*
X3687Y158838D02*
Y159638D01*
Y158838D02*
X13342D01*
Y144438D02*
Y158838D01*
X687Y143638D02*
X3687D01*
X-313Y144438D02*
Y158838D01*
X687Y159638D02*
X3687D01*
X46055Y25876D02*
Y31476D01*
Y25876D02*
X52405D01*
Y31476D01*
X46055D02*
X52405D01*
X72518Y668D02*
Y3668D01*
X73318Y-332D02*
X87718D01*
X88518Y668D02*
Y3668D01*
X73318Y13323D02*
X87718D01*
X73318Y3668D02*
Y13323D01*
X72518Y3668D02*
X73318D01*
X72518Y668D02*
X73318D01*
Y-332D02*
Y668D01*
X87718D02*
X88518D01*
X87718Y3668D02*
X88518D01*
X87718D02*
Y13323D01*
Y-332D02*
Y668D01*
X68671Y31476D02*
X75021D01*
Y25876D02*
Y31476D01*
X68671Y25876D02*
X75021D01*
X68671D02*
Y31476D01*
X91288Y31477D02*
X97638D01*
Y25877D02*
Y31477D01*
X91288Y25877D02*
X97638D01*
X91288D02*
Y31477D01*
X64817Y-332D02*
Y668D01*
Y3668D02*
Y13323D01*
Y3668D02*
X65617D01*
X64817Y668D02*
X65617D01*
X50417Y-332D02*
Y668D01*
X49617D02*
X50417D01*
X49617Y3668D02*
X50417D01*
Y13323D01*
X64817D01*
X65617Y668D02*
Y3668D01*
X50417Y-332D02*
X64817D01*
X49617Y668D02*
Y3668D01*
X26717Y668D02*
Y3668D01*
X27517Y-332D02*
X41917D01*
X42717Y668D02*
Y3668D01*
X27517Y13323D02*
X41917D01*
X27517Y3668D02*
Y13323D01*
X26717Y3668D02*
X27517D01*
X26717Y668D02*
X27517D01*
Y-332D02*
Y668D01*
X41917D02*
X42717D01*
X41917Y3668D02*
X42717D01*
X41917D02*
Y13323D01*
Y-332D02*
Y668D01*
X23439Y25876D02*
Y31476D01*
Y25876D02*
X29789D01*
Y31476D01*
X23439D02*
X29789D01*
X81920Y85496D02*
X89570D01*
X81920Y79871D02*
X89570D01*
X81920D02*
Y85496D01*
X89570Y79871D02*
Y85496D01*
X34434Y85468D02*
X42084D01*
X34434Y79843D02*
X42084D01*
X34434D02*
Y85468D01*
X42084Y79843D02*
Y85468D01*
D159*
X113446Y131522D02*
Y135022D01*
X109546Y131522D02*
X109546Y135022D01*
X109546Y131522D02*
X113446D01*
X109546Y135022D02*
X113446D01*
X110996Y133272D02*
X111996D01*
X111496Y132772D02*
Y133772D01*
X103274Y136256D02*
X112274D01*
X103274Y142656D02*
X112274D01*
Y136256D02*
Y142656D01*
X103274Y136256D02*
Y142656D01*
X107774Y138956D02*
Y139956D01*
X107274Y139456D02*
X108274D01*
X65479Y57254D02*
X66479D01*
X65979Y56754D02*
Y57754D01*
X67449Y51824D02*
Y62684D01*
X64509Y51824D02*
X67449D01*
X64509D02*
Y62684D01*
X67449D01*
X65479Y70780D02*
X66479D01*
X65979Y70280D02*
Y71280D01*
X67449Y65350D02*
Y76210D01*
X64509Y65350D02*
X67449D01*
X64509D02*
Y76210D01*
X67449D01*
X112965Y57254D02*
X113965D01*
X113465Y56754D02*
Y57754D01*
X114935Y51824D02*
Y62684D01*
X111995Y51824D02*
X114935D01*
X111995D02*
Y62684D01*
X114935D01*
X112965Y70780D02*
X113965D01*
X113465Y70280D02*
Y71280D01*
X114935Y65350D02*
Y76210D01*
X111995Y65350D02*
X114935D01*
X111995D02*
Y76210D01*
X114935D01*
X28844Y55379D02*
Y56379D01*
X28344Y55879D02*
X29344D01*
X31734Y53139D02*
Y58619D01*
X25954D02*
X31734D01*
X25954Y53139D02*
Y58619D01*
Y53139D02*
X31734D01*
X28844Y68905D02*
Y69905D01*
X28344Y69405D02*
X29344D01*
X31734Y66665D02*
Y72145D01*
X25954D02*
X31734D01*
X25954Y66665D02*
Y72145D01*
Y66665D02*
X31734D01*
X76330Y55379D02*
Y56379D01*
X75830Y55879D02*
X76830D01*
X79220Y53139D02*
Y58619D01*
X73440D02*
X79220D01*
X73440Y53139D02*
Y58619D01*
Y53139D02*
X79220D01*
X76330Y68905D02*
Y69905D01*
X75830Y69405D02*
X76830D01*
X79220Y66665D02*
Y72145D01*
X73440D02*
X79220D01*
X73440Y66665D02*
Y72145D01*
Y66665D02*
X79220D01*
X24086Y120646D02*
X25086D01*
X24586Y120146D02*
Y121146D01*
X76143Y120146D02*
Y121146D01*
X75643Y120646D02*
X76643D01*
X92738Y120146D02*
Y121146D01*
X92238Y120646D02*
X93238D01*
X1039Y135974D02*
X10039D01*
X1039Y142374D02*
X10039D01*
Y135974D02*
Y142374D01*
X1039Y135974D02*
Y142374D01*
X5539Y138674D02*
Y139674D01*
X5039Y139174D02*
X6039D01*
X107809Y90983D02*
Y98349D01*
X117308Y90983D02*
Y98349D01*
X107809D02*
X117308D01*
X107809Y90983D02*
X117308D01*
X112059Y94666D02*
X113059D01*
X112559Y94166D02*
Y95166D01*
X92416Y126991D02*
X93416D01*
X92916Y126491D02*
Y127491D01*
X39016Y117944D02*
X40016D01*
X39516Y117444D02*
Y118444D01*
X55907Y117944D02*
X56907D01*
X56407Y117444D02*
Y118444D01*
X24265Y126991D02*
X25265D01*
X24765Y126491D02*
Y127491D01*
X9238Y132514D02*
Y133514D01*
X8738Y133014D02*
X9738D01*
X7288Y134764D02*
X11188D01*
X7288Y131264D02*
X11188D01*
X7288D02*
X7288Y134764D01*
X11188Y131264D02*
Y134764D01*
X43598Y126635D02*
Y127635D01*
X43098Y127135D02*
X44098D01*
X59989D02*
X60989D01*
X60489Y126635D02*
Y127635D01*
X76321Y126491D02*
Y127491D01*
X75821Y126991D02*
X76821D01*
X40804Y135847D02*
X49804D01*
X40804Y142247D02*
X49804D01*
Y135847D02*
Y142247D01*
X40804Y135847D02*
Y142247D01*
X45304Y138547D02*
Y139547D01*
X44804Y139047D02*
X45804D01*
X61695D02*
X62695D01*
X62195Y138547D02*
Y139547D01*
X57695Y135847D02*
Y142247D01*
X66695Y135847D02*
Y142247D01*
X57695D02*
X66695D01*
X57695Y135847D02*
X66695D01*
X43877Y119606D02*
Y120114D01*
X43623Y119860D02*
X44131D01*
X42099Y118209D02*
Y121511D01*
X45503Y118209D02*
Y121511D01*
X42099D02*
X45503D01*
X42099Y118209D02*
X45503D01*
X60768Y119606D02*
Y120114D01*
X60514Y119860D02*
X61022D01*
X58990Y118209D02*
Y121511D01*
X62394Y118209D02*
Y121511D01*
X58990D02*
X62394D01*
X58990Y118209D02*
X62394D01*
X51400Y17246D02*
X52400D01*
X51900Y16746D02*
Y17746D01*
X56400Y14046D02*
Y20446D01*
X47400Y14046D02*
Y20446D01*
Y14046D02*
X56400D01*
X47400Y20446D02*
X56400D01*
X70016D02*
X79016D01*
X70016Y14046D02*
X79016D01*
X70016D02*
Y20446D01*
X79016Y14046D02*
Y20446D01*
X74516Y16746D02*
Y17746D01*
X74016Y17246D02*
X75016D01*
X70817Y22906D02*
Y23906D01*
X70317Y23406D02*
X71317D01*
X68867Y21656D02*
X72767D01*
X68867Y25156D02*
X72767D01*
X72767Y21656D02*
X72767Y25156D01*
X68867Y21656D02*
Y25156D01*
X92633Y20447D02*
X101633D01*
X92633Y14047D02*
X101633D01*
X92633D02*
Y20447D01*
X101633Y14047D02*
Y20447D01*
X97133Y16747D02*
Y17747D01*
X96633Y17247D02*
X97633D01*
X93434Y22907D02*
Y23907D01*
X92934Y23407D02*
X93934D01*
X91484Y21657D02*
X95384D01*
X91484Y25157D02*
X95384D01*
X95384Y21657D02*
X95384Y25157D01*
X91484Y21657D02*
Y25157D01*
X48201Y22906D02*
Y23906D01*
X47701Y23406D02*
X48701D01*
X46251Y21656D02*
X50151D01*
X46251Y25156D02*
X50151D01*
X50151Y21656D02*
X50151Y25156D01*
X46251Y21656D02*
Y25156D01*
X23635Y21656D02*
Y25156D01*
X27535Y21656D02*
X27535Y25156D01*
X23635D02*
X27535D01*
X23635Y21656D02*
X27535D01*
X25085Y23406D02*
X26085D01*
X25585Y22906D02*
Y23906D01*
X24784Y20446D02*
X33784D01*
X24784Y14046D02*
X33784D01*
X24784D02*
Y20446D01*
X33784Y14046D02*
Y20446D01*
X29284Y16746D02*
Y17746D01*
X28784Y17246D02*
X29784D01*
X73440Y80193D02*
X79220D01*
X73440D02*
Y85673D01*
X79220D01*
Y80193D02*
Y85673D01*
X75830Y82933D02*
X76830D01*
X76330Y82433D02*
Y83433D01*
X111995Y89738D02*
X114935D01*
X111995Y78878D02*
Y89738D01*
Y78878D02*
X114935D01*
Y89738D01*
X113465Y83808D02*
Y84808D01*
X112965Y84308D02*
X113965D01*
X64509Y89710D02*
X67449D01*
X64509Y78850D02*
Y89710D01*
Y78850D02*
X67449D01*
Y89710D01*
X65979Y83780D02*
Y84780D01*
X65479Y84280D02*
X66479D01*
X25954Y80165D02*
X31734D01*
X25954D02*
Y85645D01*
X31734D01*
Y80165D02*
Y85645D01*
X28344Y82905D02*
X29344D01*
X28844Y82405D02*
Y83405D01*
D163*
X35973Y106641D02*
G03*
X23291Y107751I-6896J-5786D01*
G01*
X34864Y93964D02*
G03*
X35973Y106641I-5784J6893D01*
G01*
X22183Y95070D02*
G03*
X34861Y93961I6894J5784D01*
G01*
X23291Y107751D02*
G03*
X22182Y95072I5785J-6894D01*
G01*
X79567Y107751D02*
G03*
X78458Y95072I5785J-6894D01*
G01*
X78459Y95070D02*
G03*
X91137Y93961I6894J5784D01*
G01*
X91140Y93964D02*
G03*
X92249Y106641I-5784J6893D01*
G01*
X92249Y106641D02*
G03*
X79567Y107751I-6896J-5786D01*
G01*
X17214Y106641D02*
G03*
X4532Y107751I-6896J-5786D01*
G01*
X16105Y93964D02*
G03*
X17214Y106641I-5784J6893D01*
G01*
X3425Y95070D02*
G03*
X16103Y93961I6894J5784D01*
G01*
X4532Y107751D02*
G03*
X3423Y95072I5785J-6894D01*
G01*
X54732Y106641D02*
G03*
X42050Y107751I-6896J-5786D01*
G01*
X53623Y93964D02*
G03*
X54732Y106641I-5784J6893D01*
G01*
X40942Y95070D02*
G03*
X53620Y93961I6894J5784D01*
G01*
X42050Y107751D02*
G03*
X40940Y95072I5785J-6894D01*
G01*
X60808Y107751D02*
G03*
X59699Y95072I5785J-6894D01*
G01*
X59700Y95070D02*
G03*
X72379Y93961I6894J5784D01*
G01*
X72381Y93964D02*
G03*
X73490Y106641I-5784J6893D01*
G01*
X73490Y106641D02*
G03*
X60808Y107751I-6896J-5786D01*
G01*
X20831Y73116D02*
Y75616D01*
X17631D02*
X20831D01*
X17631Y73116D02*
Y75616D01*
Y73116D02*
X20831D01*
X34861Y93961D02*
X34864Y93964D01*
X22182Y95072D02*
X22183Y95070D01*
X18745Y142351D02*
X31545D01*
Y129551D02*
Y142351D01*
X18745Y129551D02*
X31545D01*
X18745D02*
Y142351D01*
X104936Y126308D02*
X114936D01*
X104936Y121108D02*
Y126308D01*
Y121108D02*
X114936D01*
Y126308D01*
X86896Y129550D02*
X99696D01*
X86896D02*
Y142350D01*
X99696D01*
Y129550D02*
Y142350D01*
X70301Y129550D02*
X83101D01*
X70301D02*
Y142350D01*
X83101D01*
Y129550D02*
Y142350D01*
X12701Y120826D02*
Y126026D01*
X2701Y120826D02*
X12701D01*
X2701D02*
Y126026D01*
X12701D01*
X44738Y30394D02*
Y35594D01*
X54738D01*
Y30394D02*
Y35594D01*
X44738Y30394D02*
X54738D01*
X78458Y95072D02*
X78459Y95070D01*
X91137Y93961D02*
X91140Y93964D01*
X-268Y85928D02*
X7082D01*
Y76988D02*
Y85928D01*
X-268Y76988D02*
X7082D01*
X-268D02*
Y85928D01*
X67354Y30394D02*
X77354D01*
Y35594D01*
X67354D02*
X77354D01*
X67354Y30394D02*
Y35594D01*
X89971Y30395D02*
X99971D01*
Y35595D01*
X89971D02*
X99971D01*
X89971Y30395D02*
Y35595D01*
X22122Y30394D02*
X32122D01*
Y35594D01*
X22122D02*
X32122D01*
X22122Y30394D02*
Y35594D01*
X16103Y93961D02*
X16105Y93964D01*
X3423Y95072D02*
X3425Y95070D01*
X53620Y93961D02*
X53623Y93964D01*
X40940Y95072D02*
X40942Y95070D01*
X59699Y95072D02*
X59700Y95070D01*
X72379Y93961D02*
X72381Y93964D01*
D164*
X38481Y124109D02*
G03*
X38481Y124109I-300J0D01*
G01*
X55372D02*
G03*
X55372Y124109I-300J0D01*
G01*
X46843Y127449D02*
G03*
X46843Y127449I-300J0D01*
G01*
X63734Y127401D02*
G03*
X63734Y127401I-300J0D01*
G01*
M02*
