G04*
G04 #@! TF.GenerationSoftware,Altium Limited,Altium Designer,25.8.1 (18)*
G04*
G04 Layer_Color=8421504*
%FSLAX43Y43*%
%MOMM*%
G71*
G04*
G04 #@! TF.SameCoordinates,4C837565-1E1F-4476-BEE8-5968ED86CB82*
G04*
G04*
G04 #@! TF.FilePolarity,Positive*
G04*
G01*
G75*
%ADD21R,2.136X1.336*%
G04:AMPARAMS|DCode=22|XSize=1.016mm|YSize=0.889mm|CornerRadius=0.222mm|HoleSize=0mm|Usage=FLASHONLY|Rotation=90.000|XOffset=0mm|YOffset=0mm|HoleType=Round|Shape=RoundedRectangle|*
%AMROUNDEDRECTD22*
21,1,1.016,0.445,0,0,90.0*
21,1,0.572,0.889,0,0,90.0*
1,1,0.445,0.222,0.286*
1,1,0.445,0.222,-0.286*
1,1,0.445,-0.222,-0.286*
1,1,0.445,-0.222,0.286*
%
%ADD22ROUNDEDRECTD22*%
G04:AMPARAMS|DCode=23|XSize=1.016mm|YSize=0.889mm|CornerRadius=0.222mm|HoleSize=0mm|Usage=FLASHONLY|Rotation=180.000|XOffset=0mm|YOffset=0mm|HoleType=Round|Shape=RoundedRectangle|*
%AMROUNDEDRECTD23*
21,1,1.016,0.445,0,0,180.0*
21,1,0.572,0.889,0,0,180.0*
1,1,0.445,-0.286,0.222*
1,1,0.445,0.286,0.222*
1,1,0.445,0.286,-0.222*
1,1,0.445,-0.286,-0.222*
%
%ADD23ROUNDEDRECTD23*%
G04:AMPARAMS|DCode=24|XSize=1.554mm|YSize=0.572mm|CornerRadius=0.286mm|HoleSize=0mm|Usage=FLASHONLY|Rotation=0.000|XOffset=0mm|YOffset=0mm|HoleType=Round|Shape=RoundedRectangle|*
%AMROUNDEDRECTD24*
21,1,1.554,0.000,0,0,0.0*
21,1,0.982,0.572,0,0,0.0*
1,1,0.572,0.491,0.000*
1,1,0.572,-0.491,0.000*
1,1,0.572,-0.491,0.000*
1,1,0.572,0.491,0.000*
%
%ADD24ROUNDEDRECTD24*%
%ADD25R,1.554X0.572*%
%ADD26R,0.279X1.473*%
%ADD27R,1.200X0.700*%
G04:AMPARAMS|DCode=28|XSize=1.45mm|YSize=0.3mm|CornerRadius=0.05mm|HoleSize=0mm|Usage=FLASHONLY|Rotation=180.000|XOffset=0mm|YOffset=0mm|HoleType=Round|Shape=RoundedRectangle|*
%AMROUNDEDRECTD28*
21,1,1.450,0.201,0,0,180.0*
21,1,1.351,0.300,0,0,180.0*
1,1,0.099,-0.676,0.101*
1,1,0.099,0.676,0.101*
1,1,0.099,0.676,-0.101*
1,1,0.099,-0.676,-0.101*
%
%ADD28ROUNDEDRECTD28*%
%ADD29R,1.200X3.500*%
%ADD30R,2.500X3.270*%
%ADD31R,4.700X2.200*%
%ADD32R,2.200X4.700*%
G04:AMPARAMS|DCode=33|XSize=2.353mm|YSize=0.622mm|CornerRadius=0.311mm|HoleSize=0mm|Usage=FLASHONLY|Rotation=270.000|XOffset=0mm|YOffset=0mm|HoleType=Round|Shape=RoundedRectangle|*
%AMROUNDEDRECTD33*
21,1,2.353,0.000,0,0,270.0*
21,1,1.731,0.622,0,0,270.0*
1,1,0.622,0.000,-0.865*
1,1,0.622,0.000,0.865*
1,1,0.622,0.000,0.865*
1,1,0.622,0.000,-0.865*
%
%ADD33ROUNDEDRECTD33*%
G04:AMPARAMS|DCode=34|XSize=1mm|YSize=1.2mm|CornerRadius=0.25mm|HoleSize=0mm|Usage=FLASHONLY|Rotation=0.000|XOffset=0mm|YOffset=0mm|HoleType=Round|Shape=RoundedRectangle|*
%AMROUNDEDRECTD34*
21,1,1.000,0.700,0,0,0.0*
21,1,0.500,1.200,0,0,0.0*
1,1,0.500,0.250,-0.350*
1,1,0.500,-0.250,-0.350*
1,1,0.500,-0.250,0.350*
1,1,0.500,0.250,0.350*
%
%ADD34ROUNDEDRECTD34*%
%ADD35R,1.473X0.279*%
G04:AMPARAMS|DCode=36|XSize=0.45mm|YSize=1.4mm|CornerRadius=0.05mm|HoleSize=0mm|Usage=FLASHONLY|Rotation=180.000|XOffset=0mm|YOffset=0mm|HoleType=Round|Shape=RoundedRectangle|*
%AMROUNDEDRECTD36*
21,1,0.450,1.301,0,0,180.0*
21,1,0.351,1.400,0,0,180.0*
1,1,0.099,-0.176,0.651*
1,1,0.099,0.176,0.651*
1,1,0.099,0.176,-0.651*
1,1,0.099,-0.176,-0.651*
%
%ADD36ROUNDEDRECTD36*%
G04:AMPARAMS|DCode=37|XSize=1mm|YSize=1.2mm|CornerRadius=0.25mm|HoleSize=0mm|Usage=FLASHONLY|Rotation=90.000|XOffset=0mm|YOffset=0mm|HoleType=Round|Shape=RoundedRectangle|*
%AMROUNDEDRECTD37*
21,1,1.000,0.700,0,0,90.0*
21,1,0.500,1.200,0,0,90.0*
1,1,0.500,0.350,0.250*
1,1,0.500,0.350,-0.250*
1,1,0.500,-0.350,-0.250*
1,1,0.500,-0.350,0.250*
%
%ADD37ROUNDEDRECTD37*%
G04:AMPARAMS|DCode=38|XSize=3mm|YSize=4.2mm|CornerRadius=0.045mm|HoleSize=0mm|Usage=FLASHONLY|Rotation=90.000|XOffset=0mm|YOffset=0mm|HoleType=Round|Shape=RoundedRectangle|*
%AMROUNDEDRECTD38*
21,1,3.000,4.110,0,0,90.0*
21,1,2.910,4.200,0,0,90.0*
1,1,0.090,2.055,1.455*
1,1,0.090,2.055,-1.455*
1,1,0.090,-2.055,-1.455*
1,1,0.090,-2.055,1.455*
%
%ADD38ROUNDEDRECTD38*%
G04:AMPARAMS|DCode=39|XSize=0.3mm|YSize=1.35mm|CornerRadius=0.05mm|HoleSize=0mm|Usage=FLASHONLY|Rotation=0.000|XOffset=0mm|YOffset=0mm|HoleType=Round|Shape=RoundedRectangle|*
%AMROUNDEDRECTD39*
21,1,0.300,1.251,0,0,0.0*
21,1,0.201,1.350,0,0,0.0*
1,1,0.099,0.101,-0.625*
1,1,0.099,-0.101,-0.625*
1,1,0.099,-0.101,0.625*
1,1,0.099,0.101,0.625*
%
%ADD39ROUNDEDRECTD39*%
%ADD40R,0.914X0.914*%
G04:AMPARAMS|DCode=41|XSize=0.65mm|YSize=1.2mm|CornerRadius=0.049mm|HoleSize=0mm|Usage=FLASHONLY|Rotation=270.000|XOffset=0mm|YOffset=0mm|HoleType=Round|Shape=RoundedRectangle|*
%AMROUNDEDRECTD41*
21,1,0.650,1.103,0,0,270.0*
21,1,0.553,1.200,0,0,270.0*
1,1,0.098,-0.551,-0.276*
1,1,0.098,-0.551,0.276*
1,1,0.098,0.551,0.276*
1,1,0.098,0.551,-0.276*
%
%ADD41ROUNDEDRECTD41*%
%ADD42O,1.800X0.700*%
%ADD43R,1.300X0.300*%
%ADD44R,0.450X1.050*%
G04:AMPARAMS|DCode=45|XSize=1.905mm|YSize=0.5mm|CornerRadius=0.25mm|HoleSize=0mm|Usage=FLASHONLY|Rotation=90.000|XOffset=0mm|YOffset=0mm|HoleType=Round|Shape=RoundedRectangle|*
%AMROUNDEDRECTD45*
21,1,1.905,0.000,0,0,90.0*
21,1,1.405,0.500,0,0,90.0*
1,1,0.500,0.000,0.703*
1,1,0.500,0.000,-0.703*
1,1,0.500,0.000,-0.703*
1,1,0.500,0.000,0.703*
%
%ADD45ROUNDEDRECTD45*%
%ADD46R,4.000X4.000*%
%ADD47R,3.500X4.200*%
%ADD48R,0.622X2.353*%
%ADD49R,0.800X0.600*%
G04:AMPARAMS|DCode=50|XSize=3.2mm|YSize=1.35mm|CornerRadius=0.338mm|HoleSize=0mm|Usage=FLASHONLY|Rotation=90.000|XOffset=0mm|YOffset=0mm|HoleType=Round|Shape=RoundedRectangle|*
%AMROUNDEDRECTD50*
21,1,3.200,0.675,0,0,90.0*
21,1,2.525,1.350,0,0,90.0*
1,1,0.675,0.338,1.263*
1,1,0.675,0.338,-1.263*
1,1,0.675,-0.338,-1.263*
1,1,0.675,-0.338,1.263*
%
%ADD50ROUNDEDRECTD50*%
%ADD51R,1.270X0.914*%
%ADD52R,0.500X1.905*%
G36*
X7950Y81058D02*
X6650D01*
Y81358D01*
X7950D01*
Y81058D01*
D02*
G37*
G36*
X7950Y80558D02*
X6650D01*
Y80858D01*
X7950D01*
Y80558D01*
D02*
G37*
G36*
Y80058D02*
X6650D01*
Y80358D01*
X7950D01*
Y80058D01*
D02*
G37*
G36*
Y79558D02*
X6650D01*
Y79858D01*
X7950D01*
Y79558D01*
D02*
G37*
G36*
X7950Y78758D02*
X6650D01*
Y79058D01*
Y79358D01*
X7950D01*
Y78758D01*
D02*
G37*
G36*
Y77958D02*
X6650D01*
Y78258D01*
Y78558D01*
X7950D01*
Y77958D01*
D02*
G37*
G36*
X6962Y77732D02*
X6991Y77730D01*
X7021Y77726D01*
X7051Y77721D01*
X7080Y77714D01*
X7109Y77706D01*
X7137Y77696D01*
X7165Y77686D01*
X7192Y77673D01*
X7219Y77660D01*
X7245Y77645D01*
X7270Y77628D01*
X7294Y77611D01*
X7317Y77592D01*
X7340Y77573D01*
X7361Y77552D01*
X7382Y77530D01*
X7401Y77507D01*
X7419Y77483D01*
X7436Y77458D01*
X7451Y77433D01*
X7466Y77406D01*
X7479Y77379D01*
X7490Y77352D01*
X7500Y77324D01*
X7509Y77295D01*
X7517Y77266D01*
X7523Y77237D01*
X7527Y77207D01*
X7530Y77178D01*
X7532Y77148D01*
Y77118D01*
X7530Y77088D01*
X7527Y77058D01*
X7523Y77028D01*
X7517Y76999D01*
X7509Y76970D01*
X7500Y76942D01*
X7490Y76913D01*
X7479Y76886D01*
X7466Y76859D01*
X7451Y76833D01*
X7436Y76807D01*
X7419Y76782D01*
X7401Y76759D01*
X7382Y76736D01*
X7361Y76714D01*
X7340Y76693D01*
X7317Y76673D01*
X7294Y76654D01*
X7270Y76637D01*
X7245Y76621D01*
X7219Y76606D01*
X7192Y76592D01*
X7165Y76580D01*
X7137Y76569D01*
X7109Y76559D01*
X7080Y76551D01*
X7051Y76545D01*
X7021Y76539D01*
X6991Y76536D01*
X6962Y76533D01*
X6932Y76533D01*
X6132D01*
X6102Y76533D01*
X6072Y76536D01*
X6042Y76539D01*
X6013Y76545D01*
X5984Y76551D01*
X5955Y76559D01*
X5927Y76569D01*
X5899Y76580D01*
X5871Y76592D01*
X5845Y76606D01*
X5819Y76621D01*
X5794Y76637D01*
X5769Y76654D01*
X5746Y76673D01*
X5724Y76693D01*
X5702Y76714D01*
X5682Y76736D01*
X5663Y76759D01*
X5645Y76782D01*
X5628Y76807D01*
X5612Y76833D01*
X5598Y76859D01*
X5585Y76886D01*
X5573Y76913D01*
X5563Y76942D01*
X5554Y76970D01*
X5547Y76999D01*
X5541Y77028D01*
X5536Y77058D01*
X5533Y77088D01*
X5532Y77118D01*
Y77148D01*
X5533Y77178D01*
X5536Y77207D01*
X5541Y77237D01*
X5547Y77266D01*
X5554Y77295D01*
X5563Y77324D01*
X5573Y77352D01*
X5585Y77379D01*
X5598Y77406D01*
X5612Y77433D01*
X5628Y77458D01*
X5645Y77483D01*
X5663Y77507D01*
X5682Y77530D01*
X5702Y77552D01*
X5724Y77573D01*
X5746Y77592D01*
X5769Y77611D01*
X5794Y77628D01*
X5819Y77645D01*
X5845Y77660D01*
X5871Y77673D01*
X5899Y77686D01*
X5927Y77696D01*
X5955Y77706D01*
X5984Y77714D01*
X6013Y77721D01*
X6042Y77726D01*
X6072Y77730D01*
X6102Y77732D01*
X6132Y77733D01*
X6932D01*
X6962Y77732D01*
D02*
G37*
G36*
X2682D02*
X2712Y77730D01*
X2741Y77726D01*
X2771Y77721D01*
X2800Y77714D01*
X2829Y77706D01*
X2857Y77696D01*
X2885Y77686D01*
X2912Y77673D01*
X2939Y77660D01*
X2965Y77645D01*
X2990Y77628D01*
X3014Y77611D01*
X3038Y77592D01*
X3060Y77573D01*
X3081Y77552D01*
X3102Y77530D01*
X3121Y77507D01*
X3139Y77483D01*
X3156Y77458D01*
X3171Y77433D01*
X3186Y77406D01*
X3199Y77379D01*
X3210Y77352D01*
X3221Y77324D01*
X3229Y77295D01*
X3237Y77266D01*
X3243Y77237D01*
X3247Y77207D01*
X3250Y77178D01*
X3252Y77148D01*
Y77118D01*
X3250Y77088D01*
X3247Y77058D01*
X3243Y77028D01*
X3237Y76999D01*
X3229Y76970D01*
X3221Y76942D01*
X3210Y76913D01*
X3199Y76886D01*
X3186Y76859D01*
X3171Y76833D01*
X3156Y76807D01*
X3139Y76782D01*
X3121Y76759D01*
X3102Y76736D01*
X3081Y76714D01*
X3060Y76693D01*
X3038Y76673D01*
X3014Y76654D01*
X2990Y76637D01*
X2965Y76621D01*
X2939Y76606D01*
X2912Y76592D01*
X2885Y76580D01*
X2857Y76569D01*
X2829Y76559D01*
X2800Y76551D01*
X2771Y76545D01*
X2741Y76539D01*
X2712Y76536D01*
X2682Y76533D01*
X2652Y76533D01*
X2052D01*
X2022Y76533D01*
X1992Y76536D01*
X1962Y76539D01*
X1933Y76545D01*
X1904Y76551D01*
X1875Y76559D01*
X1847Y76569D01*
X1819Y76580D01*
X1792Y76592D01*
X1765Y76606D01*
X1739Y76621D01*
X1714Y76637D01*
X1690Y76654D01*
X1666Y76673D01*
X1644Y76693D01*
X1622Y76714D01*
X1602Y76736D01*
X1583Y76759D01*
X1565Y76782D01*
X1548Y76807D01*
X1532Y76833D01*
X1518Y76859D01*
X1505Y76886D01*
X1493Y76913D01*
X1483Y76942D01*
X1474Y76970D01*
X1467Y76999D01*
X1461Y77028D01*
X1456Y77058D01*
X1454Y77088D01*
X1452Y77118D01*
Y77148D01*
X1454Y77178D01*
X1456Y77207D01*
X1461Y77237D01*
X1467Y77266D01*
X1474Y77295D01*
X1483Y77324D01*
X1493Y77352D01*
X1505Y77379D01*
X1518Y77406D01*
X1532Y77433D01*
X1548Y77458D01*
X1565Y77483D01*
X1583Y77507D01*
X1602Y77530D01*
X1622Y77552D01*
X1644Y77573D01*
X1666Y77592D01*
X1690Y77611D01*
X1714Y77628D01*
X1739Y77645D01*
X1765Y77660D01*
X1792Y77673D01*
X1819Y77686D01*
X1847Y77696D01*
X1875Y77706D01*
X1904Y77714D01*
X1933Y77721D01*
X1962Y77726D01*
X1992Y77730D01*
X2022Y77732D01*
X2052Y77733D01*
X2652D01*
X2682Y77732D01*
D02*
G37*
G36*
X3252Y85798D02*
X3250Y85828D01*
X3247Y85858D01*
X3243Y85887D01*
X3237Y85916D01*
X3229Y85945D01*
X3221Y85974D01*
X3210Y86002D01*
X3199Y86030D01*
X3186Y86057D01*
X3171Y86083D01*
X3156Y86108D01*
X3139Y86133D01*
X3121Y86157D01*
X3102Y86180D01*
X3081Y86202D01*
X3060Y86223D01*
X3038Y86243D01*
X3014Y86261D01*
X2990Y86279D01*
X2965Y86295D01*
X2939Y86310D01*
X2912Y86324D01*
X2885Y86336D01*
X2857Y86347D01*
X2829Y86356D01*
X2800Y86364D01*
X2771Y86371D01*
X2741Y86376D01*
X2712Y86380D01*
X2682Y86382D01*
X2652Y86383D01*
X2052D01*
X2022Y86382D01*
X1992Y86380D01*
X1962Y86376D01*
X1933Y86371D01*
X1904Y86364D01*
X1875Y86356D01*
X1847Y86347D01*
X1819Y86336D01*
X1792Y86324D01*
X1765Y86310D01*
X1739Y86295D01*
X1714Y86279D01*
X1690Y86261D01*
X1666Y86243D01*
X1644Y86223D01*
X1622Y86202D01*
X1602Y86180D01*
X1583Y86157D01*
X1565Y86133D01*
X1548Y86108D01*
X1532Y86083D01*
X1518Y86057D01*
X1505Y86030D01*
X1493Y86002D01*
X1483Y85974D01*
X1474Y85945D01*
X1467Y85916D01*
X1461Y85887D01*
X1456Y85858D01*
X1454Y85828D01*
X1452Y85798D01*
Y85768D01*
X1454Y85738D01*
X1456Y85708D01*
X1461Y85679D01*
X1467Y85649D01*
X1474Y85620D01*
X1483Y85592D01*
X1493Y85564D01*
X1505Y85536D01*
X1518Y85509D01*
X1532Y85483D01*
X1548Y85457D01*
X1565Y85433D01*
X1583Y85409D01*
X1602Y85386D01*
X1622Y85364D01*
X1644Y85343D01*
X1666Y85323D01*
X1690Y85305D01*
X1714Y85287D01*
X1739Y85271D01*
X1765Y85256D01*
X1792Y85242D01*
X1819Y85230D01*
X1847Y85219D01*
X1875Y85210D01*
X1904Y85201D01*
X1933Y85195D01*
X1962Y85190D01*
X1992Y85186D01*
X2022Y85184D01*
X2052Y85183D01*
X2652D01*
X2682Y85184D01*
X2712Y85186D01*
X2741Y85190D01*
X2771Y85195D01*
X2800Y85201D01*
X2829Y85210D01*
X2857Y85219D01*
X2885Y85230D01*
X2912Y85242D01*
X2939Y85256D01*
X2965Y85271D01*
X2990Y85287D01*
X3014Y85305D01*
X3038Y85323D01*
X3060Y85343D01*
X3081Y85364D01*
X3102Y85386D01*
X3121Y85409D01*
X3139Y85433D01*
X3156Y85457D01*
X3171Y85483D01*
X3186Y85509D01*
X3199Y85536D01*
X3210Y85564D01*
X3221Y85592D01*
X3229Y85620D01*
X3237Y85649D01*
X3243Y85679D01*
X3247Y85708D01*
X3250Y85738D01*
X3252Y85768D01*
Y85798D01*
D02*
G37*
G36*
X7530Y85738D02*
X7532Y85768D01*
Y85798D01*
X7530Y85828D01*
X7527Y85858D01*
X7523Y85887D01*
X7517Y85916D01*
X7509Y85945D01*
X7500Y85974D01*
X7490Y86002D01*
X7479Y86030D01*
X7466Y86057D01*
X7451Y86083D01*
X7436Y86108D01*
X7419Y86133D01*
X7401Y86157D01*
X7382Y86180D01*
X7361Y86202D01*
X7340Y86223D01*
X7317Y86243D01*
X7294Y86261D01*
X7270Y86279D01*
X7245Y86295D01*
X7219Y86310D01*
X7192Y86324D01*
X7165Y86336D01*
X7137Y86347D01*
X7109Y86356D01*
X7080Y86364D01*
X7051Y86371D01*
X7021Y86376D01*
X6991Y86380D01*
X6962Y86382D01*
X6932Y86383D01*
X6132D01*
X6102Y86382D01*
X6072Y86380D01*
X6042Y86376D01*
X6013Y86371D01*
X5984Y86364D01*
X5955Y86356D01*
X5927Y86347D01*
X5899Y86336D01*
X5871Y86324D01*
X5845Y86310D01*
X5819Y86295D01*
X5794Y86279D01*
X5769Y86261D01*
X5746Y86243D01*
X5724Y86223D01*
X5702Y86202D01*
X5682Y86180D01*
X5663Y86157D01*
X5645Y86133D01*
X5628Y86108D01*
X5612Y86083D01*
X5598Y86057D01*
X5585Y86030D01*
X5573Y86002D01*
X5563Y85974D01*
X5554Y85945D01*
X5547Y85916D01*
X5541Y85887D01*
X5536Y85858D01*
X5533Y85828D01*
X5532Y85798D01*
Y85768D01*
X5533Y85738D01*
X5536Y85708D01*
X5541Y85679D01*
X5547Y85649D01*
X5554Y85620D01*
X5563Y85592D01*
X5573Y85564D01*
X5585Y85536D01*
X5598Y85509D01*
X5612Y85483D01*
X5628Y85457D01*
X5645Y85433D01*
X5663Y85409D01*
X5682Y85386D01*
X5702Y85364D01*
X5724Y85343D01*
X5746Y85323D01*
X5769Y85305D01*
X5794Y85287D01*
X5819Y85271D01*
X5845Y85256D01*
X5871Y85242D01*
X5899Y85230D01*
X5927Y85219D01*
X5955Y85210D01*
X5984Y85201D01*
X6013Y85195D01*
X6042Y85190D01*
X6072Y85186D01*
X6102Y85184D01*
X6132Y85183D01*
X6932D01*
X6962Y85184D01*
X6991Y85186D01*
X7021Y85190D01*
X7051Y85195D01*
X7080Y85201D01*
X7109Y85210D01*
X7137Y85219D01*
X7165Y85230D01*
X7192Y85242D01*
X7219Y85256D01*
X7245Y85271D01*
X7270Y85287D01*
X7294Y85305D01*
X7317Y85323D01*
X7340Y85343D01*
X7361Y85364D01*
X7382Y85386D01*
X7401Y85409D01*
X7419Y85433D01*
X7436Y85457D01*
X7451Y85483D01*
X7466Y85509D01*
X7479Y85536D01*
X7490Y85564D01*
X7500Y85592D01*
X7509Y85620D01*
X7517Y85649D01*
X7523Y85679D01*
X7527Y85708D01*
X7530Y85738D01*
D02*
G37*
G36*
X6650Y83558D02*
X7950D01*
Y83858D01*
X7950Y84158D01*
X6650D01*
Y83858D01*
X6650Y83558D01*
D02*
G37*
G36*
X6650Y84358D02*
X7950D01*
Y84658D01*
X7950Y84958D01*
X6650D01*
Y84658D01*
X6650Y84358D01*
D02*
G37*
G36*
X6650Y81558D02*
X7950D01*
Y81858D01*
X6650D01*
Y81558D01*
D02*
G37*
G36*
X6650Y82058D02*
X7950D01*
Y82358D01*
X6650D01*
Y82058D01*
D02*
G37*
G36*
X7950Y82858D02*
X6650D01*
Y82558D01*
X7950D01*
Y82858D01*
D02*
G37*
G36*
X6650Y83058D02*
X7950D01*
Y83358D01*
X6650D01*
Y83058D01*
D02*
G37*
D21*
X111896Y105199D02*
D03*
D22*
X12047Y61156D02*
D03*
Y59530D02*
D03*
X13645D02*
D03*
Y61156D02*
D03*
X11176Y65786D02*
D03*
Y64160D02*
D03*
X13843Y65786D02*
D03*
Y64160D02*
D03*
X108244Y134094D02*
D03*
X99883Y113772D02*
D03*
X107818Y108589D02*
D03*
Y105098D02*
D03*
X94470Y127450D02*
D03*
X77880Y127455D02*
D03*
X95129Y113772D02*
D03*
X93545D02*
D03*
X90376D02*
D03*
X88791D02*
D03*
X90580Y82809D02*
D03*
X83287Y113772D02*
D03*
X78534D02*
D03*
X76949D02*
D03*
X73780D02*
D03*
X72196D02*
D03*
X96663Y24234D02*
D03*
X90580Y69281D02*
D03*
Y55756D02*
D03*
X74046Y24233D02*
D03*
X43094Y82781D02*
D03*
X26319Y127450D02*
D03*
X6009Y133813D02*
D03*
X31731Y113772D02*
D03*
X26978D02*
D03*
X25393D02*
D03*
X22224D02*
D03*
X20640D02*
D03*
X43094Y69281D02*
D03*
Y55756D02*
D03*
X51430Y24233D02*
D03*
X3551Y46950D02*
D03*
X28814Y24233D02*
D03*
X13806Y32900D02*
D03*
X5908Y32887D02*
D03*
X4261Y32900D02*
D03*
X9975D02*
D03*
X11856D02*
D03*
X3551Y45324D02*
D03*
X2586Y32900D02*
D03*
X107818Y99982D02*
D03*
X81066Y56060D02*
D03*
X91960Y113772D02*
D03*
X19055D02*
D03*
X23809D02*
D03*
X70611D02*
D03*
X75365D02*
D03*
X87207D02*
D03*
X81066Y69586D02*
D03*
X28562Y115397D02*
D03*
X21661Y125824D02*
D03*
X108244Y132468D02*
D03*
X116941Y142331D02*
D03*
Y140706D02*
D03*
X113777Y142281D02*
D03*
Y140656D02*
D03*
X45897Y14420D02*
D03*
X42733Y14370D02*
D03*
X23281Y14420D02*
D03*
X20117Y14370D02*
D03*
X13806Y34525D02*
D03*
X87966Y14371D02*
D03*
X91130Y14421D02*
D03*
X68513Y14420D02*
D03*
X65349Y14370D02*
D03*
X14706Y142050D02*
D03*
X11542Y142000D02*
D03*
X96714Y115397D02*
D03*
X90580Y70907D02*
D03*
X81066Y71211D02*
D03*
X33580Y57686D02*
D03*
Y56060D02*
D03*
X43094Y57381D02*
D03*
X81066Y57686D02*
D03*
X90580Y57381D02*
D03*
X43094Y70907D02*
D03*
X33580Y71211D02*
D03*
Y69586D02*
D03*
X107818Y106963D02*
D03*
X93545Y115397D02*
D03*
X95129D02*
D03*
X98298D02*
D03*
Y113772D02*
D03*
X99883Y119543D02*
D03*
Y117918D02*
D03*
X89813Y127450D02*
D03*
Y125824D02*
D03*
X94470D02*
D03*
X116310Y107878D02*
D03*
Y106252D02*
D03*
X25393Y115397D02*
D03*
X26978D02*
D03*
X30147D02*
D03*
Y113772D02*
D03*
X31731Y119543D02*
D03*
Y117918D02*
D03*
X76949Y115397D02*
D03*
X78534D02*
D03*
X81703Y113772D02*
D03*
Y115397D02*
D03*
X83287Y117918D02*
D03*
Y119543D02*
D03*
X21661Y127450D02*
D03*
X26319Y125824D02*
D03*
X6009Y132187D02*
D03*
X73218Y127455D02*
D03*
Y125829D02*
D03*
X77880D02*
D03*
X107818Y103473D02*
D03*
Y101608D02*
D03*
X88791Y115397D02*
D03*
X90376D02*
D03*
X91960D02*
D03*
X96714Y113772D02*
D03*
X99883Y115397D02*
D03*
X98298Y117918D02*
D03*
Y119543D02*
D03*
X116310Y102640D02*
D03*
Y104266D02*
D03*
X19055Y115397D02*
D03*
X20640D02*
D03*
X22224D02*
D03*
X23809D02*
D03*
X28562Y113772D02*
D03*
X31731Y115397D02*
D03*
X30147Y119543D02*
D03*
Y117918D02*
D03*
X70611Y115397D02*
D03*
X72196D02*
D03*
X73780D02*
D03*
X75365D02*
D03*
X80118Y113772D02*
D03*
Y115397D02*
D03*
X83287D02*
D03*
X87207D02*
D03*
X81703Y117918D02*
D03*
Y119543D02*
D03*
X11542Y140375D02*
D03*
X14706Y140425D02*
D03*
X96663Y22608D02*
D03*
X74046Y22608D02*
D03*
X65349Y15996D02*
D03*
X68513Y16046D02*
D03*
X91130Y16046D02*
D03*
X87966Y15996D02*
D03*
X33580Y83086D02*
D03*
X2586Y34525D02*
D03*
X11856D02*
D03*
X9975D02*
D03*
X4261D02*
D03*
X5908Y34513D02*
D03*
X51430Y22608D02*
D03*
X28814D02*
D03*
X20117Y15996D02*
D03*
X23281Y16046D02*
D03*
X42733Y15996D02*
D03*
X45897Y16046D02*
D03*
X81066Y83114D02*
D03*
X33580Y84711D02*
D03*
X81066Y84740D02*
D03*
X43094Y84407D02*
D03*
X90580Y84435D02*
D03*
D23*
X16688Y52449D02*
D03*
X15062D02*
D03*
X16688Y50907D02*
D03*
X15062D02*
D03*
X4394Y52449D02*
D03*
X6020D02*
D03*
Y50907D02*
D03*
X4394D02*
D03*
X15657Y65243D02*
D03*
X17283D02*
D03*
X17272Y66827D02*
D03*
X15646D02*
D03*
X17283Y60197D02*
D03*
X15657D02*
D03*
X116865Y129967D02*
D03*
Y132454D02*
D03*
Y127480D02*
D03*
Y124993D02*
D03*
X116852Y122506D02*
D03*
X114895Y99582D02*
D03*
X59989Y117349D02*
D03*
X88055Y34196D02*
D03*
X88043Y31709D02*
D03*
Y29222D02*
D03*
Y26735D02*
D03*
Y24248D02*
D03*
X65438Y34195D02*
D03*
X65426Y31708D02*
D03*
Y29221D02*
D03*
Y26734D02*
D03*
Y24247D02*
D03*
X56074Y127517D02*
D03*
Y124218D02*
D03*
Y125868D02*
D03*
X39183D02*
D03*
Y127517D02*
D03*
Y124218D02*
D03*
X43098Y117349D02*
D03*
X14629Y129686D02*
D03*
Y132173D02*
D03*
Y127199D02*
D03*
Y124712D02*
D03*
X14617Y122225D02*
D03*
X42822Y34195D02*
D03*
X42810Y31708D02*
D03*
Y26734D02*
D03*
Y29221D02*
D03*
Y24247D02*
D03*
X11542Y84845D02*
D03*
Y77709D02*
D03*
X20206Y34195D02*
D03*
X20194Y26734D02*
D03*
Y24247D02*
D03*
Y31708D02*
D03*
Y29221D02*
D03*
X62757Y80496D02*
D03*
X110243Y83464D02*
D03*
X62757Y83436D02*
D03*
X110243Y86414D02*
D03*
X62757Y86386D02*
D03*
X110243Y80524D02*
D03*
X62757Y66996D02*
D03*
Y59360D02*
D03*
Y56411D02*
D03*
Y53471D02*
D03*
X110243Y66996D02*
D03*
Y69936D02*
D03*
Y59360D02*
D03*
Y56411D02*
D03*
Y53471D02*
D03*
Y72886D02*
D03*
X62757Y69936D02*
D03*
Y72886D02*
D03*
X78145Y24628D02*
D03*
X1910Y122225D02*
D03*
X8798D02*
D03*
X1910Y124617D02*
D03*
X100762Y34196D02*
D03*
Y31804D02*
D03*
X78145Y34195D02*
D03*
Y31803D02*
D03*
X71258Y34195D02*
D03*
X93874Y34196D02*
D03*
X32913Y31803D02*
D03*
X55529D02*
D03*
X32913Y34195D02*
D03*
X26026D02*
D03*
X55529D02*
D03*
X48642D02*
D03*
X104145Y124898D02*
D03*
Y122506D02*
D03*
X111033D02*
D03*
X100762Y24629D02*
D03*
X115239Y132454D02*
D03*
Y124993D02*
D03*
Y127480D02*
D03*
Y129967D02*
D03*
X115226Y122506D02*
D03*
X112603Y124157D02*
D03*
X110977D02*
D03*
X112658Y122506D02*
D03*
X104145Y129682D02*
D03*
X105771D02*
D03*
Y122506D02*
D03*
Y124898D02*
D03*
X104145Y127290D02*
D03*
X105771D02*
D03*
X104145Y132073D02*
D03*
X105771D02*
D03*
X61131Y72886D02*
D03*
Y69936D02*
D03*
X108617Y72886D02*
D03*
Y53471D02*
D03*
Y56411D02*
D03*
Y59360D02*
D03*
Y69936D02*
D03*
Y66996D02*
D03*
X61131Y53471D02*
D03*
Y56411D02*
D03*
Y59360D02*
D03*
Y66996D02*
D03*
X113270Y99582D02*
D03*
X13004Y124712D02*
D03*
X39183Y122569D02*
D03*
X40809D02*
D03*
X44724Y117349D02*
D03*
X61615D02*
D03*
X56062Y122569D02*
D03*
X57688D02*
D03*
X1910Y127009D02*
D03*
X3536D02*
D03*
Y131792D02*
D03*
X1910D02*
D03*
X13004Y132173D02*
D03*
X40809Y124218D02*
D03*
X57700D02*
D03*
X109825Y99582D02*
D03*
X111451D02*
D03*
X3536Y122225D02*
D03*
X8742Y123876D02*
D03*
X10368D02*
D03*
X10423Y122225D02*
D03*
X12991D02*
D03*
X3536Y124617D02*
D03*
X57713Y120920D02*
D03*
X56087D02*
D03*
X61602Y122393D02*
D03*
X59976D02*
D03*
X3536Y129401D02*
D03*
X1910D02*
D03*
X13004Y127199D02*
D03*
Y129686D02*
D03*
X57700Y125868D02*
D03*
Y127517D02*
D03*
Y129167D02*
D03*
X56074D02*
D03*
X40809Y120920D02*
D03*
X39183D02*
D03*
X43098Y122393D02*
D03*
X44724D02*
D03*
X40809Y125868D02*
D03*
Y127517D02*
D03*
X39183Y129167D02*
D03*
X40809D02*
D03*
X9917Y84845D02*
D03*
Y77709D02*
D03*
X99136Y24629D02*
D03*
X100762Y29412D02*
D03*
X99136D02*
D03*
X89668Y24248D02*
D03*
X78145Y29411D02*
D03*
X76519D02*
D03*
X67051Y31708D02*
D03*
Y24247D02*
D03*
X89668Y31709D02*
D03*
X99136Y27021D02*
D03*
X100762D02*
D03*
X99136Y34196D02*
D03*
Y31804D02*
D03*
X89668Y26735D02*
D03*
Y29222D02*
D03*
X76519Y34195D02*
D03*
X67051Y26734D02*
D03*
X76519Y31803D02*
D03*
Y27020D02*
D03*
X78145D02*
D03*
X67064Y34195D02*
D03*
X67051Y29221D02*
D03*
X71313Y32544D02*
D03*
X69687D02*
D03*
X69632Y34195D02*
D03*
X89681Y34196D02*
D03*
X93930Y32545D02*
D03*
X92304D02*
D03*
X92249Y34196D02*
D03*
X76519Y24628D02*
D03*
X31287Y31803D02*
D03*
Y29411D02*
D03*
X32913D02*
D03*
X21819Y31708D02*
D03*
X53903Y24628D02*
D03*
X55529D02*
D03*
X44435Y24247D02*
D03*
X32913Y24628D02*
D03*
X31287D02*
D03*
X21819Y24247D02*
D03*
X53903Y31803D02*
D03*
X55529Y29411D02*
D03*
X53903D02*
D03*
X44435Y31708D02*
D03*
X31287Y34195D02*
D03*
X24455Y32544D02*
D03*
X26081D02*
D03*
X24400Y34195D02*
D03*
X21819Y29221D02*
D03*
X21832Y34195D02*
D03*
X32913Y27020D02*
D03*
X31287D02*
D03*
X21819Y26734D02*
D03*
X44448Y34195D02*
D03*
X53903D02*
D03*
X48697Y32544D02*
D03*
X47071D02*
D03*
X47016Y34195D02*
D03*
X44435Y29221D02*
D03*
Y26734D02*
D03*
X53903Y27020D02*
D03*
X55529D02*
D03*
X108617Y80524D02*
D03*
X61131Y86386D02*
D03*
X108617Y86414D02*
D03*
X61131Y83436D02*
D03*
X108617Y83464D02*
D03*
X61131Y80496D02*
D03*
D24*
X10739Y81457D02*
D03*
Y80507D02*
D03*
X12940D02*
D03*
Y81457D02*
D03*
Y82407D02*
D03*
D25*
X10739D02*
D03*
D26*
X96340Y74742D02*
D03*
X95340Y88270D02*
D03*
Y74742D02*
D03*
Y61217D02*
D03*
X47854Y88242D02*
D03*
X47854Y74742D02*
D03*
Y61217D02*
D03*
X48354Y88242D02*
D03*
X48854Y74742D02*
D03*
X95840D02*
D03*
X96340Y88270D02*
D03*
Y61217D02*
D03*
X48354Y74742D02*
D03*
X48854Y61217D02*
D03*
X95840D02*
D03*
X47354Y79809D02*
D03*
Y88242D02*
D03*
X94840Y88270D02*
D03*
Y79837D02*
D03*
X47354Y66309D02*
D03*
Y74742D02*
D03*
Y61217D02*
D03*
Y52784D02*
D03*
X94840Y61217D02*
D03*
Y52784D02*
D03*
Y74742D02*
D03*
Y66309D02*
D03*
X95840Y88270D02*
D03*
X48354Y61217D02*
D03*
X48854Y88242D02*
D03*
X96840Y74742D02*
D03*
X97340D02*
D03*
X97840D02*
D03*
X98340D02*
D03*
X98840D02*
D03*
X99340D02*
D03*
X99840D02*
D03*
X100340D02*
D03*
Y66309D02*
D03*
X99840D02*
D03*
X99340D02*
D03*
X98840D02*
D03*
X98340D02*
D03*
X97840D02*
D03*
X97340D02*
D03*
X96840D02*
D03*
X96340D02*
D03*
X95840D02*
D03*
X95340D02*
D03*
X96840Y61217D02*
D03*
X97340D02*
D03*
X97840D02*
D03*
X98340D02*
D03*
X98840D02*
D03*
X99340D02*
D03*
X99840D02*
D03*
X100340D02*
D03*
Y52784D02*
D03*
X99840D02*
D03*
X99340D02*
D03*
X98840D02*
D03*
X98340D02*
D03*
X97840D02*
D03*
X97340D02*
D03*
X96840D02*
D03*
X96340D02*
D03*
X95840D02*
D03*
X95340D02*
D03*
X49354Y61217D02*
D03*
X49854D02*
D03*
X50354D02*
D03*
X50854D02*
D03*
X51354D02*
D03*
X51854D02*
D03*
X52354D02*
D03*
X52854D02*
D03*
Y52784D02*
D03*
X52354D02*
D03*
X51854D02*
D03*
X51354D02*
D03*
X50854D02*
D03*
X50354D02*
D03*
X49854D02*
D03*
X49354D02*
D03*
X48854D02*
D03*
X48354D02*
D03*
X47854D02*
D03*
Y66309D02*
D03*
X48354D02*
D03*
X48854D02*
D03*
X49354D02*
D03*
X49854D02*
D03*
X50354D02*
D03*
X50854D02*
D03*
X51354D02*
D03*
X51854D02*
D03*
X52354D02*
D03*
X52854D02*
D03*
Y74742D02*
D03*
X52354D02*
D03*
X51854D02*
D03*
X51354D02*
D03*
X50854D02*
D03*
X50354D02*
D03*
X49854D02*
D03*
X49354D02*
D03*
X96840Y88270D02*
D03*
X97340D02*
D03*
X97840D02*
D03*
X98340D02*
D03*
X98840D02*
D03*
X99340D02*
D03*
X99840D02*
D03*
X100340D02*
D03*
Y79837D02*
D03*
X99840D02*
D03*
X99340D02*
D03*
X98840D02*
D03*
X98340D02*
D03*
X97840D02*
D03*
X97340D02*
D03*
X96840D02*
D03*
X96340D02*
D03*
X95840D02*
D03*
X95340D02*
D03*
X47854Y79809D02*
D03*
X48354D02*
D03*
X48854D02*
D03*
X49354D02*
D03*
X49854D02*
D03*
X50354D02*
D03*
X50854D02*
D03*
X51354D02*
D03*
X51854D02*
D03*
X52354D02*
D03*
X52854D02*
D03*
Y88242D02*
D03*
X52354D02*
D03*
X51854D02*
D03*
X51354D02*
D03*
X50854D02*
D03*
X50354D02*
D03*
X49854D02*
D03*
X49354D02*
D03*
D27*
X112621Y134222D02*
D03*
X92309Y22457D02*
D03*
X69692Y22456D02*
D03*
X10363Y133964D02*
D03*
X47076Y22456D02*
D03*
X24460D02*
D03*
X112621Y132322D02*
D03*
X110371Y133272D02*
D03*
X8113Y133014D02*
D03*
X10363Y132064D02*
D03*
X71942Y23406D02*
D03*
X69692Y24356D02*
D03*
X94559Y23407D02*
D03*
X92309Y24357D02*
D03*
X49326Y23406D02*
D03*
X47076Y24356D02*
D03*
X24460D02*
D03*
X26710Y23406D02*
D03*
D28*
X112644Y128276D02*
D03*
X92263Y28427D02*
D03*
X69646Y28426D02*
D03*
X10409Y127994D02*
D03*
X47030Y28426D02*
D03*
X24414D02*
D03*
X74046Y27426D02*
D03*
X6009Y125494D02*
D03*
X51430Y30926D02*
D03*
X74046D02*
D03*
X96663Y30927D02*
D03*
X28814Y30926D02*
D03*
X108244Y125776D02*
D03*
X96663Y27427D02*
D03*
X112644Y126776D02*
D03*
X108244Y126276D02*
D03*
Y126776D02*
D03*
Y127276D02*
D03*
Y128276D02*
D03*
Y128776D02*
D03*
Y129276D02*
D03*
Y129776D02*
D03*
Y130276D02*
D03*
X112644D02*
D03*
Y129776D02*
D03*
Y129276D02*
D03*
Y128776D02*
D03*
Y127776D02*
D03*
Y127276D02*
D03*
Y126276D02*
D03*
Y125776D02*
D03*
X24414Y29926D02*
D03*
X92263Y29927D02*
D03*
X69646Y29926D02*
D03*
X47030D02*
D03*
X10409Y126494D02*
D03*
X6009Y128994D02*
D03*
X10409Y125494D02*
D03*
Y125994D02*
D03*
Y126994D02*
D03*
Y127494D02*
D03*
Y128494D02*
D03*
Y128994D02*
D03*
Y129494D02*
D03*
Y129994D02*
D03*
X6009D02*
D03*
Y129494D02*
D03*
Y128494D02*
D03*
Y127994D02*
D03*
Y126994D02*
D03*
Y126494D02*
D03*
Y125994D02*
D03*
X51430Y30426D02*
D03*
Y29926D02*
D03*
Y29426D02*
D03*
Y28426D02*
D03*
Y27926D02*
D03*
Y27426D02*
D03*
Y26926D02*
D03*
Y26426D02*
D03*
X47030D02*
D03*
Y26926D02*
D03*
Y27426D02*
D03*
Y27926D02*
D03*
Y28926D02*
D03*
Y29426D02*
D03*
Y30426D02*
D03*
Y30926D02*
D03*
X69646D02*
D03*
Y30426D02*
D03*
Y29426D02*
D03*
Y28926D02*
D03*
Y27926D02*
D03*
Y27426D02*
D03*
Y26926D02*
D03*
Y26426D02*
D03*
X74046D02*
D03*
Y26926D02*
D03*
Y27926D02*
D03*
Y28426D02*
D03*
Y29426D02*
D03*
Y29926D02*
D03*
Y30426D02*
D03*
X92263Y30927D02*
D03*
Y30427D02*
D03*
Y29427D02*
D03*
Y28927D02*
D03*
Y27927D02*
D03*
Y27427D02*
D03*
Y26927D02*
D03*
Y26427D02*
D03*
X96663D02*
D03*
Y26927D02*
D03*
Y27927D02*
D03*
Y28427D02*
D03*
Y29427D02*
D03*
Y29927D02*
D03*
Y30427D02*
D03*
X28814Y27426D02*
D03*
Y30426D02*
D03*
Y29926D02*
D03*
Y29426D02*
D03*
Y28426D02*
D03*
Y27926D02*
D03*
Y26926D02*
D03*
Y26426D02*
D03*
X24414D02*
D03*
Y26926D02*
D03*
Y27426D02*
D03*
Y27926D02*
D03*
Y28926D02*
D03*
Y29426D02*
D03*
Y30426D02*
D03*
Y30926D02*
D03*
D29*
X114164Y114307D02*
D03*
X106833Y114310D02*
D03*
X98074Y42393D02*
D03*
X90743Y42396D02*
D03*
X68126Y42395D02*
D03*
X75458Y42392D02*
D03*
X53500Y137945D02*
D03*
X37298D02*
D03*
X11929Y114025D02*
D03*
X4598Y114028D02*
D03*
X52842Y42392D02*
D03*
X45510Y42395D02*
D03*
X30226Y42392D02*
D03*
X22894Y42395D02*
D03*
X4598Y119368D02*
D03*
X11929Y119365D02*
D03*
X52842Y37052D02*
D03*
X75458D02*
D03*
X98074Y37053D02*
D03*
X68126Y37055D02*
D03*
X90743Y37056D02*
D03*
X30226Y37052D02*
D03*
X22894Y37055D02*
D03*
X45510D02*
D03*
X114164Y119647D02*
D03*
X106833Y119650D02*
D03*
X37298Y132605D02*
D03*
X53500D02*
D03*
D30*
X110864Y139456D02*
D03*
X65285Y139047D02*
D03*
X94043Y17247D02*
D03*
X71426Y17246D02*
D03*
X48394Y139047D02*
D03*
X8629Y139174D02*
D03*
X48810Y17246D02*
D03*
X26194D02*
D03*
X77606D02*
D03*
X100223Y17247D02*
D03*
X104684Y139456D02*
D03*
X2449Y139174D02*
D03*
X42214Y139047D02*
D03*
X59105D02*
D03*
X54990Y17246D02*
D03*
X32374D02*
D03*
D31*
X102709Y150137D02*
D03*
X86470Y149944D02*
D03*
X26098D02*
D03*
X18298D02*
D03*
X94909Y150137D02*
D03*
X78670Y149944D02*
D03*
D32*
X101307Y106821D02*
D03*
Y99021D02*
D03*
D33*
X112532Y102571D02*
D03*
X111262Y107829D02*
D03*
X112532D02*
D03*
X109992Y102571D02*
D03*
X111262D02*
D03*
X109992Y107829D02*
D03*
X113802Y102571D02*
D03*
D34*
X104309Y95524D02*
D03*
Y93466D02*
D03*
X104677Y86414D02*
D03*
X98592Y95524D02*
D03*
Y93466D02*
D03*
X104677Y72886D02*
D03*
Y59360D02*
D03*
X57191Y86386D02*
D03*
X57191Y72886D02*
D03*
Y59360D02*
D03*
X100592Y93466D02*
D03*
X102309D02*
D03*
Y95524D02*
D03*
X100592D02*
D03*
X59191Y69936D02*
D03*
X57191D02*
D03*
X59191Y72886D02*
D03*
X104677Y53496D02*
D03*
X106677D02*
D03*
Y56411D02*
D03*
X104677D02*
D03*
X106677Y59360D02*
D03*
Y69936D02*
D03*
X104677D02*
D03*
Y67022D02*
D03*
X106677D02*
D03*
Y72886D02*
D03*
X57191Y53496D02*
D03*
X59191D02*
D03*
Y56411D02*
D03*
X57191D02*
D03*
Y67022D02*
D03*
X59191D02*
D03*
Y59360D02*
D03*
X106677Y86414D02*
D03*
X104677Y83464D02*
D03*
X106677D02*
D03*
Y80550D02*
D03*
X104677D02*
D03*
X59191Y80522D02*
D03*
X57191D02*
D03*
X59191Y86386D02*
D03*
X57191Y83436D02*
D03*
X59191D02*
D03*
D35*
X101807Y86304D02*
D03*
Y84304D02*
D03*
X93374Y81804D02*
D03*
X101807Y72776D02*
D03*
Y70776D02*
D03*
X93374Y68276D02*
D03*
X101807Y59250D02*
D03*
Y57250D02*
D03*
X93374Y54750D02*
D03*
X54320Y86276D02*
D03*
Y84276D02*
D03*
X54320Y72776D02*
D03*
Y70776D02*
D03*
X45888Y81776D02*
D03*
X54320Y59250D02*
D03*
Y57250D02*
D03*
X45888Y68276D02*
D03*
Y54750D02*
D03*
X45888Y81276D02*
D03*
X54320Y85276D02*
D03*
Y84776D02*
D03*
Y86776D02*
D03*
X101807Y86804D02*
D03*
Y84804D02*
D03*
Y85304D02*
D03*
X93374Y81304D02*
D03*
X45888Y67776D02*
D03*
X54320Y71776D02*
D03*
Y71276D02*
D03*
Y73276D02*
D03*
Y59750D02*
D03*
Y57750D02*
D03*
Y58250D02*
D03*
X45888Y54250D02*
D03*
X101807Y59750D02*
D03*
Y57750D02*
D03*
Y58250D02*
D03*
X93374Y54250D02*
D03*
X101807Y73276D02*
D03*
Y71276D02*
D03*
Y71776D02*
D03*
X93374Y67776D02*
D03*
Y68776D02*
D03*
Y69276D02*
D03*
Y69776D02*
D03*
Y70276D02*
D03*
Y70776D02*
D03*
Y71276D02*
D03*
Y71776D02*
D03*
Y72276D02*
D03*
Y72776D02*
D03*
Y73276D02*
D03*
X101807Y72276D02*
D03*
Y70276D02*
D03*
Y69776D02*
D03*
Y69276D02*
D03*
Y68776D02*
D03*
Y68276D02*
D03*
Y67776D02*
D03*
X93374Y55250D02*
D03*
Y55750D02*
D03*
Y56250D02*
D03*
Y56750D02*
D03*
Y57250D02*
D03*
Y57750D02*
D03*
Y58250D02*
D03*
Y58750D02*
D03*
Y59250D02*
D03*
Y59750D02*
D03*
X101807Y58750D02*
D03*
Y56750D02*
D03*
Y56250D02*
D03*
Y55750D02*
D03*
Y55250D02*
D03*
Y54750D02*
D03*
Y54250D02*
D03*
X45888Y55250D02*
D03*
Y55750D02*
D03*
Y56250D02*
D03*
Y56750D02*
D03*
Y57250D02*
D03*
Y57750D02*
D03*
Y58250D02*
D03*
Y58750D02*
D03*
Y59250D02*
D03*
Y59750D02*
D03*
X54320Y58750D02*
D03*
Y56750D02*
D03*
Y56250D02*
D03*
Y55750D02*
D03*
Y55250D02*
D03*
Y54750D02*
D03*
Y54250D02*
D03*
Y67776D02*
D03*
Y68276D02*
D03*
Y68776D02*
D03*
Y69276D02*
D03*
Y69776D02*
D03*
Y70276D02*
D03*
Y72276D02*
D03*
X45888Y73276D02*
D03*
Y72776D02*
D03*
Y72276D02*
D03*
Y71776D02*
D03*
Y71276D02*
D03*
Y70776D02*
D03*
Y70276D02*
D03*
Y69776D02*
D03*
Y69276D02*
D03*
Y68776D02*
D03*
X93374Y82304D02*
D03*
Y82804D02*
D03*
Y83304D02*
D03*
Y83804D02*
D03*
Y84304D02*
D03*
Y84804D02*
D03*
Y85304D02*
D03*
Y85804D02*
D03*
Y86304D02*
D03*
Y86804D02*
D03*
X101807Y85804D02*
D03*
Y83804D02*
D03*
Y83304D02*
D03*
Y82804D02*
D03*
Y82304D02*
D03*
Y81804D02*
D03*
Y81304D02*
D03*
X54320Y81276D02*
D03*
Y81776D02*
D03*
Y82276D02*
D03*
Y82776D02*
D03*
Y83276D02*
D03*
Y83776D02*
D03*
Y85776D02*
D03*
X45888Y86776D02*
D03*
Y86276D02*
D03*
Y85776D02*
D03*
Y85276D02*
D03*
Y84776D02*
D03*
Y84276D02*
D03*
Y83776D02*
D03*
Y83276D02*
D03*
Y82776D02*
D03*
Y82276D02*
D03*
D36*
X91763Y123596D02*
D03*
X95663D02*
D03*
X94363D02*
D03*
X93713D02*
D03*
X93063Y117696D02*
D03*
X79068Y123596D02*
D03*
X77118D02*
D03*
X75168D02*
D03*
X77768D02*
D03*
X76468Y117696D02*
D03*
X25561Y123596D02*
D03*
X26211D02*
D03*
X23611D02*
D03*
X27511D02*
D03*
X24911Y117696D02*
D03*
X21661D02*
D03*
X73218D02*
D03*
X89813D02*
D03*
X27511D02*
D03*
X21661Y123596D02*
D03*
X95663Y117696D02*
D03*
X26861Y123596D02*
D03*
X24911D02*
D03*
X24261D02*
D03*
X22961D02*
D03*
X22311D02*
D03*
X26861Y117696D02*
D03*
X26211D02*
D03*
X25561D02*
D03*
X24261D02*
D03*
X22961D02*
D03*
X23611D02*
D03*
X22311D02*
D03*
X75818D02*
D03*
X77118D02*
D03*
X77768D02*
D03*
X78418D02*
D03*
X73218Y123596D02*
D03*
X73868D02*
D03*
X74518D02*
D03*
X75818D02*
D03*
X76468D02*
D03*
X78418D02*
D03*
X79068Y117696D02*
D03*
X74518D02*
D03*
X75168D02*
D03*
X73868D02*
D03*
X90463D02*
D03*
X91763D02*
D03*
X91113D02*
D03*
X92413D02*
D03*
X93713D02*
D03*
X94363D02*
D03*
X95013D02*
D03*
X89813Y123596D02*
D03*
X90463D02*
D03*
X91113D02*
D03*
X92413D02*
D03*
X93063D02*
D03*
X95013D02*
D03*
D37*
X87370Y124360D02*
D03*
X87370Y117696D02*
D03*
X70775Y124360D02*
D03*
X70775Y117696D02*
D03*
X19219Y124360D02*
D03*
X19219Y117696D02*
D03*
X7731Y46963D02*
D03*
X7985Y32887D02*
D03*
X19219Y119696D02*
D03*
X19219Y122360D02*
D03*
X70775Y119696D02*
D03*
X87370D02*
D03*
X70775Y122360D02*
D03*
X87370D02*
D03*
X116777Y138662D02*
D03*
Y136662D02*
D03*
X113752Y138751D02*
D03*
Y136751D02*
D03*
X14542Y136380D02*
D03*
Y138380D02*
D03*
X11517Y136470D02*
D03*
Y138470D02*
D03*
X42897Y18040D02*
D03*
Y20040D02*
D03*
X7985Y34887D02*
D03*
X65513Y20040D02*
D03*
Y18040D02*
D03*
X68538Y19950D02*
D03*
Y17950D02*
D03*
X91155Y19951D02*
D03*
Y17951D02*
D03*
X88130Y20041D02*
D03*
Y18041D02*
D03*
X7731Y44963D02*
D03*
X23306Y17950D02*
D03*
Y19950D02*
D03*
X45922Y17950D02*
D03*
Y19950D02*
D03*
X20281Y18040D02*
D03*
Y20040D02*
D03*
D38*
X92738Y120646D02*
D03*
X76143D02*
D03*
X24586D02*
D03*
D39*
X59489Y129360D02*
D03*
X42598D02*
D03*
Y124910D02*
D03*
X44098D02*
D03*
X44598Y129360D02*
D03*
Y124910D02*
D03*
X44098Y129360D02*
D03*
X43098Y124910D02*
D03*
Y129360D02*
D03*
X43598Y124910D02*
D03*
Y129360D02*
D03*
X60489D02*
D03*
Y124910D02*
D03*
X59989Y129360D02*
D03*
Y124910D02*
D03*
X61489D02*
D03*
Y129360D02*
D03*
X60989Y124910D02*
D03*
X59489D02*
D03*
X60989Y129360D02*
D03*
D40*
X61784Y120812D02*
D03*
X44893D02*
D03*
Y118907D02*
D03*
X61784D02*
D03*
D41*
X57882Y117944D02*
D03*
X40991D02*
D03*
Y116994D02*
D03*
X38041D02*
D03*
X57882D02*
D03*
X54932D02*
D03*
X40991Y118894D02*
D03*
X38041D02*
D03*
Y117944D02*
D03*
X57882Y118894D02*
D03*
X54932D02*
D03*
Y117944D02*
D03*
D42*
X88520Y82036D02*
D03*
X83020Y80766D02*
D03*
X88520Y68508D02*
D03*
Y54983D02*
D03*
X83020Y67238D02*
D03*
Y53713D02*
D03*
X41034Y82008D02*
D03*
X35534Y80738D02*
D03*
X41034Y68508D02*
D03*
Y54983D02*
D03*
X35534Y67238D02*
D03*
Y53713D02*
D03*
X83020Y54983D02*
D03*
Y56253D02*
D03*
Y69778D02*
D03*
Y68508D02*
D03*
X41034Y83278D02*
D03*
X88520Y83306D02*
D03*
Y56253D02*
D03*
X41034Y69778D02*
D03*
Y56253D02*
D03*
X88520Y69778D02*
D03*
Y67238D02*
D03*
Y71048D02*
D03*
X83020D02*
D03*
X41034Y53713D02*
D03*
Y57523D02*
D03*
X35534D02*
D03*
Y54983D02*
D03*
Y56253D02*
D03*
X41034Y67238D02*
D03*
Y71048D02*
D03*
X35534D02*
D03*
Y69778D02*
D03*
Y68508D02*
D03*
X88520Y53713D02*
D03*
Y57523D02*
D03*
X83020D02*
D03*
X35534Y82008D02*
D03*
Y83278D02*
D03*
X83020Y82036D02*
D03*
Y83306D02*
D03*
Y84576D02*
D03*
X88520D02*
D03*
Y80766D02*
D03*
X35534Y84548D02*
D03*
X41034D02*
D03*
Y80738D02*
D03*
D43*
X7300Y78408D02*
D03*
Y84508D02*
D03*
Y78108D02*
D03*
Y84808D02*
D03*
Y81208D02*
D03*
Y82208D02*
D03*
Y80708D02*
D03*
Y81708D02*
D03*
Y83208D02*
D03*
Y82708D02*
D03*
Y80208D02*
D03*
Y79708D02*
D03*
Y84008D02*
D03*
Y83708D02*
D03*
Y79208D02*
D03*
Y78908D02*
D03*
D44*
X8606Y42785D02*
D03*
X13156Y37235D02*
D03*
X10556D02*
D03*
X9906D02*
D03*
X12506D02*
D03*
X8606D02*
D03*
X9256D02*
D03*
X13806D02*
D03*
X12506Y42785D02*
D03*
X7956D02*
D03*
X9256D02*
D03*
X9906D02*
D03*
X10556D02*
D03*
X11206D02*
D03*
X13156D02*
D03*
X13806D02*
D03*
X11856Y37235D02*
D03*
X11206D02*
D03*
X7956D02*
D03*
X11856Y42785D02*
D03*
D45*
X4201Y41957D02*
D03*
X5501D02*
D03*
Y37656D02*
D03*
X4851Y41957D02*
D03*
X3551D02*
D03*
X4201Y37656D02*
D03*
X4851D02*
D03*
D46*
X109892Y94666D02*
D03*
X115226D02*
D03*
D47*
X31145Y135951D02*
D03*
X19145D02*
D03*
X99296D02*
D03*
X87296D02*
D03*
X70701D02*
D03*
X82701D02*
D03*
D48*
X113802Y107829D02*
D03*
D49*
X92916Y127861D02*
D03*
Y126121D02*
D03*
X24765Y127861D02*
D03*
Y126121D02*
D03*
X76321D02*
D03*
Y127861D02*
D03*
D50*
X58425Y132570D02*
D03*
X64013D02*
D03*
X41534D02*
D03*
X47122D02*
D03*
D51*
X42861Y119860D02*
D03*
X59752D02*
D03*
D52*
X3551Y37656D02*
D03*
M02*
